  0
SECTION
  2
HEADER
  9
$ACADVER
  1
AC1024
  9
$ACADMAINTVER
 70
     6
  9
$DWGCODEPAGE
  3
UNDEFINED
  9
$INSBASE
 10
0.0
 20
0.0
 30
0.0
  9
$EXTMIN
 10
1.000000000000000E+20
 20
1.000000000000000E+20
 30
1.000000000000000E+20
  9
$EXTMAX
 10
-1.000000000000000E+20
 20
-1.000000000000000E+20
 30
-1.000000000000000E+20
  9
$LIMMIN
 10
0.0
 20
0.0
  9
$LIMMAX
 10
12.0
 20
9.0
  9
$ORTHOMODE
 70
     0
  9
$REGENMODE
 70
     1
  9
$FILLMODE
 70
     1
  9
$QTEXTMODE
 70
     0
  9
$MIRRTEXT
 70
     1
  9
$LTSCALE
 40
1.0
  9
$ATTMODE
 70
     1
  9
$TEXTSIZE
 40
0.2
  9
$TRACEWID
 40
0.05
  9
$TEXTSTYLE
  7
Standard
  9
$CLAYER
  8
0
  9
$CELTYPE
  6
ByLayer
  9
$CECOLOR
 62
   256
  9
$CELTSCALE
 40
1.0
  9
$DISPSILH
 70
     0
  9
$DIMSCALE
 40
1.0
  9
$DIMASZ
 40
0.18
  9
$DIMEXO
 40
0.0625
  9
$DIMDLI
 40
0.38
  9
$DIMRND
 40
0.0
  9
$DIMDLE
 40
0.0
  9
$DIMEXE
 40
0.18
  9
$DIMTP
 40
0.0
  9
$DIMTM
 40
0.0
  9
$DIMTXT
 40
0.18
  9
$DIMCEN
 40
0.09
  9
$DIMTSZ
 40
0.0
  9
$DIMTOL
 70
     0
  9
$DIMLIM
 70
     0
  9
$DIMTIH
 70
     1
  9
$DIMTOH
 70
     1
  9
$DIMSE1
 70
     0
  9
$DIMSE2
 70
     0
  9
$DIMTAD
 70
     0
  9
$DIMZIN
 70
     0
  9
$DIMBLK
  1

  9
$DIMASO
 70
     1
  9
$DIMSHO
 70
     1
  9
$DIMPOST
  1

  9
$DIMAPOST
  1

  9
$DIMALT
 70
     0
  9
$DIMALTD
 70
     2
  9
$DIMALTF
 40
25.4
  9
$DIMLFAC
 40
1.0
  9
$DIMTOFL
 70
     0
  9
$DIMTVP
 40
0.0
  9
$DIMTIX
 70
     0
  9
$DIMSOXD
 70
     0
  9
$DIMSAH
 70
     0
  9
$DIMBLK1
  1

  9
$DIMBLK2
  1

  9
$DIMSTYLE
  2
Standard
  9
$DIMCLRD
 70
     0
  9
$DIMCLRE
 70
     0
  9
$DIMCLRT
 70
     0
  9
$DIMTFAC
 40
1.0
  9
$DIMGAP
 40
0.09
  9
$DIMJUST
 70
     0
  9
$DIMSD1
 70
     0
  9
$DIMSD2
 70
     0
  9
$DIMTOLJ
 70
     1
  9
$DIMTZIN
 70
     0
  9
$DIMALTZ
 70
     0
  9
$DIMALTTZ
 70
     0
  9
$DIMUPT
 70
     0
  9
$DIMDEC
 70
     4
  9
$DIMTDEC
 70
     4
  9
$DIMALTU
 70
     2
  9
$DIMALTTD
 70
     2
  9
$DIMTXSTY
  7
Standard
  9
$DIMAUNIT
 70
     0
  9
$DIMADEC
 70
     0
  9
$DIMALTRND
 40
0.0
  9
$DIMAZIN
 70
     0
  9
$DIMDSEP
 70
    46
  9
$DIMATFIT
 70
     3
  9
$DIMFRAC
 70
     0
  9
$DIMLDRBLK
  1

  9
$DIMLUNIT
 70
     2
  9
$DIMLWD
 70
    -2
  9
$DIMLWE
 70
    -2
  9
$DIMTMOVE
 70
     0
  9
$DIMFXL
 40
1.0
  9
$DIMFXLON
 70
     0
  9
$DIMJOGANG
 40
0.7853981633974483
  9
$DIMTFILL
 70
     0
  9
$DIMTFILLCLR
 70
     0
  9
$DIMARCSYM
 70
     0
  9
$DIMLTYPE
  6

  9
$DIMLTEX1
  6

  9
$DIMLTEX2
  6

  9
$DIMTXTDIRECTION
 70
     0
  9
$LUNITS
 70
     2
  9
$LUPREC
 70
     4
  9
$SKETCHINC
 40
0.1
  9
$FILLETRAD
 40
0.5
  9
$AUNITS
 70
     0
  9
$AUPREC
 70
     0
  9
$MENU
  1
.
  9
$ELEVATION
 40
0.0
  9
$PELEVATION
 40
0.0
  9
$THICKNESS
 40
0.0
  9
$LIMCHECK
 70
     0
  9
$CHAMFERA
 40
0.5
  9
$CHAMFERB
 40
0.5
  9
$CHAMFERC
 40
1.0
  9
$CHAMFERD
 40
0.0
  9
$SKPOLY
 70
     0
  9
$TDCREATE
 40
2458904.457430544
  9
$TDUCREATE
 40
2458904.665763889
  9
$TDUPDATE
 40
2458904.457430544
  9
$TDUUPDATE
 40
2458904.665763889
  9
$TDINDWG
 40
0.0000000116
  9
$TDUSRTIMER
 40
0.0000000116
  9
$USRTIMER
 70
     1
  9
$ANGBASE
 50
0.0
  9
$ANGDIR
 70
     0
  9
$PDMODE
 70
     0
  9
$PDSIZE
 40
0.0
  9
$PLINEWID
 40
0.0
  9
$SPLFRAME
 70
     0
  9
$SPLINETYPE
 70
     6
  9
$SPLINESEGS
 70
     8
  9
$HANDSEED
  5
54
  9
$SURFTAB1
 70
     6
  9
$SURFTAB2
 70
     6
  9
$SURFTYPE
 70
     6
  9
$SURFU
 70
     6
  9
$SURFV
 70
     6
  9
$UCSBASE
  2

  9
$UCSNAME
  2

  9
$UCSORG
 10
0.0
 20
0.0
 30
0.0
  9
$UCSXDIR
 10
1.0
 20
0.0
 30
0.0
  9
$UCSYDIR
 10
0.0
 20
1.0
 30
0.0
  9
$UCSORTHOREF
  2

  9
$UCSORTHOVIEW
 70
     0
  9
$UCSORGTOP
 10
0.0
 20
0.0
 30
0.0
  9
$UCSORGBOTTOM
 10
0.0
 20
0.0
 30
0.0
  9
$UCSORGLEFT
 10
0.0
 20
0.0
 30
0.0
  9
$UCSORGRIGHT
 10
0.0
 20
0.0
 30
0.0
  9
$UCSORGFRONT
 10
0.0
 20
0.0
 30
0.0
  9
$UCSORGBACK
 10
0.0
 20
0.0
 30
0.0
  9
$PUCSBASE
  2

  9
$PUCSNAME
  2

  9
$PUCSORG
 10
0.0
 20
0.0
 30
0.0
  9
$PUCSXDIR
 10
1.0
 20
0.0
 30
0.0
  9
$PUCSYDIR
 10
0.0
 20
1.0
 30
0.0
  9
$PUCSORTHOREF
  2

  9
$PUCSORTHOVIEW
 70
     0
  9
$PUCSORGTOP
 10
0.0
 20
0.0
 30
0.0
  9
$PUCSORGBOTTOM
 10
0.0
 20
0.0
 30
0.0
  9
$PUCSORGLEFT
 10
0.0
 20
0.0
 30
0.0
  9
$PUCSORGRIGHT
 10
0.0
 20
0.0
 30
0.0
  9
$PUCSORGFRONT
 10
0.0
 20
0.0
 30
0.0
  9
$PUCSORGBACK
 10
0.0
 20
0.0
 30
0.0
  9
$USERI1
 70
     0
  9
$USERI2
 70
     0
  9
$USERI3
 70
     0
  9
$USERI4
 70
     0
  9
$USERI5
 70
     0
  9
$USERR1
 40
0.0
  9
$USERR2
 40
0.0
  9
$USERR3
 40
0.0
  9
$USERR4
 40
0.0
  9
$USERR5
 40
0.0
  9
$WORLDVIEW
 70
     1
  9
$SHADEDGE
 70
     3
  9
$SHADEDIF
 70
    70
  9
$TILEMODE
 70
     1
  9
$MAXACTVP
 70
    64
  9
$PINSBASE
 10
0.0
 20
0.0
 30
0.0
  9
$PLIMCHECK
 70
     0
  9
$PEXTMIN
 10
1.000000000000000E+20
 20
1.000000000000000E+20
 30
1.000000000000000E+20
  9
$PEXTMAX
 10
-1.000000000000000E+20
 20
-1.000000000000000E+20
 30
-1.000000000000000E+20
  9
$PLIMMIN
 10
0.0
 20
0.0
  9
$PLIMMAX
 10
12.0
 20
9.0
  9
$UNITMODE
 70
     0
  9
$VISRETAIN
 70
     1
  9
$PLINEGEN
 70
     0
  9
$PSLTSCALE
 70
     1
  9
$TREEDEPTH
 70
  3020
  9
$CMLSTYLE
  2
Standard
  9
$CMLJUST
 70
     0
  9
$CMLSCALE
 40
1.0
  9
$PROXYGRAPHICS
 70
     1
  9
$MEASUREMENT
 70
     0
  9
$CELWEIGHT
370
    -1
  9
$ENDCAPS
280
     0
  9
$JOINSTYLE
280
     0
  9
$LWDISPLAY
290
     1
  9
$INSUNITS
 70
     1
  9
$HYPERLINKBASE
  1

  9
$STYLESHEET
  1

  9
$XEDIT
290
     1
  9
$CEPSNTYPE
380
     0
  9
$PSTYLEMODE
290
     1
  9
$FINGERPRINTGUID
  2
{2518FDBA-2851-C5BC-B215-CA8BFCBFC1F9}
  9
$VERSIONGUID
  2
{FAEB1C32-E019-11D5-929B-00C0DF256EC4}
  9
$EXTNAMES
290
     1
  9
$PSVPSCALE
 40
0.0
  9
$OLESTARTUP
290
     0
  9
$SORTENTS
280
   127
  9
$INDEXCTL
280
     0
  9
$HIDETEXT
280
     1
  9
$XCLIPFRAME
280
     2
  9
$HALOGAP
280
     0
  9
$OBSCOLOR
 70
   257
  9
$OBSLTYPE
280
     0
  9
$INTERSECTIONDISPLAY
280
     0
  9
$INTERSECTIONCOLOR
 70
   257
  9
$DIMASSOC
280
     2
  9
$PROJECTNAME
  1

  9
$CAMERADISPLAY
290
     0
  9
$LENSLENGTH
 40
50.0
  9
$CAMERAHEIGHT
 40
0.0
  9
$STEPSPERSEC
 40
2.0
  9
$STEPSIZE
 40
6.0
  9
$3DDWFPREC
 40
2.0
  9
$PSOLWIDTH
 40
0.25
  9
$PSOLHEIGHT
 40
4.0
  9
$LOFTANG1
 40
1.570796326794897
  9
$LOFTANG2
 40
1.570796326794897
  9
$LOFTMAG1
 40
0.0
  9
$LOFTMAG2
 40
0.0
  9
$LOFTPARAM
 70
     7
  9
$LOFTNORMALS
280
     1
  9
$LATITUDE
 40
37.795
  9
$LONGITUDE
 40
-122.394
  9
$NORTHDIRECTION
 40
0.0
  9
$TIMEZONE
 70
 -8000
  9
$LIGHTGLYPHDISPLAY
280
     1
  9
$TILEMODELIGHTSYNCH
280
     1
  9
$CMATERIAL
347
3C
  9
$SOLIDHIST
280
     1
  9
$SHOWHIST
280
     1
  9
$DWFFRAME
280
     2
  9
$DGNFRAME
280
     2
  9
$REALWORLDSCALE
290
     1
  9
$INTERFERECOLOR
 62
   256
  9
$CSHADOW
280
     0
  9
$SHADOWPLANELOCATION
 40
0.0
  0
ENDSEC
  0
SECTION
  2
CLASSES
  0
CLASS
  1
ACDBDICTIONARYWDFLT
  2
AcDbDictionaryWithDefault
  3
ObjectDBX Classes
 90
        0
 91
        4
280
     0
281
     0
  0
CLASS
  1
VISUALSTYLE
  2
AcDbVisualStyle
  3
ObjectDBX Classes
 90
     4095
 91
        4
280
     0
281
     0
  0
CLASS
  1
MATERIAL
  2
AcDbMaterial
  3
ObjectDBX Classes
 90
     1153
 91
        4
280
     0
281
     0
  0
CLASS
  1
SUN
  2
AcDbSun
  3
SCENEOE
 90
     1024
 91
        4
280
     0
281
     0
  0
ENDSEC
  0
SECTION
  2
TABLES
  0
TABLE
  2
VPORT
  5
8
330
0
100
AcDbSymbolTable
 70
     1
  0
VPORT
  5
29
330
8
100
AcDbSymbolTableRecord
100
AcDbViewportTableRecord
  2
*Active
 70
     0
 10
0.0
 20
0.0
 11
1.0
 21
1.0
 12
0.0
 22
0.0
 13
0.0
 23
0.0
 14
0.5
 24
0.5
 15
0.5
 25
0.5
 16
0.0
 26
0.0
 36
1.0
 17
5.846458333333329
 27
-4.133888888888881
 37
0.0
 40
19.0
 41
1.0
 42
50.0
 43
0.0
 44
0.0
 50
0.0
 51
0.0
 71
     0
 72
   100
 73
     1
 74
     3
 75
     0
 76
     0
 77
     0
 78
     0
281
     0
 65
     1
110
0.0
120
0.0
130
0.0
111
1.0
121
0.0
131
0.0
112
0.0
122
1.0
132
0.0
 79
     0
146
0.0
 60
     3
 61
     5
292
     1
282
     1
141
0.0
142
0.0
 63
   250
361
3F
  0
ENDTAB
  0
TABLE
  2
LTYPE
  5
5
330
0
100
AcDbSymbolTable
 70
     1
  0
LTYPE
  5
14
330
5
100
AcDbSymbolTableRecord
100
AcDbLinetypeTableRecord
  2
ByBlock
 70
     0
  3

 72
    65
 73
     0
 40
0.0
  0
LTYPE
  5
15
330
5
100
AcDbSymbolTableRecord
100
AcDbLinetypeTableRecord
  2
ByLayer
 70
     0
  3

 72
    65
 73
     0
 40
0.0
  0
LTYPE
  5
16
330
5
100
AcDbSymbolTableRecord
100
AcDbLinetypeTableRecord
  2
Continuous
 70
     0
  3
Solid line
 72
    65
 73
     0
 40
0.0
  0
ENDTAB
  0
TABLE
  2
LAYER
  5
2
330
0
100
AcDbSymbolTable
 70
     2
  0
LAYER
  5
10
330
2
100
AcDbSymbolTableRecord
100
AcDbLayerTableRecord
  2
0
 70
     0
 62
     7
  6
Continuous
370
    -3
390
F
347
3E
  0
LAYER
  5
40
330
2
100
AcDbSymbolTableRecord
100
AcDbLayerTableRecord
  2
Layer 2
 70
     0
 62
     7
  6
Continuous
370
    -3
390
F
347
3E
  0
ENDTAB
  0
TABLE
  2
STYLE
  5
3
330
0
100
AcDbSymbolTable
 70
     1
  0
STYLE
  5
11
330
3
100
AcDbSymbolTableRecord
100
AcDbTextStyleTableRecord
  2
Standard
 70
     0
 40
0.0
 41
1.0
 50
0.0
 71
     0
 42
0.2
  3
txt
  4

  0
ENDTAB
  0
TABLE
  2
VIEW
  5
6
330
0
100
AcDbSymbolTable
 70
     0
  0
ENDTAB
  0
TABLE
  2
UCS
  5
7
330
0
100
AcDbSymbolTable
 70
     0
  0
ENDTAB
  0
TABLE
  2
APPID
  5
9
330
0
100
AcDbSymbolTable
 70
     1
  0
APPID
  5
12
330
9
100
AcDbSymbolTableRecord
100
AcDbRegAppTableRecord
  2
ACAD
 70
     0
  0
ENDTAB
  0
TABLE
  2
DIMSTYLE
  5
A
330
0
100
AcDbSymbolTable
 70
     1
100
AcDbDimStyleTable
  0
DIMSTYLE
105
27
330
A
100
AcDbSymbolTableRecord
100
AcDbDimStyleTableRecord
  2
Standard
 70
     0
178
     0
340
11
  0
ENDTAB
  0
TABLE
  2
BLOCK_RECORD
  5
1
330
0
100
AcDbSymbolTable
 70
     1
  0
BLOCK_RECORD
  5
1F
330
1
100
AcDbSymbolTableRecord
100
AcDbBlockTableRecord
  2
*Model_Space
340
22
 70
     0
280
     1
281
     0
  0
BLOCK_RECORD
  5
1B
330
1
100
AcDbSymbolTableRecord
100
AcDbBlockTableRecord
  2
*Paper_Space
340
1E
 70
     0
280
     1
281
     0
  0
BLOCK_RECORD
  5
23
330
1
100
AcDbSymbolTableRecord
100
AcDbBlockTableRecord
  2
*Paper_Space0
340
26
 70
     0
280
     1
281
     0
  0
ENDTAB
  0
ENDSEC
  0
SECTION
  2
BLOCKS
  0
BLOCK
  5
20
330
1F
100
AcDbEntity
  8
0
100
AcDbBlockBegin
  2
*Model_Space
 70
     0
 10
0.0
 20
0.0
 30
0.0
  3
*Model_Space
  1

  0
ENDBLK
  5
21
330
1F
100
AcDbEntity
  8
0
100
AcDbBlockEnd
  0
BLOCK
  5
1C
330
1B
100
AcDbEntity
 67
     1
  8
0
100
AcDbBlockBegin
  2
*Paper_Space
 70
     0
 10
0.0
 20
0.0
 30
0.0
  3
*Paper_Space
  1

  0
ENDBLK
  5
1D
330
1B
100
AcDbEntity
 67
     1
  8
0
100
AcDbBlockEnd
  0
BLOCK
  5
24
330
23
100
AcDbEntity
  8
0
100
AcDbBlockBegin
  2
*Paper_Space0
 70
     0
 10
0.0
 20
0.0
 30
0.0
  3
*Paper_Space0
  1

  0
ENDBLK
  5
25
330
23
100
AcDbEntity
  8
0
100
AcDbBlockEnd
  0
ENDSEC
  0
SECTION
  2
ENTITIES
  0
POLYLINE
  5
41
330
1F
100
AcDbEntity
  8
Layer 2
 62
   178
420
    65793
370
     5
100
AcDb2dPolyline
 66
     1
 10
0.0
 20
0.0
 30
0.0
  0
VERTEX
  5
42
330
41
100
AcDbEntity
  8
Layer 2
 62
   178
420
    65793
370
     5
100
AcDbVertex
100
AcDb2dVertex
 10
0.4605324234670055
 20
4.578096942400331
 30
0.0
  0
VERTEX
  5
43
330
41
100
AcDbEntity
  8
Layer 2
 62
   178
420
    65793
370
     5
100
AcDbVertex
100
AcDb2dVertex
 10
0.6967528959426847
 20
4.578096942400331
 30
0.0
  0
SEQEND
  5
44
330
41
100
AcDbEntity
  8
Layer 2
 62
   178
420
    65793
370
     5
  0
SPLINE
  5
45
330
1F
100
AcDbEntity
  8
Layer 2
 62
   240
420
 15539236
370
     5
100
AcDbSpline
210
0.0
220
0.0
230
1.0
 70
    11
 71
     3
 72
   173
 73
   169
 74
     0
 42
0.0000000001
 43
0.0000000001
 12
1.0
 22
0.0
 32
0.0
 13
1.0
 23
0.0
 33
0.0
 40
0.0
 40
0.0
 40
0.0
 40
0.0
 40
1.0
 40
1.0
 40
1.0
 40
2.0
 40
2.0
 40
2.0
 40
3.0
 40
3.0
 40
3.0
 40
4.0
 40
4.0
 40
4.0
 40
5.0
 40
5.0
 40
5.0
 40
6.0
 40
6.0
 40
6.0
 40
7.0
 40
7.0
 40
7.0
 40
8.0
 40
8.0
 40
8.0
 40
9.0
 40
9.0
 40
9.0
 40
10.0
 40
10.0
 40
10.0
 40
11.0
 40
11.0
 40
11.0
 40
12.0
 40
12.0
 40
12.0
 40
13.0
 40
13.0
 40
13.0
 40
14.0
 40
14.0
 40
14.0
 40
15.0
 40
15.0
 40
15.0
 40
16.0
 40
16.0
 40
16.0
 40
17.0
 40
17.0
 40
17.0
 40
18.0
 40
18.0
 40
18.0
 40
19.0
 40
19.0
 40
19.0
 40
20.0
 40
20.0
 40
20.0
 40
21.0
 40
21.0
 40
21.0
 40
22.0
 40
22.0
 40
22.0
 40
23.0
 40
23.0
 40
23.0
 40
24.0
 40
24.0
 40
24.0
 40
25.0
 40
25.0
 40
25.0
 40
26.0
 40
26.0
 40
26.0
 40
27.0
 40
27.0
 40
27.0
 40
28.0
 40
28.0
 40
28.0
 40
29.0
 40
29.0
 40
29.0
 40
30.0
 40
30.0
 40
30.0
 40
31.0
 40
31.0
 40
31.0
 40
32.0
 40
32.0
 40
32.0
 40
33.0
 40
33.0
 40
33.0
 40
34.0
 40
34.0
 40
34.0
 40
35.0
 40
35.0
 40
35.0
 40
36.0
 40
36.0
 40
36.0
 40
37.0
 40
37.0
 40
37.0
 40
38.0
 40
38.0
 40
38.0
 40
39.0
 40
39.0
 40
39.0
 40
40.0
 40
40.0
 40
40.0
 40
41.0
 40
41.0
 40
41.0
 40
42.0
 40
42.0
 40
42.0
 40
43.0
 40
43.0
 40
43.0
 40
44.0
 40
44.0
 40
44.0
 40
45.0
 40
45.0
 40
45.0
 40
46.0
 40
46.0
 40
46.0
 40
47.0
 40
47.0
 40
47.0
 40
48.0
 40
48.0
 40
48.0
 40
49.0
 40
49.0
 40
49.0
 40
50.0
 40
50.0
 40
50.0
 40
51.0
 40
51.0
 40
51.0
 40
52.0
 40
52.0
 40
52.0
 40
53.0
 40
53.0
 40
53.0
 40
54.0
 40
54.0
 40
54.0
 40
55.0
 40
55.0
 40
55.0
 40
56.0
 40
56.0
 40
56.0
 40
56.0
 10
12.86034723377048
 20
1.143123866226726
 30
0.0
 10
13.14515455285199
 20
1.143123757027272
 30
0.0
 10
13.98451244094784
 20
1.143123248792563
 30
0.0
 10
14.25539407410671
 20
1.143120658463254
 30
0.0
 10
14.31337420349923
 20
1.143120104023258
 30
0.0
 10
14.36034722785032
 20
1.190122100602139
 30
0.0
 10
14.36034722785032
 20
1.24810222999742
 30
0.0
 10
14.36034722785032
 20
1.24810222999742
 30
0.0
 10
14.36034722785032
 20
3.346697186685333
 30
0.0
 10
14.36034722785032
 20
3.346697186685333
 30
0.0
 10
14.36034722785032
 20
3.897727061178115
 30
0.0
 10
13.90950460326533
 20
4.348569685772278
 30
0.0
 10
13.35847472877256
 20
4.34856968578366
 30
0.0
 10
13.35847472877256
 20
4.34856968578366
 30
0.0
 10
11.25317845837907
 20
4.348569685826722
 30
0.0
 10
11.25317845837907
 20
4.348569685826722
 30
0.0
 10
11.20021157176562
 20
4.348569685827834
 30
0.0
 10
11.15727342635991
 20
4.305631540436025
 30
0.0
 10
11.15727342634379
 20
4.252664653822699
 30
0.0
 10
11.15727342634379
 20
4.252664653822699
 30
0.0
 10
11.15727342591506
 20
2.84856968819492
 30
0.0
 10
11.15727342591506
 20
2.84856968819492
 30
0.0
 10
11.15727342591506
 20
2.84856968819492
 30
0.0
 10
10.92105295241269
 20
2.848569688269221
 30
0.0
 10
10.92105295241269
 20
2.848569688269221
 30
0.0
 10
10.92105295241269
 20
2.848569688269221
 30
0.0
 10
10.9210546611438
 20
4.252664537037554
 30
0.0
 10
10.9210546611438
 20
4.252664537037554
 30
0.0
 10
10.92105472560257
 20
4.305631469240754
 30
0.0
 10
10.87811656131379
 20
4.34856968578366
 30
0.0
 10
10.82514962911061
 20
4.34856968578366
 30
0.0
 10
10.82514962911061
 20
4.34856968578366
 30
0.0
 10
0.9040030078257485
 20
4.34856968578366
 30
0.0
 10
0.9040030078257485
 20
4.34856968578366
 30
0.0
 10
0.8508662553510172
 20
4.34856968578366
 30
0.0
 10
0.80779041318005
 20
4.305493824185886
 30
0.0
 10
0.8077904371440733
 20
4.252357071711306
 30
0.0
 10
0.8077904371440733
 20
4.252357071711306
 30
0.0
 10
0.8077910702349224
 20
2.848569686606033
 30
0.0
 10
0.8077910702349224
 20
2.848569686606033
 30
0.0
 10
0.8077910702349224
 20
2.848569686606033
 30
0.0
 10
0.571570599671582
 20
2.848569686616024
 30
0.0
 10
0.571570599671582
 20
2.848569686616024
 30
0.0
 10
0.571570599671582
 20
2.848569686616024
 30
0.0
 10
0.5715689441337998
 20
4.252357228568952
 30
0.0
 10
0.5715689441337998
 20
4.252357228568952
 30
0.0
 10
0.5715688814676821
 20
4.305493919786866
 30
0.0
 10
0.5284930646700509
 20
4.34856968578366
 30
0.0
 10
0.4753563734519983
 20
4.34856968578366
 30
0.0
 10
0.4753563734519983
 20
4.34856968578366
 30
0.0
 10
-1.63778027305092
 20
4.34856968578366
 30
0.0
 10
-1.63778027305092
 20
4.34856968578366
 30
0.0
 10
-2.188810144907444
 20
4.34856968578366
 30
0.0
 10
-2.639652769501759
 20
3.897727063355609
 30
0.0
 10
-2.639652772149248
 20
3.346697191498947
 30
0.0
 10
-2.639652772149248
 20
3.346697191498947
 30
0.0
 10
-2.639652782239939
 20
1.246492914464221
 30
0.0
 10
-2.639652782239939
 20
1.246492914464221
 30
0.0
 10
-2.63965278250814
 20
1.190682229347557
 30
0.0
 10
-2.594409282989393
 20
1.145438729627004
 30
0.0
 10
-2.53859859787273
 20
1.145438729646306
 30
0.0
 10
-2.53859859787273
 20
1.145438729646306
 30
0.0
 10
-1.139652784455923
 20
1.145438730127833
 30
0.0
 10
-1.139652784455923
 20
1.145438730127833
 30
0.0
 10
-1.139652784455923
 20
1.145438730127833
 30
0.0
 10
-1.139652785556058
 20
0.9092182568708974
 30
0.0
 10
-1.139652785556058
 20
0.9092182568708974
 30
0.0
 10
-1.139652785556058
 20
0.9092182568708974
 30
0.0
 10
-2.538598598305498
 20
0.9092182571179768
 30
0.0
 10
-2.538598598305498
 20
0.9092182571179768
 30
0.0
 10
-2.594409283259261
 20
0.9092182571278297
 30
0.0
 10
-2.639652782702999
 20
0.8639747576536744
 30
0.0
 10
-2.639652782655642
 20
0.8081640726999113
 30
0.0
 10
-2.639652782655642
 20
0.8081640726999113
 30
0.0
 10
-2.639652774251342
 20
-9.106154638063646
 30
0.0
 10
-2.639652774251342
 20
-9.106154638063646
 30
0.0
 10
-2.639652774205501
 20
-9.16024742502451
 30
0.0
 10
-2.595801906225233
 20
-9.204098292971189
 30
0.0
 10
-2.541709119264397
 20
-9.20409829297566
 30
0.0
 10
-2.541709119264397
 20
-9.20409829297566
 30
0.0
 10
-1.139652775897452
 20
-9.204098293091393
 30
0.0
 10
-1.139652775897452
 20
-9.204098293091393
 30
0.0
 10
-1.139652775897452
 20
-9.204098293091393
 30
0.0
 10
-1.139652775726341
 20
-9.440318765097546
 30
0.0
 10
-1.139652775726341
 20
-9.440318765097546
 30
0.0
 10
-1.139652775726341
 20
-9.440318765097546
 30
0.0
 10
-2.541709119174533
 20
-9.440318765420619
 30
0.0
 10
-2.541709119174533
 20
-9.440318765420619
 30
0.0
 10
-2.595801906190495
 20
-9.4403187654331
 30
0.0
 10
-2.639652774184115
 20
-9.48416963347803
 30
0.0
 10
-2.639652774133285
 20
-9.538262420494043
 30
0.0
 10
-2.639652774133285
 20
-9.538262420494043
 30
0.0
 10
-2.63965277203647
 20
-11.76766786080025
 30
0.0
 10
-2.63965277203647
 20
-11.76766786080025
 30
0.0
 10
-2.639652771579247
 20
-12.25373720804118
 30
0.0
 10
-2.241959668917161
 20
-12.65143031186873
 30
0.0
 10
-1.755890321676197
 20
-12.65143031375035
 30
0.0
 10
-1.755890321676197
 20
-12.65143031375035
 30
0.0
 10
0.4691154589532465
 20
-12.65143032236357
 30
0.0
 10
0.4691154589532465
 20
-12.65143032236357
 30
0.0
 10
0.5243912336218525
 20
-12.65143032257755
 30
0.0
 10
0.569201102726159
 20
-12.60662045365436
 30
0.0
 10
0.5692011027354688
 20
-12.55134467898572
 30
0.0
 10
0.5692011027354688
 20
-12.55134467898572
 30
0.0
 10
0.5692011029728342
 20
-11.15143032460679
 30
0.0
 10
0.5692011029728342
 20
-11.15143032460679
 30
0.0
 10
0.5692011029728342
 20
-11.15143032460679
 30
0.0
 10
0.8054215740171331
 20
-11.15143032456763
 30
0.0
 10
0.8054215740171331
 20
-11.15143032456763
 30
0.0
 10
0.8054215740171331
 20
-11.15143032456763
 30
0.0
 10
0.8054215750928253
 20
-12.54897787408956
 30
0.0
 10
0.8054215750928253
 20
-12.54897787408956
 30
0.0
 10
0.8054215751363042
 20
-12.60556079903533
 30
0.0
 10
0.8512910988554773
 20
-12.65143032264185
 30
0.0
 10
0.9078740238011657
 20
-12.65143032254653
 30
0.0
 10
0.9078740238011657
 20
-12.65143032254653
 30
0.0
 10
10.82130188943991
 20
-12.65143030584588
 30
0.0
 10
10.82130188943991
 20
-12.65143030584588
 30
0.0
 10
10.87511444609463
 20
-12.65143030575521
 30
0.0
 10
10.91873814245506
 20
-12.60780660928382
 30
0.0
 10
10.91873814240893
 20
-12.5539940526292
 30
0.0
 10
10.91873814240893
 20
-12.5539940526292
 30
0.0
 10
10.91873814120699
 20
-11.15143030759479
 30
0.0
 10
10.91873814120699
 20
-11.15143030759479
 30
0.0
 10
10.91873814120699
 20
-11.15143030759479
 30
0.0
 10
11.15495861536576
 20
-11.15143030758989
 30
0.0
 10
11.15495861536576
 20
-11.15143030758989
 30
0.0
 10
11.15495861536576
 20
-11.15143030758989
 30
0.0
 10
11.15495861499393
 20
-12.55399405276749
 30
0.0
 10
11.15495861499393
 20
-12.55399405276749
 30
0.0
 10
11.15495861497978
 20
-12.60780660937225
 30
0.0
 10
11.19858231124575
 20
-12.65143030581963
 30
0.0
 10
11.2523948678506
 20
-12.65143030602907
 30
0.0
 10
11.2523948678506
 20
-12.65143030602907
 30
0.0
 10
13.35620964633977
 20
-12.65143031421634
 30
0.0
 10
13.35620964633977
 20
-12.65143031421634
 30
0.0
 10
13.9084853161706
 20
-12.65143031421634
 30
0.0
 10
14.36034722785032
 20
-12.19956840253654
 30
0.0
 10
14.36034722785032
 20
-11.64729273270569
 30
0.0
 10
14.36034722785032
 20
-11.64729273270569
 30
0.0
 10
14.36034722785032
 20
-9.972116960166355
 30
0.0
 10
14.3603472304895
 20
-9.540683898081397
 30
0.0
 10
14.36034723082907
 20
-9.485185907312067
 30
0.0
 10
14.31535722018882
 20
-9.440318776535706
 30
0.0
 10
14.25985922941951
 20
-9.44031877653515
 30
0.0
 10
14.25985922941951
 20
-9.44031877653515
 30
0.0
 10
12.86034723402352
 20
-9.440318775841003
 30
0.0
 10
12.86034723402352
 20
-9.440318775841003
 30
0.0
 10
12.86034723402352
 20
-9.440318775841003
 30
0.0
 10
12.86034723420213
 20
-9.204098304515355
 30
0.0
 10
12.86034723420213
 20
-9.204098304515355
 30
0.0
 10
12.86034723420213
 20
-9.204098304515355
 30
0.0
 10
14.25690241653185
 20
-9.204098304091909
 30
0.0
 10
14.25690241653185
 20
-9.204098304091909
 30
0.0
 10
14.3140334104727
 20
-9.204098304074604
 30
0.0
 10
14.36034723182547
 20
-9.157784482707786
 30
0.0
 10
14.36034723182562
 20
-9.100653488767016
 30
0.0
 10
14.36034723182562
 20
-9.100653488767016
 30
0.0
 10
14.36034723184116
 20
0.8041824353289383
 30
0.0
 10
14.36034723184116
 20
0.8041824353289383
 30
0.0
 10
14.36034723184116
 20
0.8609136828288102
 30
0.0
 10
14.31435746898407
 20
0.9069034456653323
 30
0.0
 10
14.25762622148409
 20
0.906903445639917
 30
0.0
 10
14.25762622148409
 20
0.906903445639917
 30
0.0
 10
12.86034722969073
 20
0.906903445012972
 30
0.0
 10
12.86034722969073
 20
0.906903445012972
 30
0.0
 10
12.86034722969073
 20
0.906903445012972
 30
0.0
 10
12.86034723377048
 20
1.143123866226726
 30
0.0
 10
12.86034723377048
 20
1.143123866226726
 30
0.0
  0
SPLINE
  5
46
330
1F
100
AcDbEntity
  8
Layer 2
 62
   240
420
 15539236
370
     5
100
AcDbSpline
210
0.0
220
0.0
230
1.0
 70
     8
 71
     3
 72
     8
 73
     4
 74
     0
 42
0.0000000001
 43
0.0000000001
 12
1.0
 22
0.0
 32
0.0
 13
1.0
 23
0.0
 33
0.0
 40
0.0
 40
0.0
 40
0.0
 40
0.0
 40
1.0
 40
1.0
 40
1.0
 40
1.0
 10
11.35371990258838
 20
-4.42381727627253
 30
0.0
 10
11.21552532538837
 20
-7.257392090295879
 30
0.0
 10
8.922595139532707
 20
-9.531251067399909
 30
0.0
 10
6.08397051940296
 20
-9.650064642063525
 30
0.0
  0
SPLINE
  5
47
330
1F
100
AcDbEntity
  8
Layer 2
 62
   240
420
 15539236
370
     5
100
AcDbSpline
210
0.0
220
0.0
230
1.0
 70
     8
 71
     3
 72
    20
 73
    16
 74
     0
 42
0.0000000001
 43
0.0000000001
 12
1.0
 22
0.0
 32
0.0
 13
1.0
 23
0.0
 33
0.0
 40
0.0
 40
0.0
 40
0.0
 40
0.0
 40
1.0
 40
1.0
 40
1.0
 40
2.0
 40
2.0
 40
2.0
 40
3.0
 40
3.0
 40
3.0
 40
4.0
 40
4.0
 40
4.0
 40
5.0
 40
5.0
 40
5.0
 40
5.0
 10
11.3575145364238
 20
-3.97350842303053
 30
0.0
 10
11.35933939577381
 20
-4.030099473292769
 30
0.0
 10
11.31385815101241
 20
-4.076995632502505
 30
0.0
 10
11.25723768579504
 20
-4.076995630763299
 30
0.0
 10
11.25723768579504
 20
-4.076995630763299
 30
0.0
 10
9.861564811609897
 20
-4.076995587892522
 30
0.0
 10
9.861564811609897
 20
-4.076995587892522
 30
0.0
 10
9.861564811609897
 20
-4.076995587892522
 30
0.0
 10
9.861564807799216
 20
-4.313216060244814
 30
0.0
 10
9.861564807799216
 20
-4.313216060244814
 30
0.0
 10
9.861564807799216
 20
-4.313216060244814
 30
0.0
 10
11.24902297185617
 20
-4.314043982924381
 30
0.0
 10
11.24902297185617
 20
-4.314043982924381
 30
0.0
 10
11.30881672095949
 20
-4.314079662991895
 30
0.0
 10
11.35663260621977
 20
-4.36409450119926
 30
0.0
 10
11.35371990258838
 20
-4.42381727627253
 30
0.0
  0
SPLINE
  5
48
330
1F
100
AcDbEntity
  8
Layer 2
 62
   240
420
 15539236
370
     5
100
AcDbSpline
210
0.0
220
0.0
230
1.0
 70
     8
 71
     3
 72
     8
 73
     4
 74
     0
 42
0.0000000001
 43
0.0000000001
 12
1.0
 22
0.0
 32
0.0
 13
1.0
 23
0.0
 33
0.0
 40
0.0
 40
0.0
 40
0.0
 40
0.0
 40
1.0
 40
1.0
 40
1.0
 40
1.0
 10
6.083970185866292
 20
1.346566046525886
 30
0.0
 10
8.958036461157008
 20
1.231580990953944
 30
0.0
 10
11.26465093600867
 20
-1.09369816336314
 30
0.0
 10
11.3575145364238
 20
-3.97350842303053
 30
0.0
  0
SPLINE
  5
49
330
1F
100
AcDbEntity
  8
Layer 2
 62
   240
420
 15539236
370
     5
100
AcDbSpline
210
0.0
220
0.0
230
1.0
 70
     8
 71
     3
 72
    20
 73
    16
 74
     0
 42
0.0000000001
 43
0.0000000001
 12
1.0
 22
0.0
 32
0.0
 13
1.0
 23
0.0
 33
0.0
 40
0.0
 40
0.0
 40
0.0
 40
0.0
 40
1.0
 40
1.0
 40
1.0
 40
2.0
 40
2.0
 40
2.0
 40
3.0
 40
3.0
 40
3.0
 40
4.0
 40
4.0
 40
4.0
 40
5.0
 40
5.0
 40
5.0
 40
5.0
 10
5.636723596380193
 20
1.346565997541726
 30
0.0
 10
5.694291984666026
 20
1.348869188017564
 30
0.0
 10
5.742236942553796
 20
1.30269216609367
 30
0.0
 10
5.742236943308803
 20
1.245077723319355
 30
0.0
 10
5.742236943308803
 20
1.245077723319355
 30
0.0
 10
5.742236961590606
 20
-0.1502127392499359
 30
0.0
 10
5.742236961590606
 20
-0.1502127392499359
 30
0.0
 10
5.742236961590606
 20
-0.1502127392499359
 30
0.0
 10
5.978457433942973
 20
-0.1502127430711905
 30
0.0
 10
5.978457433942973
 20
-0.1502127430711905
 30
0.0
 10
5.978457433942973
 20
-0.1502127430711905
 30
0.0
 10
5.978457452954343
 20
1.24507769847561
 30
0.0
 10
5.978457452954343
 20
1.24507769847561
 30
0.0
 10
5.978457453739363
 20
1.302691907984366
 30
0.0
 10
6.026402030412833
 20
1.348869221512145
 30
0.0
 10
6.083970185866292
 20
1.346566046525886
 30
0.0
  0
SPLINE
  5
4A
330
1F
100
AcDbEntity
  8
Layer 2
 62
   240
420
 15539236
370
     5
100
AcDbSpline
210
0.0
220
0.0
230
1.0
 70
     8
 71
     3
 72
     8
 73
     4
 74
     0
 42
0.0000000001
 43
0.0000000001
 12
1.0
 22
0.0
 32
0.0
 13
1.0
 23
0.0
 33
0.0
 40
0.0
 40
0.0
 40
0.0
 40
0.0
 40
1.0
 40
1.0
 40
1.0
 40
1.0
 10
0.3631668836917217
 20
-3.973624441381958
 30
0.0
 10
0.4546654250303214
 20
-1.0926192840955
 30
0.0
 10
2.761754007666582
 20
1.231544494037836
 30
0.0
 10
5.636723596380193
 20
1.346565997541726
 30
0.0
  0
SPLINE
  5
4B
330
1F
100
AcDbEntity
  8
Layer 2
 62
   240
420
 15539236
370
     5
100
AcDbSpline
210
0.0
220
0.0
230
1.0
 70
     8
 71
     3
 72
    20
 73
    16
 74
     0
 42
0.0000000001
 43
0.0000000001
 12
1.0
 22
0.0
 32
0.0
 13
1.0
 23
0.0
 33
0.0
 40
0.0
 40
0.0
 40
0.0
 40
0.0
 40
1.0
 40
1.0
 40
1.0
 40
2.0
 40
2.0
 40
2.0
 40
3.0
 40
3.0
 40
3.0
 40
4.0
 40
4.0
 40
4.0
 40
5.0
 40
5.0
 40
5.0
 40
5.0
 10
0.3667717756828273
 20
-4.41962967118492
 30
0.0
 10
0.3639926339757393
 20
-4.361746358248512
 30
0.0
 10
0.4101718162153247
 20
-4.313216210396755
 30
0.0
 10
0.4681218079765838
 20
-4.31321620593533
 30
0.0
 10
0.4681218079765838
 20
-4.31321620593533
 30
0.0
 10
1.860347212797554
 20
-4.313216098750723
 30
0.0
 10
1.860347212797554
 20
-4.313216098750723
 30
0.0
 10
1.860347212797554
 20
-4.313216098750723
 30
0.0
 10
1.860347216629356
 20
-4.076995626398431
 30
0.0
 10
1.860347216629356
 20
-4.076995626398431
 30
0.0
 10
1.860347216629356
 20
-4.076995626398431
 30
0.0
 10
0.4634089650279646
 20
-4.077006388140035
 30
0.0
 10
0.4634089650279646
 20
-4.077006388140035
 30
0.0
 10
0.4068349984669971
 20
-4.077006823974898
 30
0.0
 10
0.3613710428290788
 20
-4.030169897859145
 30
0.0
 10
0.3631668836917217
 20
-3.973624441381958
 30
0.0
  0
SPLINE
  5
4C
330
1F
100
AcDbEntity
  8
Layer 2
 62
   240
420
 15539236
370
     5
100
AcDbSpline
210
0.0
220
0.0
230
1.0
 70
     8
 71
     3
 72
     8
 73
     4
 74
     0
 42
0.0000000001
 43
0.0000000001
 12
1.0
 22
0.0
 32
0.0
 13
1.0
 23
0.0
 33
0.0
 40
0.0
 40
0.0
 40
0.0
 40
0.0
 40
1.0
 40
1.0
 40
1.0
 40
1.0
 10
5.636723929916861
 20
-9.650064690927188
 30
0.0
 10
2.79183179461644
 20
-9.536360736938402
 30
0.0
 10
0.5030846665496382
 20
-7.258722654157837
 30
0.0
 10
0.3667717756828273
 20
-4.41962967118492
 30
0.0
  0
SPLINE
  5
4D
330
1F
100
AcDbEntity
  8
Layer 2
 62
   240
420
 15539236
370
     5
100
AcDbSpline
210
0.0
220
0.0
230
1.0
 70
     8
 71
     3
 72
    20
 73
    16
 74
     0
 42
0.0000000001
 43
0.0000000001
 12
1.0
 22
0.0
 32
0.0
 13
1.0
 23
0.0
 33
0.0
 40
0.0
 40
0.0
 40
0.0
 40
0.0
 40
1.0
 40
1.0
 40
1.0
 40
2.0
 40
2.0
 40
2.0
 40
3.0
 40
3.0
 40
3.0
 40
4.0
 40
4.0
 40
4.0
 40
5.0
 40
5.0
 40
5.0
 40
5.0
 10
6.08397051940296
 20
-9.650064642063525
 30
0.0
 10
6.026402131116583
 20
-9.6523678325238
 30
0.0
 10
5.978457173241016
 20
-9.606190810587021
 30
0.0
 10
5.978457172501723
 20
-9.54857636781273
 30
0.0
 10
5.978457172501723
 20
-9.54857636781273
 30
0.0
 10
5.978457154595743
 20
-8.153285905243365
 30
0.0
 10
5.978457154595743
 20
-8.153285905243365
 30
0.0
 10
5.978457154595743
 20
-8.153285905243365
 30
0.0
 10
5.742236682243388
 20
-8.153285901358434
 30
0.0
 10
5.742236682243388
 20
-8.153285901358434
 30
0.0
 10
5.742236682243388
 20
-8.153285901358434
 30
0.0
 10
5.742236662856031
 20
-9.548576342905209
 30
0.0
 10
5.742236662856031
 20
-9.548576342905209
 30
0.0
 10
5.742236662055474
 20
-9.606190552414064
 30
0.0
 10
5.694292085369637
 20
-9.652367865928882
 30
0.0
 10
5.636723929916861
 20
-9.650064690927188
 30
0.0
  0
SPLINE
  5
4E
330
1F
100
AcDbEntity
  8
Layer 2
 62
   240
420
 15539236
370
     5
100
AcDbSpline
210
0.0
220
0.0
230
1.0
 70
    11
 71
     3
 72
    23
 73
    19
 74
     0
 42
0.0000000001
 43
0.0000000001
 12
1.0
 22
0.0
 32
0.0
 13
1.0
 23
0.0
 33
0.0
 40
0.0
 40
0.0
 40
0.0
 40
0.0
 40
1.0
 40
1.0
 40
1.0
 40
2.0
 40
2.0
 40
2.0
 40
3.0
 40
3.0
 40
3.0
 40
4.0
 40
4.0
 40
4.0
 40
5.0
 40
5.0
 40
5.0
 40
6.0
 40
6.0
 40
6.0
 40
6.0
 10
6.083970519335758
 20
-9.650147167953996
 30
0.0
 10
6.026402363883537
 20
-9.647843992936789
 30
0.0
 10
5.978457787185183
 20
-9.694021306438723
 30
0.0
 10
5.978457786369214
 20
-9.751635515947529
 30
0.0
 10
5.978457786369214
 20
-9.751635515947529
 30
0.0
 10
5.978457766606021
 20
-11.14692595749431
 30
0.0
 10
5.978457766606021
 20
-11.14692595749431
 30
0.0
 10
5.978457766606021
 20
-11.14692595749431
 30
0.0
 10
5.742237294253666
 20
-11.14692595354578
 30
0.0
 10
5.742237294253666
 20
-11.14692595354578
 30
0.0
 10
5.742237294253666
 20
-11.14692595354578
 30
0.0
 10
5.742237276723523
 20
-9.751635490976417
 30
0.0
 10
5.742237276723523
 20
-9.751635490976417
 30
0.0
 10
5.74223727599964
 20
-9.694021048202103
 30
0.0
 10
5.694292318136718
 20
-9.647844026252388
 30
0.0
 10
5.636723929849634
 20
-9.650147216697203
 30
0.0
 10
5.636723929849634
 20
-9.650147216697203
 30
0.0
 10
6.083970519335758
 20
-9.650147167953996
 30
0.0
 10
6.083970519335758
 20
-9.650147167953996
 30
0.0
  0
SPLINE
  5
4F
330
1F
100
AcDbEntity
  8
Layer 2
 62
   240
420
 15539236
370
     5
100
AcDbSpline
210
0.0
220
0.0
230
1.0
 70
    11
 71
     3
 72
    23
 73
    19
 74
     0
 42
0.0000000001
 43
0.0000000001
 12
1.0
 22
0.0
 32
0.0
 13
1.0
 23
0.0
 33
0.0
 40
0.0
 40
0.0
 40
0.0
 40
0.0
 40
1.0
 40
1.0
 40
1.0
 40
2.0
 40
2.0
 40
2.0
 40
3.0
 40
3.0
 40
3.0
 40
4.0
 40
4.0
 40
4.0
 40
5.0
 40
5.0
 40
5.0
 40
6.0
 40
6.0
 40
6.0
 40
6.0
 10
6.08397018579909
 20
1.346731224261728
 30
0.0
 10
6.026401797513093
 20
1.34442803379117
 30
0.0
 10
5.978456839629366
 20
1.390605055719359
 30
0.0
 10
5.978456838879638
 20
1.448219498493674
 30
0.0
 10
5.978456838879638
 20
1.448219498493674
 30
0.0
 10
5.978456820722966
 20
2.843509961062978
 30
0.0
 10
5.978456820722966
 20
2.843509961062978
 30
0.0
 10
5.978456820722966
 20
2.843509961062978
 30
0.0
 10
5.742236348370751
 20
2.843509964905479
 30
0.0
 10
5.742236348370751
 20
2.843509964905479
 30
0.0
 10
5.742236348370751
 20
2.843509964905479
 30
0.0
 10
5.742236329233947
 20
1.448219523358666
 30
0.0
 10
5.742236329233947
 20
1.448219523358666
 30
0.0
 10
5.742236328443798
 20
1.390605313849922
 30
0.0
 10
5.694291751766159
 20
1.344428000326439
 30
0.0
 10
5.636723596312966
 20
1.346731175317826
 30
0.0
 10
5.636723596312966
 20
1.346731175317826
 30
0.0
 10
6.08397018579909
 20
1.346731224261728
 30
0.0
 10
6.08397018579909
 20
1.346731224261728
 30
0.0
  0
SPLINE
  5
50
330
1F
100
AcDbEntity
  8
Layer 2
 62
   240
420
 15539236
370
     5
100
AcDbSpline
210
0.0
220
0.0
230
1.0
 70
    11
 71
     3
 72
    23
 73
    19
 74
     0
 42
0.0000000001
 43
0.0000000001
 12
1.0
 22
0.0
 32
0.0
 13
1.0
 23
0.0
 33
0.0
 40
0.0
 40
0.0
 40
0.0
 40
0.0
 40
1.0
 40
1.0
 40
1.0
 40
2.0
 40
2.0
 40
2.0
 40
3.0
 40
3.0
 40
3.0
 40
4.0
 40
4.0
 40
4.0
 40
5.0
 40
5.0
 40
5.0
 40
6.0
 40
6.0
 40
6.0
 40
6.0
 10
11.35377296135006
 20
-4.423817276338998
 30
0.0
 10
11.35194810201533
 20
-4.367226226076278
 30
0.0
 10
11.39742934678922
 20
-4.32033006687877
 30
0.0
 10
11.45404981200659
 20
-4.320330068633262
 30
0.0
 10
11.45404981200659
 20
-4.320330068633262
 30
0.0
 10
12.84972268619173
 20
-4.320330111879987
 30
0.0
 10
12.84972268619173
 20
-4.320330111879987
 30
0.0
 10
12.84972268619173
 20
-4.320330111879987
 30
0.0
 10
12.84972269006602
 20
-4.084109639527696
 30
0.0
 10
12.84972269006602
 20
-4.084109639527696
 30
0.0
 10
12.84972269006602
 20
-4.084109639527696
 30
0.0
 10
11.46226452600937
 20
-4.083281716474377
 30
0.0
 10
11.46226452600937
 20
-4.083281716474377
 30
0.0
 10
11.40247077690603
 20
-4.083246036390745
 30
0.0
 10
11.35465489165921
 20
-4.033231198170483
 30
0.0
 10
11.35756759530672
 20
-3.973508423098009
 30
0.0
 10
11.35756759530672
 20
-3.973508423098009
 30
0.0
 10
11.35377296135006
 20
-4.423817276338998
 30
0.0
 10
11.35377296135006
 20
-4.423817276338998
 30
0.0
  0
SPLINE
  5
51
330
1F
100
AcDbEntity
  8
Layer 2
 62
   240
420
 15539236
370
     5
100
AcDbSpline
210
0.0
220
0.0
230
1.0
 70
    11
 71
     3
 72
    23
 73
    19
 74
     0
 42
0.0000000001
 43
0.0000000001
 12
1.0
 22
0.0
 32
0.0
 13
1.0
 23
0.0
 33
0.0
 40
0.0
 40
0.0
 40
0.0
 40
0.0
 40
1.0
 40
1.0
 40
1.0
 40
2.0
 40
2.0
 40
2.0
 40
3.0
 40
3.0
 40
3.0
 40
4.0
 40
4.0
 40
4.0
 40
5.0
 40
5.0
 40
5.0
 40
6.0
 40
6.0
 40
6.0
 40
6.0
 10
0.3667203713581051
 20
-4.419629671185399
 30
0.0
 10
0.36851621223602
 20
-4.36308421470868
 30
0.0
 10
0.3230522566107462
 20
-4.316247288580649
 30
0.0
 10
0.266478290049766
 20
-4.316247724400303
 30
0.0
 10
0.266478290049766
 20
-4.316247724400303
 30
0.0
 10
-1.130459961551752
 20
-4.316258485765603
 30
0.0
 10
-1.130459961551752
 20
-4.316258485765603
 30
0.0
 10
-1.130459961551752
 20
-4.316258485765603
 30
0.0
 10
-1.130459957656196
 20
-4.080038013413287
 30
0.0
 10
-1.130459957656196
 20
-4.080038013413287
 30
0.0
 10
-1.130459957656196
 20
-4.080038013413287
 30
0.0
 10
0.2617654471647736
 20
-4.08003790660377
 30
0.0
 10
0.2617654471647736
 20
-4.08003790660377
 30
0.0
 10
0.3197154389260201
 20
-4.080037902157932
 30
0.0
 10
0.3658946211786668
 20
-4.031507754318631
 30
0.0
 10
0.3631154794871286
 20
-3.973624441381452
 30
0.0
 10
0.3631154794871286
 20
-3.973624441381452
 30
0.0
 10
0.3667203713581051
 20
-4.419629671185399
 30
0.0
 10
0.3667203713581051
 20
-4.419629671185399
 30
0.0
  0
ENDSEC
  0
SECTION
  2
OBJECTS
  0
DICTIONARY
  5
C
330
0
100
AcDbDictionary
281
     1
  3
ACAD_GROUP
350
D
  3
ACAD_LAYOUT
350
1A
  3
ACAD_MATERIAL
350
3B
  3
ACAD_MLEADERSTYLE
350
53
  3
ACAD_MLINESTYLE
350
17
  3
ACAD_PLOTSETTINGS
350
19
  3
ACAD_PLOTSTYLENAME
350
E
  3
ACAD_TABLESTYLE
350
52
  3
ACAD_VISUALSTYLE
350
2A
  0
SUN
  5
3F
330
29
100
AcDbSun
 90
        1
290
     0
 63
     7
421
 16777215
 40
1.0
291
     1
 91
  2455826
 92
 54000000
292
     0
 70
     2
 71
   256
280
     1
  0
DICTIONARY
  5
D
102
{ACAD_REACTORS
330
C
102
}
330
C
100
AcDbDictionary
281
     1
  0
DICTIONARY
  5
1A
102
{ACAD_REACTORS
330
C
102
}
330
C
100
AcDbDictionary
281
     1
  3
Layout1
350
1E
  3
Layout2
350
26
  3
Model
350
22
  0
DICTIONARY
  5
3B
102
{ACAD_REACTORS
330
C
102
}
330
C
100
AcDbDictionary
281
     1
  3
ByBlock
350
3D
  3
ByLayer
350
3C
  3
Global
350
3E
  0
DICTIONARY
  5
53
102
{ACAD_REACTORS
330
C
102
}
330
C
100
AcDbDictionary
281
     1
  0
DICTIONARY
  5
17
102
{ACAD_REACTORS
330
C
102
}
330
C
100
AcDbDictionary
281
     1
  3
Standard
350
18
  0
DICTIONARY
  5
19
102
{ACAD_REACTORS
330
C
102
}
330
C
100
AcDbDictionary
281
     1
  0
ACDBDICTIONARYWDFLT
  5
E
102
{ACAD_REACTORS
330
C
102
}
330
C
100
AcDbDictionary
281
     1
  3
Normal
350
F
100
AcDbDictionaryWithDefault
340
F
  0
DICTIONARY
  5
52
102
{ACAD_REACTORS
330
C
102
}
330
C
100
AcDbDictionary
281
     1
  0
DICTIONARY
  5
2A
102
{ACAD_REACTORS
330
C
102
}
330
C
100
AcDbDictionary
281
     1
  3
2dWireframe
350
2F
  3
3D Hidden
350
31
  3
3dWireframe
350
30
  3
Basic
350
32
  3
Brighten
350
36
  3
ColorChange
350
3A
  3
Conceptual
350
34
  3
Dim
350
35
  3
Facepattern
350
39
  3
Flat
350
2B
  3
FlatWithEdges
350
2C
  3
Gouraud
350
2D
  3
GouraudWithEdges
350
2E
  3
Linepattern
350
38
  3
Realistic
350
33
  3
Thicken
350
37
  0
LAYOUT
  5
1E
102
{ACAD_REACTORS
330
1A
102
}
330
1A
100
AcDbPlotSettings
  1

  2
none_device
  4

  6

 40
0.0
 41
0.0
 42
0.0
 43
0.0
 44
0.0
 45
0.0
 46
0.0
 47
0.0
 48
0.0
 49
0.0
140
0.0
141
0.0
142
1.0
143
1.0
 70
   688
 72
     0
 73
     0
 74
     5
  7

 75
    16
 76
     0
 77
     2
 78
   300
147
1.0
148
0.0
149
0.0
100
AcDbLayout
  1
Layout1
 70
     1
 71
     1
 10
0.0
 20
0.0
 11
12.0
 21
9.0
 12
0.0
 22
0.0
 32
0.0
 14
1.000000000000000E+20
 24
1.000000000000000E+20
 34
1.000000000000000E+20
 15
-1.000000000000000E+20
 25
-1.000000000000000E+20
 35
-1.000000000000000E+20
146
0.0
 13
0.0
 23
0.0
 33
0.0
 16
1.0
 26
0.0
 36
0.0
 17
0.0
 27
1.0
 37
0.0
 76
     0
330
1B
  0
LAYOUT
  5
26
102
{ACAD_REACTORS
330
1A
102
}
330
1A
100
AcDbPlotSettings
  1

  2
none_device
  4

  6

 40
0.0
 41
0.0
 42
0.0
 43
0.0
 44
0.0
 45
0.0
 46
0.0
 47
0.0
 48
0.0
 49
0.0
140
0.0
141
0.0
142
1.0
143
1.0
 70
   688
 72
     0
 73
     0
 74
     5
  7

 75
    16
 76
     0
 77
     2
 78
   300
147
1.0
148
0.0
149
0.0
100
AcDbLayout
  1
Layout2
 70
     1
 71
     2
 10
0.0
 20
0.0
 11
0.0
 21
0.0
 12
0.0
 22
0.0
 32
0.0
 14
0.0
 24
0.0
 34
0.0
 15
0.0
 25
0.0
 35
0.0
146
0.0
 13
0.0
 23
0.0
 33
0.0
 16
1.0
 26
0.0
 36
0.0
 17
0.0
 27
1.0
 37
0.0
 76
     0
330
23
  0
LAYOUT
  5
22
102
{ACAD_REACTORS
330
1A
102
}
330
1A
100
AcDbPlotSettings
  1

  2
none_device
  4

  6

 40
0.0
 41
0.0
 42
0.0
 43
0.0
 44
0.0
 45
0.0
 46
0.0
 47
0.0
 48
0.0
 49
0.0
140
0.0
141
0.0
142
1.0
143
1.0
 70
  1712
 72
     0
 73
     0
 74
     0
  7

 75
     0
 76
     0
 77
     2
 78
   300
147
1.0
148
0.0
149
0.0
100
AcDbLayout
  1
Model
 70
     1
 71
     0
 10
0.0
 20
0.0
 11
12.0
 21
9.0
 12
0.0
 22
0.0
 32
0.0
 14
1.000000000000000E+20
 24
1.000000000000000E+20
 34
1.000000000000000E+20
 15
-1.000000000000000E+20
 25
-1.000000000000000E+20
 35
-1.000000000000000E+20
146
0.0
 13
0.0
 23
0.0
 33
0.0
 16
1.0
 26
0.0
 36
0.0
 17
0.0
 27
1.0
 37
0.0
 76
     0
330
1F
331
29
  0
MATERIAL
  5
3D
102
{ACAD_REACTORS
330
3B
102
}
330
3B
100
AcDbMaterial
  1
ByBlock
 72
     1
 94
      127
  0
MATERIAL
  5
3C
102
{ACAD_REACTORS
330
3B
102
}
330
3B
100
AcDbMaterial
  1
ByLayer
 72
     1
 94
      127
  0
MATERIAL
  5
3E
102
{ACAD_REACTORS
330
3B
102
}
330
3B
100
AcDbMaterial
  1
Global
 72
     1
 94
      127
  0
MLINESTYLE
  5
18
102
{ACAD_REACTORS
330
17
102
}
330
17
100
AcDbMlineStyle
  2
Standard
 70
     0
  3

 62
   256
 51
90.0
 52
90.0
 71
     2
 49
0.5
 62
   256
  6
BYLAYER
 49
-0.5
 62
   256
  6
BYLAYER
  0
ACDBPLACEHOLDER
  5
F
102
{ACAD_REACTORS
330
E
102
}
330
E
  0
VISUALSTYLE
  5
2F
102
{ACAD_REACTORS
330
2A
102
}
330
2A
100
AcDbVisualStyle
  2
2dWireframe
 70
     4
177
     2
291
     0
 71
     0
176
     1
 72
     2
176
     1
 73
     0
176
     1
 90
        0
176
     1
 40
-0.6
176
     1
 41
-30.0
176
     1
 62
     5
 63
     7
421
 16777215
176
     1
 74
     1
176
     1
 91
        4
176
     1
 64
     7
176
     1
 65
   257
176
     1
 75
     1
176
     1
175
     1
176
     1
 42
1.0
176
     1
 92
        0
176
     1
 66
   257
176
     1
 43
1.0
176
     1
 76
     1
176
     1
 77
     6
176
     1
 78
     2
176
     1
 67
     7
176
     1
 79
     5
176
     1
170
     0
176
     1
171
     0
176
     1
290
     0
176
     1
 93
        1
176
     1
 44
0.0
176
     1
173
     0
176
     1
  0
VISUALSTYLE
  5
31
102
{ACAD_REACTORS
330
2A
102
}
330
2A
100
AcDbVisualStyle
  2
3D Hidden
 70
     6
177
     2
291
     0
 71
     1
176
     1
 72
     2
176
     1
 73
     2
176
     1
 90
        0
176
     1
 40
-0.6
176
     1
 41
-30.0
176
     1
 62
     5
 63
     7
421
 16777215
176
     1
 74
     2
176
     1
 91
        2
176
     1
 64
     7
176
     1
 65
   257
176
     1
 75
     2
176
     1
175
     1
176
     1
 42
40.0
176
     1
 92
        0
176
     1
 66
   257
176
     1
 43
1.0
176
     1
 76
     1
176
     1
 77
     6
176
     1
 78
     2
176
     1
 67
     7
176
     1
 79
     3
176
     1
170
     0
176
     1
171
     0
176
     1
290
     0
176
     1
 93
        1
176
     1
 44
0.0
176
     1
173
     0
176
     1
  0
VISUALSTYLE
  5
30
102
{ACAD_REACTORS
330
2A
102
}
330
2A
100
AcDbVisualStyle
  2
3dWireframe
 70
     5
177
     2
291
     0
 71
     0
176
     1
 72
     2
176
     1
 73
     0
176
     1
 90
        0
176
     1
 40
-0.6
176
     1
 41
-30.0
176
     1
 62
     5
 63
     7
421
 16777215
176
     1
 74
     1
176
     1
 91
        4
176
     1
 64
     7
176
     1
 65
   257
176
     1
 75
     1
176
     1
175
     1
176
     1
 42
1.0
176
     1
 92
        0
176
     1
 66
   257
176
     1
 43
1.0
176
     1
 76
     1
176
     1
 77
     6
176
     1
 78
     2
176
     1
 67
     7
176
     1
 79
     5
176
     1
170
     0
176
     1
171
     0
176
     1
290
     0
176
     1
 93
        1
176
     1
 44
0.0
176
     1
173
     0
176
     1
  0
VISUALSTYLE
  5
32
102
{ACAD_REACTORS
330
2A
102
}
330
2A
100
AcDbVisualStyle
  2
Basic
 70
     7
177
     2
291
     1
 71
     1
176
     1
 72
     0
176
     1
 73
     1
176
     1
 90
        0
176
     1
 40
-0.6
176
     1
 41
-30.0
176
     1
 62
     5
 63
     7
421
 16777215
176
     1
 74
     0
176
     1
 91
        4
176
     1
 64
     7
176
     1
 65
   257
176
     1
 75
     1
176
     1
175
     1
176
     1
 42
1.0
176
     1
 92
        8
176
     1
 66
     7
176
     1
 43
1.0
176
     1
 76
     1
176
     1
 77
     6
176
     1
 78
     2
176
     1
 67
     7
176
     1
 79
     5
176
     1
170
     0
176
     1
171
     0
176
     1
290
     0
176
     1
 93
        1
176
     1
 44
0.0
176
     1
173
     0
176
     1
  0
VISUALSTYLE
  5
36
102
{ACAD_REACTORS
330
2A
102
}
330
2A
100
AcDbVisualStyle
  2
Brighten
 70
    12
177
     2
291
     1
 71
     2
176
     1
 72
     2
176
     1
 73
     0
176
     1
 90
        0
176
     1
 40
-0.6
176
     1
 41
-30.0
176
     1
 62
     5
 63
     7
421
 16777215
176
     1
 74
     1
176
     1
 91
        4
176
     1
 64
     7
176
     1
 65
   257
176
     1
 75
     1
176
     1
175
     1
176
     1
 42
1.0
176
     1
 92
        8
176
     1
 66
     7
176
     1
 43
1.0
176
     1
 76
     1
176
     1
 77
     6
176
     1
 78
     2
176
     1
 67
     7
176
     1
 79
     5
176
     1
170
     0
176
     1
171
     0
176
     1
290
     0
176
     1
 93
        1
176
     1
 44
50.0
176
     1
173
     0
176
     1
  0
VISUALSTYLE
  5
3A
102
{ACAD_REACTORS
330
2A
102
}
330
2A
100
AcDbVisualStyle
  2
ColorChange
 70
    16
177
     2
291
     1
 71
     2
176
     1
 72
     2
176
     1
 73
     3
176
     1
 90
        0
176
     1
 40
-0.6
176
     1
 41
-30.0
176
     1
 62
     5
 63
     8
421
  8421504
176
     1
 74
     1
176
     1
 91
        4
176
     1
 64
     7
176
     1
 65
   257
176
     1
 75
     1
176
     1
175
     1
176
     1
 42
1.0
176
     1
 92
        8
176
     1
 66
     8
424
  8421504
176
     1
 43
1.0
176
     1
 76
     1
176
     1
 77
     6
176
     1
 78
     2
176
     1
 67
     7
176
     1
 79
     5
176
     1
170
     0
176
     1
171
     0
176
     1
290
     0
176
     1
 93
        1
176
     1
 44
0.0
176
     1
173
     0
176
     1
  0
VISUALSTYLE
  5
34
102
{ACAD_REACTORS
330
2A
102
}
330
2A
100
AcDbVisualStyle
  2
Conceptual
 70
     9
177
     2
291
     0
 71
     3
176
     1
 72
     2
176
     1
 73
     0
176
     1
 90
        0
176
     1
 40
-0.6
176
     1
 41
-30.0
176
     1
 62
     5
 63
     7
421
 16777215
176
     1
 74
     2
176
     1
 91
        2
176
     1
 64
     7
176
     1
 65
   257
176
     1
 75
     1
176
     1
175
     1
176
     1
 42
40.0
176
     1
 92
        8
176
     1
 66
     7
176
     1
 43
1.0
176
     1
 76
     1
176
     1
 77
     6
176
     1
 78
     2
176
     1
 67
     7
176
     1
 79
     3
176
     1
170
     0
176
     1
171
     0
176
     1
290
     0
176
     1
 93
        1
176
     1
 44
0.0
176
     1
173
     0
176
     1
  0
VISUALSTYLE
  5
35
102
{ACAD_REACTORS
330
2A
102
}
330
2A
100
AcDbVisualStyle
  2
Dim
 70
    11
177
     2
291
     1
 71
     2
176
     1
 72
     2
176
     1
 73
     0
176
     1
 90
        0
176
     1
 40
-0.6
176
     1
 41
-30.0
176
     1
 62
     5
 63
     7
421
 16777215
176
     1
 74
     1
176
     1
 91
        4
176
     1
 64
     7
176
     1
 65
   257
176
     1
 75
     1
176
     1
175
     1
176
     1
 42
1.0
176
     1
 92
        8
176
     1
 66
     7
176
     1
 43
1.0
176
     1
 76
     1
176
     1
 77
     6
176
     1
 78
     2
176
     1
 67
     7
176
     1
 79
     5
176
     1
170
     0
176
     1
171
     0
176
     1
290
     0
176
     1
 93
        1
176
     1
 44
-50.0
176
     1
173
     0
176
     1
  0
VISUALSTYLE
  5
39
102
{ACAD_REACTORS
330
2A
102
}
330
2A
100
AcDbVisualStyle
  2
Facepattern
 70
    15
177
     2
291
     1
 71
     2
176
     1
 72
     2
176
     1
 73
     0
176
     1
 90
        0
176
     1
 40
-0.6
176
     1
 41
-30.0
176
     1
 62
     5
 63
     7
421
 16777215
176
     1
 74
     1
176
     1
 91
        4
176
     1
 64
     7
176
     1
 65
   257
176
     1
 75
     1
176
     1
175
     1
176
     1
 42
1.0
176
     1
 92
        8
176
     1
 66
     7
176
     1
 43
1.0
176
     1
 76
     1
176
     1
 77
     6
176
     1
 78
     2
176
     1
 67
     7
176
     1
 79
     5
176
     1
170
     0
176
     1
171
     0
176
     1
290
     0
176
     1
 93
        1
176
     1
 44
0.0
176
     1
173
     0
176
     1
  0
VISUALSTYLE
  5
2B
102
{ACAD_REACTORS
330
2A
102
}
330
2A
100
AcDbVisualStyle
  2
Flat
 70
     0
177
     2
291
     1
 71
     2
176
     1
 72
     1
176
     1
 73
     1
176
     1
 90
        2
176
     1
 40
-0.6
176
     1
 41
30.0
176
     1
 62
     5
 63
     7
421
 16777215
176
     1
 74
     0
176
     1
 91
        4
176
     1
 64
     7
176
     1
 65
   257
176
     1
 75
     1
176
     1
175
     1
176
     1
 42
1.0
176
     1
 92
        8
176
     1
 66
     7
176
     1
 43
1.0
176
     1
 76
     1
176
     1
 77
     6
176
     1
 78
     2
176
     1
 67
     7
176
     1
 79
     5
176
     1
170
     0
176
     1
171
     0
176
     1
290
     0
176
     1
 93
       13
176
     1
 44
0.0
176
     1
173
     0
176
     1
  0
VISUALSTYLE
  5
2C
102
{ACAD_REACTORS
330
2A
102
}
330
2A
100
AcDbVisualStyle
  2
FlatWithEdges
 70
     1
177
     2
291
     1
 71
     2
176
     1
 72
     1
176
     1
 73
     1
176
     1
 90
        2
176
     1
 40
-0.6
176
     1
 41
30.0
176
     1
 62
     5
 63
     7
421
 16777215
176
     1
 74
     1
176
     1
 91
        4
176
     1
 64
     7
176
     1
 65
   257
176
     1
 75
     1
176
     1
175
     1
176
     1
 42
1.0
176
     1
 92
        0
176
     1
 66
   257
176
     1
 43
1.0
176
     1
 76
     1
176
     1
 77
     6
176
     1
 78
     2
176
     1
 67
     7
176
     1
 79
     5
176
     1
170
     0
176
     1
171
     0
176
     1
290
     0
176
     1
 93
       13
176
     1
 44
0.0
176
     1
173
     0
176
     1
  0
VISUALSTYLE
  5
2D
102
{ACAD_REACTORS
330
2A
102
}
330
2A
100
AcDbVisualStyle
  2
Gouraud
 70
     2
177
     2
291
     1
 71
     2
176
     1
 72
     2
176
     1
 73
     1
176
     1
 90
        2
176
     1
 40
-0.6
176
     1
 41
30.0
176
     1
 62
     5
 63
     7
421
 16777215
176
     1
 74
     0
176
     1
 91
        4
176
     1
 64
     7
176
     1
 65
   257
176
     1
 75
     1
176
     1
175
     1
176
     1
 42
1.0
176
     1
 92
        0
176
     1
 66
     7
176
     1
 43
1.0
176
     1
 76
     1
176
     1
 77
     6
176
     1
 78
     2
176
     1
 67
     7
176
     1
 79
     5
176
     1
170
     0
176
     1
171
     0
176
     1
290
     0
176
     1
 93
       13
176
     1
 44
0.0
176
     1
173
     0
176
     1
  0
VISUALSTYLE
  5
2E
102
{ACAD_REACTORS
330
2A
102
}
330
2A
100
AcDbVisualStyle
  2
GouraudWithEdges
 70
     3
177
     2
291
     1
 71
     2
176
     1
 72
     2
176
     1
 73
     1
176
     1
 90
        2
176
     1
 40
-0.6
176
     1
 41
30.0
176
     1
 62
     5
 63
     7
421
 16777215
176
     1
 74
     1
176
     1
 91
        4
176
     1
 64
     7
176
     1
 65
   257
176
     1
 75
     1
176
     1
175
     1
176
     1
 42
1.0
176
     1
 92
        0
176
     1
 66
   257
176
     1
 43
1.0
176
     1
 76
     1
176
     1
 77
     6
176
     1
 78
     2
176
     1
 67
     7
176
     1
 79
     5
176
     1
170
     0
176
     1
171
     0
176
     1
290
     0
176
     1
 93
       13
176
     1
 44
0.0
176
     1
173
     0
176
     1
  0
VISUALSTYLE
  5
38
102
{ACAD_REACTORS
330
2A
102
}
330
2A
100
AcDbVisualStyle
  2
Linepattern
 70
    14
177
     2
291
     1
 71
     2
176
     1
 72
     2
176
     1
 73
     0
176
     1
 90
        0
176
     1
 40
-0.6
176
     1
 41
-30.0
176
     1
 62
     5
 63
     7
421
 16777215
176
     1
 74
     1
176
     1
 91
        4
176
     1
 64
     7
176
     1
 65
   257
176
     1
 75
     7
176
     1
175
     7
176
     1
 42
1.0
176
     1
 92
        8
176
     1
 66
     7
176
     1
 43
1.0
176
     1
 76
     1
176
     1
 77
     6
176
     1
 78
     2
176
     1
 67
     7
176
     1
 79
     5
176
     1
170
     0
176
     1
171
     0
176
     1
290
     0
176
     1
 93
        1
176
     1
 44
0.0
176
     1
173
     0
176
     1
  0
VISUALSTYLE
  5
33
102
{ACAD_REACTORS
330
2A
102
}
330
2A
100
AcDbVisualStyle
  2
Realistic
 70
     8
177
     2
291
     0
 71
     2
176
     1
 72
     2
176
     1
 73
     0
176
     1
 90
        0
176
     1
 40
-0.6
176
     1
 41
-30.0
176
     1
 62
     5
 63
     7
421
 16777215
176
     1
 74
     1
176
     1
 91
        0
176
     1
 64
     7
176
     1
 65
   257
176
     1
 75
     1
176
     1
175
     1
176
     1
 42
1.0
176
     1
 92
        8
176
     1
 66
     8
424
  7895160
176
     1
 43
1.0
176
     1
 76
     1
176
     1
 77
     6
176
     1
 78
     2
176
     1
 67
     7
176
     1
 79
     5
176
     1
170
     0
176
     1
171
     0
176
     1
290
     0
176
     1
 93
       13
176
     1
 44
0.0
176
     1
173
     0
176
     1
  0
VISUALSTYLE
  5
37
102
{ACAD_REACTORS
330
2A
102
}
330
2A
100
AcDbVisualStyle
  2
Thicken
 70
    13
177
     2
291
     1
 71
     2
176
     1
 72
     2
176
     1
 73
     0
176
     1
 90
        0
176
     1
 40
-0.6
176
     1
 41
-30.0
176
     1
 62
     5
 63
     7
421
 16777215
176
     1
 74
     1
176
     1
 91
        4
176
     1
 64
     7
176
     1
 65
   257
176
     1
 75
     1
176
     1
175
     1
176
     1
 42
1.0
176
     1
 92
       12
176
     1
 66
     7
176
     1
 43
1.0
176
     1
 76
     1
176
     1
 77
     6
176
     1
 78
     2
176
     1
 67
     7
176
     1
 79
     5
176
     1
170
     0
176
     1
171
     0
176
     1
290
     0
176
     1
 93
        1
176
     1
 44
0.0
176
     1
173
     0
176
     1
  0
ENDSEC
  0
EOF
