  0
SECTION
  2
HEADER
  9
$ACADVER
  1
AC1024
  9
$ACADMAINTVER
 70
     6
  9
$DWGCODEPAGE
  3
UNDEFINED
  9
$INSBASE
 10
0.0
 20
0.0
 30
0.0
  9
$EXTMIN
 10
1.000000000000000E+20
 20
1.000000000000000E+20
 30
1.000000000000000E+20
  9
$EXTMAX
 10
-1.000000000000000E+20
 20
-1.000000000000000E+20
 30
-1.000000000000000E+20
  9
$LIMMIN
 10
0.0
 20
0.0
  9
$LIMMAX
 10
12.0
 20
9.0
  9
$ORTHOMODE
 70
     0
  9
$REGENMODE
 70
     1
  9
$FILLMODE
 70
     1
  9
$QTEXTMODE
 70
     0
  9
$MIRRTEXT
 70
     1
  9
$LTSCALE
 40
1.0
  9
$ATTMODE
 70
     1
  9
$TEXTSIZE
 40
0.2
  9
$TRACEWID
 40
0.05
  9
$TEXTSTYLE
  7
Standard
  9
$CLAYER
  8
0
  9
$CELTYPE
  6
ByLayer
  9
$CECOLOR
 62
   256
  9
$CELTSCALE
 40
1.0
  9
$DISPSILH
 70
     0
  9
$DIMSCALE
 40
1.0
  9
$DIMASZ
 40
0.18
  9
$DIMEXO
 40
0.0625
  9
$DIMDLI
 40
0.38
  9
$DIMRND
 40
0.0
  9
$DIMDLE
 40
0.0
  9
$DIMEXE
 40
0.18
  9
$DIMTP
 40
0.0
  9
$DIMTM
 40
0.0
  9
$DIMTXT
 40
0.18
  9
$DIMCEN
 40
0.09
  9
$DIMTSZ
 40
0.0
  9
$DIMTOL
 70
     0
  9
$DIMLIM
 70
     0
  9
$DIMTIH
 70
     1
  9
$DIMTOH
 70
     1
  9
$DIMSE1
 70
     0
  9
$DIMSE2
 70
     0
  9
$DIMTAD
 70
     0
  9
$DIMZIN
 70
     0
  9
$DIMBLK
  1

  9
$DIMASO
 70
     1
  9
$DIMSHO
 70
     1
  9
$DIMPOST
  1

  9
$DIMAPOST
  1

  9
$DIMALT
 70
     0
  9
$DIMALTD
 70
     2
  9
$DIMALTF
 40
25.4
  9
$DIMLFAC
 40
1.0
  9
$DIMTOFL
 70
     0
  9
$DIMTVP
 40
0.0
  9
$DIMTIX
 70
     0
  9
$DIMSOXD
 70
     0
  9
$DIMSAH
 70
     0
  9
$DIMBLK1
  1

  9
$DIMBLK2
  1

  9
$DIMSTYLE
  2
Standard
  9
$DIMCLRD
 70
     0
  9
$DIMCLRE
 70
     0
  9
$DIMCLRT
 70
     0
  9
$DIMTFAC
 40
1.0
  9
$DIMGAP
 40
0.09
  9
$DIMJUST
 70
     0
  9
$DIMSD1
 70
     0
  9
$DIMSD2
 70
     0
  9
$DIMTOLJ
 70
     1
  9
$DIMTZIN
 70
     0
  9
$DIMALTZ
 70
     0
  9
$DIMALTTZ
 70
     0
  9
$DIMUPT
 70
     0
  9
$DIMDEC
 70
     4
  9
$DIMTDEC
 70
     4
  9
$DIMALTU
 70
     2
  9
$DIMALTTD
 70
     2
  9
$DIMTXSTY
  7
Standard
  9
$DIMAUNIT
 70
     0
  9
$DIMADEC
 70
     0
  9
$DIMALTRND
 40
0.0
  9
$DIMAZIN
 70
     0
  9
$DIMDSEP
 70
    46
  9
$DIMATFIT
 70
     3
  9
$DIMFRAC
 70
     0
  9
$DIMLDRBLK
  1

  9
$DIMLUNIT
 70
     2
  9
$DIMLWD
 70
    -2
  9
$DIMLWE
 70
    -2
  9
$DIMTMOVE
 70
     0
  9
$DIMFXL
 40
1.0
  9
$DIMFXLON
 70
     0
  9
$DIMJOGANG
 40
0.7853981633974483
  9
$DIMTFILL
 70
     0
  9
$DIMTFILLCLR
 70
     0
  9
$DIMARCSYM
 70
     0
  9
$DIMLTYPE
  6

  9
$DIMLTEX1
  6

  9
$DIMLTEX2
  6

  9
$DIMTXTDIRECTION
 70
     0
  9
$LUNITS
 70
     2
  9
$LUPREC
 70
     4
  9
$SKETCHINC
 40
0.1
  9
$FILLETRAD
 40
0.5
  9
$AUNITS
 70
     0
  9
$AUPREC
 70
     0
  9
$MENU
  1
.
  9
$ELEVATION
 40
0.0
  9
$PELEVATION
 40
0.0
  9
$THICKNESS
 40
0.0
  9
$LIMCHECK
 70
     0
  9
$CHAMFERA
 40
0.5
  9
$CHAMFERB
 40
0.5
  9
$CHAMFERC
 40
1.0
  9
$CHAMFERD
 40
0.0
  9
$SKPOLY
 70
     0
  9
$TDCREATE
 40
2458904.460381933
  9
$TDUCREATE
 40
2458904.668715278
  9
$TDUPDATE
 40
2458904.460381933
  9
$TDUUPDATE
 40
2458904.668715278
  9
$TDINDWG
 40
0.0000000116
  9
$TDUSRTIMER
 40
0.0000000116
  9
$USRTIMER
 70
     1
  9
$ANGBASE
 50
0.0
  9
$ANGDIR
 70
     0
  9
$PDMODE
 70
     0
  9
$PDSIZE
 40
0.0
  9
$PLINEWID
 40
0.0
  9
$SPLFRAME
 70
     0
  9
$SPLINETYPE
 70
     6
  9
$SPLINESEGS
 70
     8
  9
$HANDSEED
  5
E5
  9
$SURFTAB1
 70
     6
  9
$SURFTAB2
 70
     6
  9
$SURFTYPE
 70
     6
  9
$SURFU
 70
     6
  9
$SURFV
 70
     6
  9
$UCSBASE
  2

  9
$UCSNAME
  2

  9
$UCSORG
 10
0.0
 20
0.0
 30
0.0
  9
$UCSXDIR
 10
1.0
 20
0.0
 30
0.0
  9
$UCSYDIR
 10
0.0
 20
1.0
 30
0.0
  9
$UCSORTHOREF
  2

  9
$UCSORTHOVIEW
 70
     0
  9
$UCSORGTOP
 10
0.0
 20
0.0
 30
0.0
  9
$UCSORGBOTTOM
 10
0.0
 20
0.0
 30
0.0
  9
$UCSORGLEFT
 10
0.0
 20
0.0
 30
0.0
  9
$UCSORGRIGHT
 10
0.0
 20
0.0
 30
0.0
  9
$UCSORGFRONT
 10
0.0
 20
0.0
 30
0.0
  9
$UCSORGBACK
 10
0.0
 20
0.0
 30
0.0
  9
$PUCSBASE
  2

  9
$PUCSNAME
  2

  9
$PUCSORG
 10
0.0
 20
0.0
 30
0.0
  9
$PUCSXDIR
 10
1.0
 20
0.0
 30
0.0
  9
$PUCSYDIR
 10
0.0
 20
1.0
 30
0.0
  9
$PUCSORTHOREF
  2

  9
$PUCSORTHOVIEW
 70
     0
  9
$PUCSORGTOP
 10
0.0
 20
0.0
 30
0.0
  9
$PUCSORGBOTTOM
 10
0.0
 20
0.0
 30
0.0
  9
$PUCSORGLEFT
 10
0.0
 20
0.0
 30
0.0
  9
$PUCSORGRIGHT
 10
0.0
 20
0.0
 30
0.0
  9
$PUCSORGFRONT
 10
0.0
 20
0.0
 30
0.0
  9
$PUCSORGBACK
 10
0.0
 20
0.0
 30
0.0
  9
$USERI1
 70
     0
  9
$USERI2
 70
     0
  9
$USERI3
 70
     0
  9
$USERI4
 70
     0
  9
$USERI5
 70
     0
  9
$USERR1
 40
0.0
  9
$USERR2
 40
0.0
  9
$USERR3
 40
0.0
  9
$USERR4
 40
0.0
  9
$USERR5
 40
0.0
  9
$WORLDVIEW
 70
     1
  9
$SHADEDGE
 70
     3
  9
$SHADEDIF
 70
    70
  9
$TILEMODE
 70
     1
  9
$MAXACTVP
 70
    64
  9
$PINSBASE
 10
0.0
 20
0.0
 30
0.0
  9
$PLIMCHECK
 70
     0
  9
$PEXTMIN
 10
1.000000000000000E+20
 20
1.000000000000000E+20
 30
1.000000000000000E+20
  9
$PEXTMAX
 10
-1.000000000000000E+20
 20
-1.000000000000000E+20
 30
-1.000000000000000E+20
  9
$PLIMMIN
 10
0.0
 20
0.0
  9
$PLIMMAX
 10
12.0
 20
9.0
  9
$UNITMODE
 70
     0
  9
$VISRETAIN
 70
     1
  9
$PLINEGEN
 70
     0
  9
$PSLTSCALE
 70
     1
  9
$TREEDEPTH
 70
  3020
  9
$CMLSTYLE
  2
Standard
  9
$CMLJUST
 70
     0
  9
$CMLSCALE
 40
1.0
  9
$PROXYGRAPHICS
 70
     1
  9
$MEASUREMENT
 70
     0
  9
$CELWEIGHT
370
    -1
  9
$ENDCAPS
280
     0
  9
$JOINSTYLE
280
     0
  9
$LWDISPLAY
290
     1
  9
$INSUNITS
 70
     1
  9
$HYPERLINKBASE
  1

  9
$STYLESHEET
  1

  9
$XEDIT
290
     1
  9
$CEPSNTYPE
380
     0
  9
$PSTYLEMODE
290
     1
  9
$FINGERPRINTGUID
  2
{28E66233-4A23-15E0-AD90-44006331E4C4}
  9
$VERSIONGUID
  2
{FAEB1C32-E019-11D5-929B-00C0DF256EC4}
  9
$EXTNAMES
290
     1
  9
$PSVPSCALE
 40
0.0
  9
$OLESTARTUP
290
     0
  9
$SORTENTS
280
   127
  9
$INDEXCTL
280
     0
  9
$HIDETEXT
280
     1
  9
$XCLIPFRAME
280
     2
  9
$HALOGAP
280
     0
  9
$OBSCOLOR
 70
   257
  9
$OBSLTYPE
280
     0
  9
$INTERSECTIONDISPLAY
280
     0
  9
$INTERSECTIONCOLOR
 70
   257
  9
$DIMASSOC
280
     2
  9
$PROJECTNAME
  1

  9
$CAMERADISPLAY
290
     0
  9
$LENSLENGTH
 40
50.0
  9
$CAMERAHEIGHT
 40
0.0
  9
$STEPSPERSEC
 40
2.0
  9
$STEPSIZE
 40
6.0
  9
$3DDWFPREC
 40
2.0
  9
$PSOLWIDTH
 40
0.25
  9
$PSOLHEIGHT
 40
4.0
  9
$LOFTANG1
 40
1.570796326794897
  9
$LOFTANG2
 40
1.570796326794897
  9
$LOFTMAG1
 40
0.0
  9
$LOFTMAG2
 40
0.0
  9
$LOFTPARAM
 70
     7
  9
$LOFTNORMALS
280
     1
  9
$LATITUDE
 40
37.795
  9
$LONGITUDE
 40
-122.394
  9
$NORTHDIRECTION
 40
0.0
  9
$TIMEZONE
 70
 -8000
  9
$LIGHTGLYPHDISPLAY
280
     1
  9
$TILEMODELIGHTSYNCH
280
     1
  9
$CMATERIAL
347
3C
  9
$SOLIDHIST
280
     1
  9
$SHOWHIST
280
     1
  9
$DWFFRAME
280
     2
  9
$DGNFRAME
280
     2
  9
$REALWORLDSCALE
290
     1
  9
$INTERFERECOLOR
 62
   256
  9
$CSHADOW
280
     0
  9
$SHADOWPLANELOCATION
 40
0.0
  0
ENDSEC
  0
SECTION
  2
CLASSES
  0
CLASS
  1
ACDBDICTIONARYWDFLT
  2
AcDbDictionaryWithDefault
  3
ObjectDBX Classes
 90
        0
 91
        4
280
     0
281
     0
  0
CLASS
  1
VISUALSTYLE
  2
AcDbVisualStyle
  3
ObjectDBX Classes
 90
     4095
 91
        4
280
     0
281
     0
  0
CLASS
  1
MATERIAL
  2
AcDbMaterial
  3
ObjectDBX Classes
 90
     1153
 91
        4
280
     0
281
     0
  0
CLASS
  1
SUN
  2
AcDbSun
  3
SCENEOE
 90
     1024
 91
        4
280
     0
281
     0
  0
ENDSEC
  0
SECTION
  2
TABLES
  0
TABLE
  2
VPORT
  5
8
330
0
100
AcDbSymbolTable
 70
     1
  0
VPORT
  5
29
330
8
100
AcDbSymbolTableRecord
100
AcDbViewportTableRecord
  2
*Active
 70
     0
 10
0.0
 20
0.0
 11
1.0
 21
1.0
 12
0.0
 22
0.0
 13
0.0
 23
0.0
 14
0.5
 24
0.5
 15
0.5
 25
0.5
 16
0.0
 26
0.0
 36
1.0
 17
5.846458333333329
 27
-4.133888888888881
 37
0.0
 40
19.0
 41
1.0
 42
50.0
 43
0.0
 44
0.0
 50
0.0
 51
0.0
 71
     0
 72
   100
 73
     1
 74
     3
 75
     0
 76
     0
 77
     0
 78
     0
281
     0
 65
     1
110
0.0
120
0.0
130
0.0
111
1.0
121
0.0
131
0.0
112
0.0
122
1.0
132
0.0
 79
     0
146
0.0
 60
     3
 61
     5
292
     1
282
     1
141
0.0
142
0.0
 63
   250
361
3F
  0
ENDTAB
  0
TABLE
  2
LTYPE
  5
5
330
0
100
AcDbSymbolTable
 70
     1
  0
LTYPE
  5
14
330
5
100
AcDbSymbolTableRecord
100
AcDbLinetypeTableRecord
  2
ByBlock
 70
     0
  3

 72
    65
 73
     0
 40
0.0
  0
LTYPE
  5
15
330
5
100
AcDbSymbolTableRecord
100
AcDbLinetypeTableRecord
  2
ByLayer
 70
     0
  3

 72
    65
 73
     0
 40
0.0
  0
LTYPE
  5
16
330
5
100
AcDbSymbolTableRecord
100
AcDbLinetypeTableRecord
  2
Continuous
 70
     0
  3
Solid line
 72
    65
 73
     0
 40
0.0
  0
ENDTAB
  0
TABLE
  2
LAYER
  5
2
330
0
100
AcDbSymbolTable
 70
     2
  0
LAYER
  5
10
330
2
100
AcDbSymbolTableRecord
100
AcDbLayerTableRecord
  2
0
 70
     0
 62
     7
  6
Continuous
370
    -3
390
F
347
3E
  0
LAYER
  5
40
330
2
100
AcDbSymbolTableRecord
100
AcDbLayerTableRecord
  2
Layer 2
 70
     0
 62
     7
  6
Continuous
370
    -3
390
F
347
3E
  0
ENDTAB
  0
TABLE
  2
STYLE
  5
3
330
0
100
AcDbSymbolTable
 70
     1
  0
STYLE
  5
11
330
3
100
AcDbSymbolTableRecord
100
AcDbTextStyleTableRecord
  2
Standard
 70
     0
 40
0.0
 41
1.0
 50
0.0
 71
     0
 42
0.2
  3
txt
  4

  0
ENDTAB
  0
TABLE
  2
VIEW
  5
6
330
0
100
AcDbSymbolTable
 70
     0
  0
ENDTAB
  0
TABLE
  2
UCS
  5
7
330
0
100
AcDbSymbolTable
 70
     0
  0
ENDTAB
  0
TABLE
  2
APPID
  5
9
330
0
100
AcDbSymbolTable
 70
     1
  0
APPID
  5
12
330
9
100
AcDbSymbolTableRecord
100
AcDbRegAppTableRecord
  2
ACAD
 70
     0
  0
ENDTAB
  0
TABLE
  2
DIMSTYLE
  5
A
330
0
100
AcDbSymbolTable
 70
     1
100
AcDbDimStyleTable
  0
DIMSTYLE
105
27
330
A
100
AcDbSymbolTableRecord
100
AcDbDimStyleTableRecord
  2
Standard
 70
     0
178
     0
340
11
  0
ENDTAB
  0
TABLE
  2
BLOCK_RECORD
  5
1
330
0
100
AcDbSymbolTable
 70
    31
  0
BLOCK_RECORD
  5
1F
330
1
100
AcDbSymbolTableRecord
100
AcDbBlockTableRecord
  2
*Model_Space
340
22
 70
     0
280
     1
281
     0
  0
BLOCK_RECORD
  5
1B
330
1
100
AcDbSymbolTableRecord
100
AcDbBlockTableRecord
  2
*Paper_Space
340
1E
 70
     0
280
     1
281
     0
  0
BLOCK_RECORD
  5
23
330
1
100
AcDbSymbolTableRecord
100
AcDbBlockTableRecord
  2
*Paper_Space0
340
26
 70
     0
280
     1
281
     0
  0
BLOCK_RECORD
  5
41
330
1
100
AcDbSymbolTableRecord
100
AcDbBlockTableRecord
  2
block 2
340
0
102
{BLKREFS
331
42
102
}
 70
     0
280
     1
281
     0
  0
BLOCK_RECORD
  5
45
330
1
100
AcDbSymbolTableRecord
100
AcDbBlockTableRecord
  2
block 3
340
0
102
{BLKREFS
331
46
102
}
 70
     0
280
     1
281
     0
  0
BLOCK_RECORD
  5
4B
330
1
100
AcDbSymbolTableRecord
100
AcDbBlockTableRecord
  2
block 4
340
0
102
{BLKREFS
331
4C
102
}
 70
     0
280
     1
281
     0
  0
BLOCK_RECORD
  5
4F
330
1
100
AcDbSymbolTableRecord
100
AcDbBlockTableRecord
  2
block 5
340
0
102
{BLKREFS
331
50
102
}
 70
     0
280
     1
281
     0
  0
BLOCK_RECORD
  5
53
330
1
100
AcDbSymbolTableRecord
100
AcDbBlockTableRecord
  2
block 6
340
0
102
{BLKREFS
331
54
102
}
 70
     0
280
     1
281
     0
  0
BLOCK_RECORD
  5
59
330
1
100
AcDbSymbolTableRecord
100
AcDbBlockTableRecord
  2
block 7
340
0
102
{BLKREFS
331
5A
102
}
 70
     0
280
     1
281
     0
  0
BLOCK_RECORD
  5
60
330
1
100
AcDbSymbolTableRecord
100
AcDbBlockTableRecord
  2
block 8
340
0
102
{BLKREFS
331
61
102
}
 70
     0
280
     1
281
     0
  0
BLOCK_RECORD
  5
64
330
1
100
AcDbSymbolTableRecord
100
AcDbBlockTableRecord
  2
block 9
340
0
102
{BLKREFS
331
65
102
}
 70
     0
280
     1
281
     0
  0
BLOCK_RECORD
  5
6A
330
1
100
AcDbSymbolTableRecord
100
AcDbBlockTableRecord
  2
block 10
340
0
102
{BLKREFS
331
6B
102
}
 70
     0
280
     1
281
     0
  0
BLOCK_RECORD
  5
71
330
1
100
AcDbSymbolTableRecord
100
AcDbBlockTableRecord
  2
block 11
340
0
102
{BLKREFS
331
72
102
}
 70
     0
280
     1
281
     0
  0
BLOCK_RECORD
  5
77
330
1
100
AcDbSymbolTableRecord
100
AcDbBlockTableRecord
  2
block 12
340
0
102
{BLKREFS
331
78
102
}
 70
     0
280
     1
281
     0
  0
BLOCK_RECORD
  5
7B
330
1
100
AcDbSymbolTableRecord
100
AcDbBlockTableRecord
  2
block 13
340
0
102
{BLKREFS
331
7C
102
}
 70
     0
280
     1
281
     0
  0
BLOCK_RECORD
  5
7F
330
1
100
AcDbSymbolTableRecord
100
AcDbBlockTableRecord
  2
block 14
340
0
102
{BLKREFS
331
80
102
}
 70
     0
280
     1
281
     0
  0
BLOCK_RECORD
  5
85
330
1
100
AcDbSymbolTableRecord
100
AcDbBlockTableRecord
  2
block 15
340
0
102
{BLKREFS
331
86
102
}
 70
     0
280
     1
281
     0
  0
BLOCK_RECORD
  5
8C
330
1
100
AcDbSymbolTableRecord
100
AcDbBlockTableRecord
  2
block 16
340
0
102
{BLKREFS
331
8D
102
}
 70
     0
280
     1
281
     0
  0
BLOCK_RECORD
  5
90
330
1
100
AcDbSymbolTableRecord
100
AcDbBlockTableRecord
  2
block 17
340
0
102
{BLKREFS
331
91
102
}
 70
     0
280
     1
281
     0
  0
BLOCK_RECORD
  5
96
330
1
100
AcDbSymbolTableRecord
100
AcDbBlockTableRecord
  2
block 18
340
0
102
{BLKREFS
331
97
102
}
 70
     0
280
     1
281
     0
  0
BLOCK_RECORD
  5
9D
330
1
100
AcDbSymbolTableRecord
100
AcDbBlockTableRecord
  2
block 19
340
0
102
{BLKREFS
331
9E
102
}
 70
     0
280
     1
281
     0
  0
BLOCK_RECORD
  5
A3
330
1
100
AcDbSymbolTableRecord
100
AcDbBlockTableRecord
  2
block 20
340
0
102
{BLKREFS
331
A4
102
}
 70
     0
280
     1
281
     0
  0
BLOCK_RECORD
  5
A7
330
1
100
AcDbSymbolTableRecord
100
AcDbBlockTableRecord
  2
block 21
340
0
102
{BLKREFS
331
A8
102
}
 70
     0
280
     1
281
     0
  0
BLOCK_RECORD
  5
AB
330
1
100
AcDbSymbolTableRecord
100
AcDbBlockTableRecord
  2
block 22
340
0
102
{BLKREFS
331
AC
102
}
 70
     0
280
     1
281
     0
  0
BLOCK_RECORD
  5
B1
330
1
100
AcDbSymbolTableRecord
100
AcDbBlockTableRecord
  2
block 23
340
0
102
{BLKREFS
331
B2
102
}
 70
     0
280
     1
281
     0
  0
BLOCK_RECORD
  5
B8
330
1
100
AcDbSymbolTableRecord
100
AcDbBlockTableRecord
  2
block 24
340
0
102
{BLKREFS
331
B9
102
}
 70
     0
280
     1
281
     0
  0
BLOCK_RECORD
  5
BC
330
1
100
AcDbSymbolTableRecord
100
AcDbBlockTableRecord
  2
block 25
340
0
102
{BLKREFS
331
BD
102
}
 70
     0
280
     1
281
     0
  0
BLOCK_RECORD
  5
C2
330
1
100
AcDbSymbolTableRecord
100
AcDbBlockTableRecord
  2
block 26
340
0
102
{BLKREFS
331
C3
102
}
 70
     0
280
     1
281
     0
  0
BLOCK_RECORD
  5
C9
330
1
100
AcDbSymbolTableRecord
100
AcDbBlockTableRecord
  2
block 27
340
0
102
{BLKREFS
331
CA
102
}
 70
     0
280
     1
281
     0
  0
BLOCK_RECORD
  5
CF
330
1
100
AcDbSymbolTableRecord
100
AcDbBlockTableRecord
  2
block 28
340
0
102
{BLKREFS
331
D0
102
}
 70
     0
280
     1
281
     0
  0
BLOCK_RECORD
  5
D3
330
1
100
AcDbSymbolTableRecord
100
AcDbBlockTableRecord
  2
block 29
340
0
102
{BLKREFS
331
D4
102
}
 70
     0
280
     1
281
     0
  0
BLOCK_RECORD
  5
D9
330
1
100
AcDbSymbolTableRecord
100
AcDbBlockTableRecord
  2
block 30
340
0
102
{BLKREFS
331
DA
102
}
 70
     0
280
     1
281
     0
  0
BLOCK_RECORD
  5
DD
330
1
100
AcDbSymbolTableRecord
100
AcDbBlockTableRecord
  2
block 31
340
0
102
{BLKREFS
331
DE
102
}
 70
     0
280
     1
281
     0
  0
ENDTAB
  0
ENDSEC
  0
SECTION
  2
BLOCKS
  0
BLOCK
  5
20
330
1F
100
AcDbEntity
  8
0
100
AcDbBlockBegin
  2
*Model_Space
 70
     0
 10
0.0
 20
0.0
 30
0.0
  3
*Model_Space
  1

  0
ENDBLK
  5
21
330
1F
100
AcDbEntity
  8
0
100
AcDbBlockEnd
  0
BLOCK
  5
1C
330
1B
100
AcDbEntity
 67
     1
  8
0
100
AcDbBlockBegin
  2
*Paper_Space
 70
     0
 10
0.0
 20
0.0
 30
0.0
  3
*Paper_Space
  1

  0
ENDBLK
  5
1D
330
1B
100
AcDbEntity
 67
     1
  8
0
100
AcDbBlockEnd
  0
BLOCK
  5
24
330
23
100
AcDbEntity
  8
0
100
AcDbBlockBegin
  2
*Paper_Space0
 70
     0
 10
0.0
 20
0.0
 30
0.0
  3
*Paper_Space0
  1

  0
ENDBLK
  5
25
330
23
100
AcDbEntity
  8
0
100
AcDbBlockEnd
  0
BLOCK
  5
43
330
41
100
AcDbEntity
  8
0
100
AcDbBlockBegin
  2
block 2
 70
     0
 10
0.0
 20
0.0
 30
0.0
  3
block 2
  1

  0
INSERT
  5
46
330
41
100
AcDbEntity
  8
Layer 2
100
AcDbBlockReference
  2
block 3
 10
0.0
 20
0.0
 30
0.0
  0
SPLINE
  5
4A
330
41
100
AcDbEntity
  8
Layer 2
 62
   240
420
 15539236
370
    35
100
AcDbSpline
210
0.0
220
0.0
230
1.0
 70
    11
 71
     3
 72
    14
 73
    10
 74
     0
 42
0.0000000001
 43
0.0000000001
 12
1.0
 22
0.0
 32
0.0
 13
1.0
 23
0.0
 33
0.0
 40
0.0
 40
0.0
 40
0.0
 40
0.0
 40
1.0
 40
1.0
 40
1.0
 40
2.0
 40
2.0
 40
2.0
 40
3.0
 40
3.0
 40
3.0
 40
3.0
 10
-1.624992182326701
 20
-9.340277777777777
 30
0.0
 10
-1.624992182214454
 20
-10.59027777777778
 30
0.0
 10
-0.6083054681281889
 20
-11.59722222233485
 30
0.0
 10
0.6458411512092981
 20
-11.59722222222222
 30
0.0
 10
1.899987770546785
 20
-11.5972222221096
 30
0.0
 10
2.916674484452213
 20
-10.59027777777778
 30
0.0
 10
2.916674484339965
 20
-9.340277777777777
 30
0.0
 10
2.916674484339965
 20
-9.340277777777777
 30
0.0
 10
-1.624992182326701
 20
-9.340277777777777
 30
0.0
 10
-1.624992182326701
 20
-9.340277777777777
 30
0.0
  0
ENDBLK
  5
44
330
41
100
AcDbEntity
  8
0
100
AcDbBlockEnd
  0
BLOCK
  5
47
330
45
100
AcDbEntity
  8
0
100
AcDbBlockBegin
  2
block 3
 70
     0
 10
0.0
 20
0.0
 30
0.0
  3
block 3
  1

  0
SPLINE
  5
49
330
45
100
AcDbEntity
  8
Layer 2
 62
   240
420
 15539236
370
     5
100
AcDbSpline
210
0.0
220
0.0
230
1.0
 70
     8
 71
     3
 72
    20
 73
    16
 74
     0
 42
0.0000000001
 43
0.0000000001
 12
1.0
 22
0.0
 32
0.0
 13
1.0
 23
0.0
 33
0.0
 40
0.0
 40
0.0
 40
0.0
 40
0.0
 40
1.0
 40
1.0
 40
1.0
 40
2.0
 40
2.0
 40
2.0
 40
3.0
 40
3.0
 40
3.0
 40
4.0
 40
4.0
 40
4.0
 40
5.0
 40
5.0
 40
5.0
 40
5.0
 10
0.8659920119319066
 20
-11.58680257234502
 30
0.0
 10
0.8084236236454797
 20
-11.5891057628053
 30
0.0
 10
0.7604786657700641
 20
-11.54292874086852
 30
0.0
 10
0.7604786650306828
 20
-11.48531429809421
 30
0.0
 10
0.7604786650306828
 20
-11.48531429809421
 30
0.0
 10
0.7604786471246648
 20
-10.09002383552492
 30
0.0
 10
0.7604786471246648
 20
-10.09002383552492
 30
0.0
 10
0.7604786471246648
 20
-10.09002383552492
 30
0.0
 10
0.5242581747723736
 20
-10.09002383163998
 30
0.0
 10
0.5242581747723736
 20
-10.09002383163998
 30
0.0
 10
0.5242581747723736
 20
-10.09002383163998
 30
0.0
 10
0.5242581553850414
 20
-11.48531427318666
 30
0.0
 10
0.5242581553850414
 20
-11.48531427318666
 30
0.0
 10
0.5242581545844965
 20
-11.54292848269557
 30
0.0
 10
0.4763135778986225
 20
-11.58910579621043
 30
0.0
 10
0.4187454224458204
 20
-11.58680262120864
 30
0.0
  0
ENDBLK
  5
48
330
45
100
AcDbEntity
  8
0
100
AcDbBlockEnd
  0
BLOCK
  5
4D
330
4B
100
AcDbEntity
  8
0
100
AcDbBlockBegin
  2
block 4
 70
     0
 10
0.0
 20
0.0
 30
0.0
  3
block 4
  1

  0
INSERT
  5
50
330
4B
100
AcDbEntity
  8
Layer 2
100
AcDbBlockReference
  2
block 5
 10
0.0
 20
0.0
 30
0.0
  0
INSERT
  5
61
330
4B
100
AcDbEntity
  8
Layer 2
100
AcDbBlockReference
  2
block 8
 10
0.0
 20
0.0
 30
0.0
  0
INSERT
  5
72
330
4B
100
AcDbEntity
  8
Layer 2
100
AcDbBlockReference
  2
block 11
 10
0.0
 20
0.0
 30
0.0
  0
SPLINE
  5
76
330
4B
100
AcDbEntity
  8
Layer 2
 62
   240
420
 15539236
370
    35
100
AcDbSpline
210
0.0
220
0.0
230
1.0
 70
    11
 71
     3
 72
    14
 73
    10
 74
     0
 42
0.0000000001
 43
0.0000000001
 12
1.0
 22
0.0
 32
0.0
 13
1.0
 23
0.0
 33
0.0
 40
0.0
 40
0.0
 40
0.0
 40
0.0
 40
1.0
 40
1.0
 40
1.0
 40
2.0
 40
2.0
 40
2.0
 40
3.0
 40
3.0
 40
3.0
 40
3.0
 10
2.87963744740427
 20
-9.020833333333332
 30
0.0
 10
2.87963744740427
 20
-7.770833333333333
 30
0.0
 10
1.862950733408449
 20
-6.763888888888888
 30
0.0
 10
0.6088041140709618
 20
-6.763888888888888
 30
0.0
 10
-0.6453425052665503
 20
-6.763888888888888
 30
0.0
 10
-1.662029219262371
 20
-7.770833333333333
 30
0.0
 10
-1.662029219262371
 20
-9.020833333333332
 30
0.0
 10
-1.662029219262371
 20
-9.020833333333332
 30
0.0
 10
2.87963744740427
 20
-9.020833333333332
 30
0.0
 10
2.87963744740427
 20
-9.020833333333332
 30
0.0
  0
ENDBLK
  5
4E
330
4B
100
AcDbEntity
  8
0
100
AcDbBlockEnd
  0
BLOCK
  5
51
330
4F
100
AcDbEntity
  8
0
100
AcDbBlockBegin
  2
block 5
 70
     0
 10
0.0
 20
0.0
 30
0.0
  3
block 5
  1

  0
INSERT
  5
54
330
4F
100
AcDbEntity
  8
Layer 2
100
AcDbBlockReference
  2
block 6
 10
0.0
 20
0.0
 30
0.0
  0
INSERT
  5
5A
330
4F
100
AcDbEntity
  8
Layer 2
100
AcDbBlockReference
  2
block 7
 10
0.0
 20
0.0
 30
0.0
  0
SPLINE
  5
5F
330
4F
100
AcDbEntity
  8
Layer 2
 62
   240
420
 15539236
370
     5
100
AcDbSpline
210
0.0
220
0.0
230
1.0
 70
    11
 71
     3
 72
    17
 73
    13
 74
     0
 42
0.0000000001
 43
0.0000000001
 12
1.0
 22
0.0
 32
0.0
 13
1.0
 23
0.0
 33
0.0
 40
0.0
 40
0.0
 40
0.0
 40
0.0
 40
1.0
 40
1.0
 40
1.0
 40
2.0
 40
2.0
 40
2.0
 40
3.0
 40
3.0
 40
3.0
 40
4.0
 40
4.0
 40
4.0
 40
4.0
 10
2.796304114070936
 20
1.060555352105035
 30
0.0
 10
2.796304114070936
 20
-0.1859206457074581
 30
0.0
 10
1.779617400075115
 20
-1.19638909233941
 30
0.0
 10
0.5254707807376285
 20
-1.19638909233941
 30
0.0
 10
-0.7286758385998837
 20
-1.19638909233941
 30
0.0
 10
-1.745362552595705
 20
-0.1859206457074581
 30
0.0
 10
-1.745362552595705
 20
1.060555352105035
 30
0.0
 10
-1.745362552595705
 20
2.307031349917527
 30
0.0
 10
-0.7286758385998837
 20
3.317499796549479
 30
0.0
 10
0.5254707807376285
 20
3.317499796549479
 30
0.0
 10
1.779617400075115
 20
3.317499796549479
 30
0.0
 10
2.796304114070936
 20
2.307031349917527
 30
0.0
 10
2.796304114070936
 20
1.060555352105035
 30
0.0
  0
ENDBLK
  5
52
330
4F
100
AcDbEntity
  8
0
100
AcDbBlockEnd
  0
BLOCK
  5
55
330
53
100
AcDbEntity
  8
0
100
AcDbBlockBegin
  2
block 6
 70
     0
 10
0.0
 20
0.0
 30
0.0
  3
block 6
  1

  0
SPLINE
  5
57
330
53
100
AcDbEntity
  8
Layer 2
 62
   240
420
 15539236
370
     5
100
AcDbSpline
210
0.0
220
0.0
230
1.0
 70
     8
 71
     3
 72
    20
 73
    16
 74
     0
 42
0.0000000001
 43
0.0000000001
 12
1.0
 22
0.0
 32
0.0
 13
1.0
 23
0.0
 33
0.0
 40
0.0
 40
0.0
 40
0.0
 40
0.0
 40
1.0
 40
1.0
 40
1.0
 40
2.0
 40
2.0
 40
2.0
 40
3.0
 40
3.0
 40
3.0
 40
4.0
 40
4.0
 40
4.0
 40
5.0
 40
5.0
 40
5.0
 40
5.0
 10
0.3053199200147042
 20
3.302080349669621
 30
0.0
 10
0.362888308301371
 20
3.304383540124768
 30
0.0
 10
0.4108332661726182
 20
3.258206518183644
 30
0.0
 10
0.4108332669067951
 20
3.200592075409329
 30
0.0
 10
0.4108332669067951
 20
3.200592075409329
 30
0.0
 10
0.4108332846874797
 20
1.805301612840038
 30
0.0
 10
0.4108332846874797
 20
1.805301612840038
 30
0.0
 10
0.4108332846874797
 20
1.805301612840038
 30
0.0
 10
0.6470537570398467
 20
1.80530160893391
 30
0.0
 10
0.6470537570398467
 20
1.80530160893391
 30
0.0
 10
0.6470537570398467
 20
1.80530160893391
 30
0.0
 10
0.6470537765524871
 20
3.200592050480584
 30
0.0
 10
0.6470537765524871
 20
3.200592050480584
 30
0.0
 10
0.6470537773581732
 20
3.258206259989493
 30
0.0
 10
0.6949983540481778
 20
3.30438357350004
 30
0.0
 10
0.7525665095008157
 20
3.302080398493091
 30
0.0
  0
SPLINE
  5
58
330
53
100
AcDbEntity
  8
Layer 2
 62
   240
420
 15539236
370
     5
100
AcDbSpline
210
0.0
220
0.0
230
1.0
 70
     8
 71
     3
 72
    20
 73
    16
 74
     0
 42
0.0000000001
 43
0.0000000001
 12
1.0
 22
0.0
 32
0.0
 13
1.0
 23
0.0
 33
0.0
 40
0.0
 40
0.0
 40
0.0
 40
0.0
 40
1.0
 40
1.0
 40
1.0
 40
2.0
 40
2.0
 40
2.0
 40
3.0
 40
3.0
 40
3.0
 40
4.0
 40
4.0
 40
4.0
 40
5.0
 40
5.0
 40
5.0
 40
5.0
 10
0.7525656331397006
 20
-1.188338496735519
 30
0.0
 10
0.6949972448535896
 20
-1.190641687206077
 30
0.0
 10
0.6470522869698369
 20
-1.144464665277888
 30
0.0
 10
0.6470522862201228
 20
-1.086850222503724
 30
0.0
 10
0.6470522862201228
 20
-1.086850222503724
 30
0.0
 10
0.6470522680635895
 20
0.308440240065718
 30
0.0
 10
0.6470522680635895
 20
0.308440240065718
 30
0.0
 10
0.6470522680635895
 20
0.308440240065718
 30
0.0
 10
0.4108317957112351
 20
0.308440243908232
 30
0.0
 10
0.4108317957112351
 20
0.308440243908232
 30
0.0
 10
0.4108317957112351
 20
0.308440243908232
 30
0.0
 10
0.4108317765745697
 20
-1.086850197638569
 30
0.0
 10
0.4108317765745697
 20
-1.086850197638569
 30
0.0
 10
0.4108317757842946
 20
-1.144464407147451
 30
0.0
 10
0.3628871991067829
 20
-1.190641720670808
 30
0.0
 10
0.3053190436535891
 20
-1.188338545679421
 30
0.0
  0
ENDBLK
  5
56
330
53
100
AcDbEntity
  8
0
100
AcDbBlockEnd
  0
BLOCK
  5
5B
330
59
100
AcDbEntity
  8
0
100
AcDbBlockBegin
  2
block 7
 70
     0
 10
0.0
 20
0.0
 30
0.0
  3
block 7
  1

  0
SPLINE
  5
5D
330
59
100
AcDbEntity
  8
Layer 2
 62
   240
420
 15539236
370
     5
100
AcDbSpline
210
0.0
220
0.0
230
1.0
 70
     8
 71
     3
 72
    20
 73
    16
 74
     0
 42
0.0000000001
 43
0.0000000001
 12
1.0
 22
0.0
 32
0.0
 13
1.0
 23
0.0
 33
0.0
 40
0.0
 40
0.0
 40
0.0
 40
0.0
 40
1.0
 40
1.0
 40
1.0
 40
2.0
 40
2.0
 40
2.0
 40
3.0
 40
3.0
 40
3.0
 40
4.0
 40
4.0
 40
4.0
 40
5.0
 40
5.0
 40
5.0
 40
5.0
 10
-1.730155466190985
 20
0.8332476205297704
 30
0.0
 10
-1.732458656643492
 20
0.8908160088164246
 30
0.0
 10
-1.686281634700296
 20
0.9387609666856002
 30
0.0
 10
-1.628667191925994
 20
0.9387609674172633
 30
0.0
 10
-1.628667191925994
 20
0.9387609674172633
 30
0.0
 10
-0.233376729356678
 20
0.9387609851353065
 30
0.0
 10
-0.233376729356678
 20
0.9387609851353065
 30
0.0
 10
-0.233376729356678
 20
0.9387609851353065
 30
0.0
 10
-0.2333767254398759
 20
1.174981457487674
 30
0.0
 10
-0.2333767254398759
 20
1.174981457487674
 30
0.0
 10
-0.2333767254398759
 20
1.174981457487674
 30
0.0
 10
-1.628667166986689
 20
1.174981477062955
 30
0.0
 10
-1.628667166986689
 20
1.174981477062955
 30
0.0
 10
-1.686281376495433
 20
1.174981477871294
 30
0.0
 10
-1.732458690003909
 20
1.222926054563358
 30
0.0
 10
-1.730155514994458
 20
1.280494210015857
 30
0.0
  0
SPLINE
  5
5E
330
59
100
AcDbEntity
  8
Layer 2
 62
   240
420
 15539236
370
     5
100
AcDbSpline
210
0.0
220
0.0
230
1.0
 70
     8
 71
     3
 72
    20
 73
    16
 74
     0
 42
0.0000000001
 43
0.0000000001
 12
1.0
 22
0.0
 32
0.0
 13
1.0
 23
0.0
 33
0.0
 40
0.0
 40
0.0
 40
0.0
 40
0.0
 40
1.0
 40
1.0
 40
1.0
 40
2.0
 40
2.0
 40
2.0
 40
3.0
 40
3.0
 40
3.0
 40
4.0
 40
4.0
 40
4.0
 40
5.0
 40
5.0
 40
5.0
 40
5.0
 10
2.788041041415529
 20
0.8332476258098924
 30
0.0
 10
2.790344231865472
 20
0.8908160140966982
 30
0.0
 10
2.744167209920079
 20
0.9387609719639284
 30
0.0
 10
2.686552767145789
 20
0.9387609726929642
 30
0.0
 10
2.686552767145789
 20
0.9387609726929642
 30
0.0
 10
1.291262304576372
 20
0.9387609903483786
 30
0.0
 10
1.291262304576372
 20
0.9387609903483786
 30
0.0
 10
1.291262304576372
 20
0.9387609903483786
 30
0.0
 10
1.291262300649009
 20
1.174981462700594
 30
0.0
 10
1.291262300649009
 20
1.174981462700594
 30
0.0
 10
1.291262300649009
 20
1.174981462700594
 30
0.0
 10
2.686552742195848
 20
1.174981482338505
 30
0.0
 10
2.686552742195848
 20
1.174981482338505
 30
0.0
 10
2.74416695170468
 20
1.174981483149471
 30
0.0
 10
2.790344265210933
 20
1.222926059843657
 30
0.0
 10
2.788041090198855
 20
1.280494215296004
 30
0.0
  0
ENDBLK
  5
5C
330
59
100
AcDbEntity
  8
0
100
AcDbBlockEnd
  0
BLOCK
  5
62
330
60
100
AcDbEntity
  8
0
100
AcDbBlockBegin
  2
block 8
 70
     0
 10
0.0
 20
0.0
 30
0.0
  3
block 8
  1

  0
INSERT
  5
65
330
60
100
AcDbEntity
  8
Layer 2
100
AcDbBlockReference
  2
block 9
 10
0.0
 20
0.0
 30
0.0
  0
INSERT
  5
6B
330
60
100
AcDbEntity
  8
Layer 2
100
AcDbBlockReference
  2
block 10
 10
0.0
 20
0.0
 30
0.0
  0
SPLINE
  5
70
330
60
100
AcDbEntity
  8
Layer 2
 62
   240
420
 15539236
370
     5
100
AcDbSpline
210
0.0
220
0.0
230
1.0
 70
    11
 71
     3
 72
    17
 73
    13
 74
     0
 42
0.0000000001
 43
0.0000000001
 12
1.0
 22
0.0
 32
0.0
 13
1.0
 23
0.0
 33
0.0
 40
0.0
 40
0.0
 40
0.0
 40
0.0
 40
1.0
 40
1.0
 40
1.0
 40
2.0
 40
2.0
 40
2.0
 40
3.0
 40
3.0
 40
3.0
 40
4.0
 40
4.0
 40
4.0
 40
4.0
 10
2.865748558515381
 20
-3.883889092339409
 30
0.0
 10
2.865748558515381
 20
-5.130365090151902
 30
0.0
 10
1.84906184451956
 20
-6.140833536783854
 30
0.0
 10
0.594915225182073
 20
-6.140833536783854
 30
0.0
 10
-0.6592313941554392
 20
-6.140833536783854
 30
0.0
 10
-1.67591810815126
 20
-5.130365090151902
 30
0.0
 10
-1.67591810815126
 20
-3.883889092339409
 30
0.0
 10
-1.67591810815126
 20
-2.637413094526917
 30
0.0
 10
-0.6592313941554392
 20
-1.626944647894965
 30
0.0
 10
0.594915225182073
 20
-1.626944647894965
 30
0.0
 10
1.84906184451956
 20
-1.626944647894965
 30
0.0
 10
2.865748558515381
 20
-2.637413094526917
 30
0.0
 10
2.865748558515381
 20
-3.883889092339409
 30
0.0
  0
ENDBLK
  5
63
330
60
100
AcDbEntity
  8
0
100
AcDbBlockEnd
  0
BLOCK
  5
66
330
64
100
AcDbEntity
  8
0
100
AcDbBlockBegin
  2
block 9
 70
     0
 10
0.0
 20
0.0
 30
0.0
  3
block 9
  1

  0
SPLINE
  5
68
330
64
100
AcDbEntity
  8
Layer 2
 62
   240
420
 15539236
370
     5
100
AcDbSpline
210
0.0
220
0.0
230
1.0
 70
     8
 71
     3
 72
    20
 73
    16
 74
     0
 42
0.0000000001
 43
0.0000000001
 12
1.0
 22
0.0
 32
0.0
 13
1.0
 23
0.0
 33
0.0
 40
0.0
 40
0.0
 40
0.0
 40
0.0
 40
1.0
 40
1.0
 40
1.0
 40
2.0
 40
2.0
 40
2.0
 40
3.0
 40
3.0
 40
3.0
 40
4.0
 40
4.0
 40
4.0
 40
5.0
 40
5.0
 40
5.0
 40
5.0
 10
0.3747643644591486
 20
-1.635419650330378
 30
0.0
 10
0.4323327527458155
 20
-1.633116459875257
 30
0.0
 10
0.4802777106170626
 20
-1.679293481816355
 30
0.0
 10
0.4802777113512396
 20
-1.736907924590671
 30
0.0
 10
0.4802777113512396
 20
-1.736907924590671
 30
0.0
 10
0.4802777291319242
 20
-3.132198387159961
 30
0.0
 10
0.4802777291319242
 20
-3.132198387159961
 30
0.0
 10
0.4802777291319242
 20
-3.132198387159961
 30
0.0
 10
0.7164982014842912
 20
-3.13219839106609
 30
0.0
 10
0.7164982014842912
 20
-3.13219839106609
 30
0.0
 10
0.7164982014842912
 20
-3.13219839106609
 30
0.0
 10
0.7164982209969316
 20
-1.736907949519415
 30
0.0
 10
0.7164982209969316
 20
-1.736907949519415
 30
0.0
 10
0.7164982218026176
 20
-1.679293740010507
 30
0.0
 10
0.7644427984926222
 20
-1.633116426499959
 30
0.0
 10
0.8220109539452601
 20
-1.635419601506909
 30
0.0
  0
SPLINE
  5
69
330
64
100
AcDbEntity
  8
Layer 2
 62
   240
420
 15539236
370
     5
100
AcDbSpline
210
0.0
220
0.0
230
1.0
 70
     8
 71
     3
 72
    20
 73
    16
 74
     0
 42
0.0000000001
 43
0.0000000001
 12
1.0
 22
0.0
 32
0.0
 13
1.0
 23
0.0
 33
0.0
 40
0.0
 40
0.0
 40
0.0
 40
0.0
 40
1.0
 40
1.0
 40
1.0
 40
2.0
 40
2.0
 40
2.0
 40
3.0
 40
3.0
 40
3.0
 40
4.0
 40
4.0
 40
4.0
 40
5.0
 40
5.0
 40
5.0
 40
5.0
 10
0.822010077584145
 20
-6.125838496735519
 30
0.0
 10
0.764441689298034
 20
-6.128141687206076
 30
0.0
 10
0.7164967314142814
 20
-6.081964665277888
 30
0.0
 10
0.7164967306645672
 20
-6.024350222503724
 30
0.0
 10
0.7164967306645672
 20
-6.024350222503724
 30
0.0
 10
0.7164967125080339
 20
-4.629059759934282
 30
0.0
 10
0.7164967125080339
 20
-4.629059759934282
 30
0.0
 10
0.7164967125080339
 20
-4.629059759934282
 30
0.0
 10
0.4802762401556795
 20
-4.629059756091768
 30
0.0
 10
0.4802762401556795
 20
-4.629059756091768
 30
0.0
 10
0.4802762401556795
 20
-4.629059756091768
 30
0.0
 10
0.4802762210190141
 20
-6.024350197638569
 30
0.0
 10
0.4802762210190141
 20
-6.024350197638569
 30
0.0
 10
0.4802762202287391
 20
-6.081964407147451
 30
0.0
 10
0.4323316435512273
 20
-6.128141720670808
 30
0.0
 10
0.3747634880980336
 20
-6.125838545679421
 30
0.0
  0
ENDBLK
  5
67
330
64
100
AcDbEntity
  8
0
100
AcDbBlockEnd
  0
BLOCK
  5
6C
330
6A
100
AcDbEntity
  8
0
100
AcDbBlockBegin
  2
block 10
 70
     0
 10
0.0
 20
0.0
 30
0.0
  3
block 10
  1

  0
SPLINE
  5
6E
330
6A
100
AcDbEntity
  8
Layer 2
 62
   240
420
 15539236
370
     5
100
AcDbSpline
210
0.0
220
0.0
230
1.0
 70
     8
 71
     3
 72
    20
 73
    16
 74
     0
 42
0.0000000001
 43
0.0000000001
 12
1.0
 22
0.0
 32
0.0
 13
1.0
 23
0.0
 33
0.0
 40
0.0
 40
0.0
 40
0.0
 40
0.0
 40
1.0
 40
1.0
 40
1.0
 40
2.0
 40
2.0
 40
2.0
 40
3.0
 40
3.0
 40
3.0
 40
4.0
 40
4.0
 40
4.0
 40
5.0
 40
5.0
 40
5.0
 40
5.0
 10
-1.660711021746541
 20
-4.104252379470229
 30
0.0
 10
-1.663014212199048
 20
-4.046683991183575
 30
0.0
 10
-1.616837190255852
 20
-3.9987390333144
 30
0.0
 10
-1.559222747481549
 20
-3.998739032582737
 30
0.0
 10
-1.559222747481549
 20
-3.998739032582737
 30
0.0
 10
-0.1639322849122335
 20
-3.998739014864693
 30
0.0
 10
-0.1639322849122335
 20
-3.998739014864693
 30
0.0
 10
-0.1639322849122335
 20
-3.998739014864693
 30
0.0
 10
-0.1639322809954314
 20
-3.762518542512326
 30
0.0
 10
-0.1639322809954314
 20
-3.762518542512326
 30
0.0
 10
-0.1639322809954314
 20
-3.762518542512326
 30
0.0
 10
-1.559222722542245
 20
-3.762518522937044
 30
0.0
 10
-1.559222722542245
 20
-3.762518522937044
 30
0.0
 10
-1.616836932050988
 20
-3.762518522128706
 30
0.0
 10
-1.663014245559465
 20
-3.714573945436642
 30
0.0
 10
-1.660711070550014
 20
-3.657005789984143
 30
0.0
  0
SPLINE
  5
6F
330
6A
100
AcDbEntity
  8
Layer 2
 62
   240
420
 15539236
370
     5
100
AcDbSpline
210
0.0
220
0.0
230
1.0
 70
     8
 71
     3
 72
    20
 73
    16
 74
     0
 42
0.0000000001
 43
0.0000000001
 12
1.0
 22
0.0
 32
0.0
 13
1.0
 23
0.0
 33
0.0
 40
0.0
 40
0.0
 40
0.0
 40
0.0
 40
1.0
 40
1.0
 40
1.0
 40
2.0
 40
2.0
 40
2.0
 40
3.0
 40
3.0
 40
3.0
 40
4.0
 40
4.0
 40
4.0
 40
5.0
 40
5.0
 40
5.0
 40
5.0
 10
2.857485485859974
 20
-4.104252374190107
 30
0.0
 10
2.859788676309917
 20
-4.046683985903302
 30
0.0
 10
2.813611654364523
 20
-3.998739028036071
 30
0.0
 10
2.755997211590233
 20
-3.998739027307035
 30
0.0
 10
2.755997211590233
 20
-3.998739027307035
 30
0.0
 10
1.360706749020816
 20
-3.998739009651621
 30
0.0
 10
1.360706749020816
 20
-3.998739009651621
 30
0.0
 10
1.360706749020816
 20
-3.998739009651621
 30
0.0
 10
1.360706745093454
 20
-3.762518537299406
 30
0.0
 10
1.360706745093454
 20
-3.762518537299406
 30
0.0
 10
1.360706745093454
 20
-3.762518537299406
 30
0.0
 10
2.755997186640292
 20
-3.762518517661495
 30
0.0
 10
2.755997186640292
 20
-3.762518517661495
 30
0.0
 10
2.813611396149124
 20
-3.762518516850529
 30
0.0
 10
2.859788709655378
 20
-3.714573940156343
 30
0.0
 10
2.857485534643299
 20
-3.657005784703996
 30
0.0
  0
ENDBLK
  5
6D
330
6A
100
AcDbEntity
  8
0
100
AcDbBlockEnd
  0
BLOCK
  5
73
330
71
100
AcDbEntity
  8
0
100
AcDbBlockBegin
  2
block 11
 70
     0
 10
0.0
 20
0.0
 30
0.0
  3
block 11
  1

  0
SPLINE
  5
75
330
71
100
AcDbEntity
  8
Layer 2
 62
   240
420
 15539236
370
     5
100
AcDbSpline
210
0.0
220
0.0
230
1.0
 70
     8
 71
     3
 72
    20
 73
    16
 74
     0
 42
0.0000000001
 43
0.0000000001
 12
1.0
 22
0.0
 32
0.0
 13
1.0
 23
0.0
 33
0.0
 40
0.0
 40
0.0
 40
0.0
 40
0.0
 40
1.0
 40
1.0
 40
1.0
 40
2.0
 40
2.0
 40
2.0
 40
3.0
 40
3.0
 40
3.0
 40
4.0
 40
4.0
 40
4.0
 40
5.0
 40
5.0
 40
5.0
 40
5.0
 10
0.3886532533480375
 20
-6.767364094774822
 30
0.0
 10
0.4462216416347044
 20
-6.765060904319701
 30
0.0
 10
0.4941665995059515
 20
-6.8112379262608
 30
0.0
 10
0.4941666002401285
 20
-6.868852369035115
 30
0.0
 10
0.4941666002401285
 20
-6.868852369035115
 30
0.0
 10
0.4941666180208131
 20
-8.264142831604406
 30
0.0
 10
0.4941666180208131
 20
-8.264142831604406
 30
0.0
 10
0.4941666180208131
 20
-8.264142831604406
 30
0.0
 10
0.7303870903731801
 20
-8.264142835510533
 30
0.0
 10
0.7303870903731801
 20
-8.264142835510533
 30
0.0
 10
0.7303870903731801
 20
-8.264142835510533
 30
0.0
 10
0.7303871098858205
 20
-6.868852393963859
 30
0.0
 10
0.7303871098858205
 20
-6.868852393963859
 30
0.0
 10
0.7303871106915064
 20
-6.811238184454951
 30
0.0
 10
0.7783316873815112
 20
-6.765060870944403
 30
0.0
 10
0.835899842834149
 20
-6.767364045951354
 30
0.0
  0
ENDBLK
  5
74
330
71
100
AcDbEntity
  8
0
100
AcDbBlockEnd
  0
BLOCK
  5
79
330
77
100
AcDbEntity
  8
0
100
AcDbBlockBegin
  2
block 12
 70
     0
 10
0.0
 20
0.0
 30
0.0
  3
block 12
  1

  0
INSERT
  5
7C
330
77
100
AcDbEntity
  8
Layer 2
100
AcDbBlockReference
  2
block 13
 10
0.0
 20
0.0
 30
0.0
  0
INSERT
  5
8D
330
77
100
AcDbEntity
  8
Layer 2
100
AcDbBlockReference
  2
block 16
 10
0.0
 20
0.0
 30
0.0
  0
INSERT
  5
9E
330
77
100
AcDbEntity
  8
Layer 2
100
AcDbBlockReference
  2
block 19
 10
0.0
 20
0.0
 30
0.0
  0
SPLINE
  5
A2
330
77
100
AcDbEntity
  8
Layer 2
 62
   240
420
 15539236
370
    35
100
AcDbSpline
210
0.0
220
0.0
230
1.0
 70
    11
 71
     3
 72
    14
 73
    10
 74
     0
 42
0.0000000001
 43
0.0000000001
 12
1.0
 22
0.0
 32
0.0
 13
1.0
 23
0.0
 33
0.0
 40
0.0
 40
0.0
 40
0.0
 40
0.0
 40
1.0
 40
1.0
 40
1.0
 40
2.0
 40
2.0
 40
2.0
 40
3.0
 40
3.0
 40
3.0
 40
3.0
 10
8.14661275604625
 20
-9.020833333333332
 30
0.0
 10
8.14661275604625
 20
-7.770833333333333
 30
0.0
 10
7.129926042050404
 20
-6.763888888888888
 30
0.0
 10
5.875779422712918
 20
-6.763888888888888
 30
0.0
 10
4.62163280337543
 20
-6.763888888888888
 30
0.0
 10
3.604946089379584
 20
-7.770833333333333
 30
0.0
 10
3.604946089379584
 20
-9.020833333333332
 30
0.0
 10
3.604946089379584
 20
-9.020833333333332
 30
0.0
 10
8.14661275604625
 20
-9.020833333333332
 30
0.0
 10
8.14661275604625
 20
-9.020833333333332
 30
0.0
  0
ENDBLK
  5
7A
330
77
100
AcDbEntity
  8
0
100
AcDbBlockEnd
  0
BLOCK
  5
7D
330
7B
100
AcDbEntity
  8
0
100
AcDbBlockBegin
  2
block 13
 70
     0
 10
0.0
 20
0.0
 30
0.0
  3
block 13
  1

  0
INSERT
  5
80
330
7B
100
AcDbEntity
  8
Layer 2
100
AcDbBlockReference
  2
block 14
 10
0.0
 20
0.0
 30
0.0
  0
INSERT
  5
86
330
7B
100
AcDbEntity
  8
Layer 2
100
AcDbBlockReference
  2
block 15
 10
0.0
 20
0.0
 30
0.0
  0
SPLINE
  5
8B
330
7B
100
AcDbEntity
  8
Layer 2
 62
   240
420
 15539236
370
     5
100
AcDbSpline
210
0.0
220
0.0
230
1.0
 70
    11
 71
     3
 72
    17
 73
    13
 74
     0
 42
0.0000000001
 43
0.0000000001
 12
1.0
 22
0.0
 32
0.0
 13
1.0
 23
0.0
 33
0.0
 40
0.0
 40
0.0
 40
0.0
 40
0.0
 40
1.0
 40
1.0
 40
1.0
 40
2.0
 40
2.0
 40
2.0
 40
3.0
 40
3.0
 40
3.0
 40
4.0
 40
4.0
 40
4.0
 40
4.0
 10
8.063279422712917
 20
1.060555352105035
 30
0.0
 10
8.063279422712917
 20
-0.1859206457074581
 30
0.0
 10
7.046592708717071
 20
-1.19638909233941
 30
0.0
 10
5.792446089379584
 20
-1.19638909233941
 30
0.0
 10
4.538299470042097
 20
-1.19638909233941
 30
0.0
 10
3.521612756046251
 20
-0.1859206457074581
 30
0.0
 10
3.521612756046251
 20
1.060555352105035
 30
0.0
 10
3.521612756046251
 20
2.307031349917527
 30
0.0
 10
4.538299470042097
 20
3.317499796549479
 30
0.0
 10
5.792446089379584
 20
3.317499796549479
 30
0.0
 10
7.046592708717071
 20
3.317499796549479
 30
0.0
 10
8.063279422712917
 20
2.307031349917527
 30
0.0
 10
8.063279422712917
 20
1.060555352105035
 30
0.0
  0
ENDBLK
  5
7E
330
7B
100
AcDbEntity
  8
0
100
AcDbBlockEnd
  0
BLOCK
  5
81
330
7F
100
AcDbEntity
  8
0
100
AcDbBlockBegin
  2
block 14
 70
     0
 10
0.0
 20
0.0
 30
0.0
  3
block 14
  1

  0
SPLINE
  5
83
330
7F
100
AcDbEntity
  8
Layer 2
 62
   240
420
 15539236
370
     5
100
AcDbSpline
210
0.0
220
0.0
230
1.0
 70
     8
 71
     3
 72
    20
 73
    16
 74
     0
 42
0.0000000001
 43
0.0000000001
 12
1.0
 22
0.0
 32
0.0
 13
1.0
 23
0.0
 33
0.0
 40
0.0
 40
0.0
 40
0.0
 40
0.0
 40
1.0
 40
1.0
 40
1.0
 40
2.0
 40
2.0
 40
2.0
 40
3.0
 40
3.0
 40
3.0
 40
4.0
 40
4.0
 40
4.0
 40
5.0
 40
5.0
 40
5.0
 40
5.0
 10
5.572295228656659
 20
3.302080349669621
 30
0.0
 10
5.629863616943289
 20
3.304383540124768
 30
0.0
 10
5.677808574814561
 20
3.258206518183644
 30
0.0
 10
5.677808575548775
 20
3.200592075409329
 30
0.0
 10
5.677808575548775
 20
3.200592075409329
 30
0.0
 10
5.677808593329498
 20
1.805301612840038
 30
0.0
 10
5.677808593329498
 20
1.805301612840038
 30
0.0
 10
5.677808593329498
 20
1.805301612840038
 30
0.0
 10
5.914029065681789
 20
1.80530160893391
 30
0.0
 10
5.914029065681789
 20
1.80530160893391
 30
0.0
 10
5.914029065681789
 20
1.80530160893391
 30
0.0
 10
5.914029085194417
 20
3.200592050480584
 30
0.0
 10
5.914029085194417
 20
3.200592050480584
 30
0.0
 10
5.914029086000128
 20
3.258206259989493
 30
0.0
 10
5.961973662690146
 20
3.30438357350004
 30
0.0
 10
6.019541818142746
 20
3.302080398493091
 30
0.0
  0
SPLINE
  5
84
330
7F
100
AcDbEntity
  8
Layer 2
 62
   240
420
 15539236
370
     5
100
AcDbSpline
210
0.0
220
0.0
230
1.0
 70
     8
 71
     3
 72
    20
 73
    16
 74
     0
 42
0.0000000001
 43
0.0000000001
 12
1.0
 22
0.0
 32
0.0
 13
1.0
 23
0.0
 33
0.0
 40
0.0
 40
0.0
 40
0.0
 40
0.0
 40
1.0
 40
1.0
 40
1.0
 40
2.0
 40
2.0
 40
2.0
 40
3.0
 40
3.0
 40
3.0
 40
4.0
 40
4.0
 40
4.0
 40
5.0
 40
5.0
 40
5.0
 40
5.0
 10
6.019540941781618
 20
-1.188338496735519
 30
0.0
 10
5.961972553495621
 20
-1.190641687206077
 30
0.0
 10
5.914027595611893
 20
-1.144464665277888
 30
0.0
 10
5.914027594862167
 20
-1.086850222503724
 30
0.0
 10
5.914027594862167
 20
-1.086850222503724
 30
0.0
 10
5.91402757670557
 20
0.308440240065718
 30
0.0
 10
5.91402757670557
 20
0.308440240065718
 30
0.0
 10
5.91402757670557
 20
0.308440240065718
 30
0.0
 10
5.677807104353279
 20
0.308440243908232
 30
0.0
 10
5.677807104353279
 20
0.308440243908232
 30
0.0
 10
5.677807104353279
 20
0.308440243908232
 30
0.0
 10
5.677807085216525
 20
-1.086850197638569
 30
0.0
 10
5.677807085216525
 20
-1.086850197638569
 30
0.0
 10
5.677807084426326
 20
-1.144464407147451
 30
0.0
 10
5.629862507748763
 20
-1.190641720670808
 30
0.0
 10
5.572294352295532
 20
-1.188338545679421
 30
0.0
  0
ENDBLK
  5
82
330
7F
100
AcDbEntity
  8
0
100
AcDbBlockEnd
  0
BLOCK
  5
87
330
85
100
AcDbEntity
  8
0
100
AcDbBlockBegin
  2
block 15
 70
     0
 10
0.0
 20
0.0
 30
0.0
  3
block 15
  1

  0
SPLINE
  5
89
330
85
100
AcDbEntity
  8
Layer 2
 62
   240
420
 15539236
370
     5
100
AcDbSpline
210
0.0
220
0.0
230
1.0
 70
     8
 71
     3
 72
    20
 73
    16
 74
     0
 42
0.0000000001
 43
0.0000000001
 12
1.0
 22
0.0
 32
0.0
 13
1.0
 23
0.0
 33
0.0
 40
0.0
 40
0.0
 40
0.0
 40
0.0
 40
1.0
 40
1.0
 40
1.0
 40
2.0
 40
2.0
 40
2.0
 40
3.0
 40
3.0
 40
3.0
 40
4.0
 40
4.0
 40
4.0
 40
5.0
 40
5.0
 40
5.0
 40
5.0
 10
3.536819842450996
 20
0.8332476205297704
 30
0.0
 10
3.534516651998451
 20
0.8908160088164246
 30
0.0
 10
3.580693673941697
 20
0.9387609666856002
 30
0.0
 10
3.638308116716012
 20
0.9387609674172633
 30
0.0
 10
3.638308116716012
 20
0.9387609674172633
 30
0.0
 10
5.033598579285353
 20
0.9387609851353065
 30
0.0
 10
5.033598579285353
 20
0.9387609851353065
 30
0.0
 10
5.033598579285353
 20
0.9387609851353065
 30
0.0
 10
5.033598583202092
 20
1.174981457487674
 30
0.0
 10
5.033598583202092
 20
1.174981457487674
 30
0.0
 10
5.033598583202092
 20
1.174981457487674
 30
0.0
 10
3.638308141655317
 20
1.174981477062955
 30
0.0
 10
3.638308141655317
 20
1.174981477062955
 30
0.0
 10
3.580693932146485
 20
1.174981477871294
 30
0.0
 10
3.534516618638109
 20
1.222926054563358
 30
0.0
 10
3.536819793647585
 20
1.280494210015857
 30
0.0
  0
SPLINE
  5
8A
330
85
100
AcDbEntity
  8
Layer 2
 62
   240
420
 15539236
370
     5
100
AcDbSpline
210
0.0
220
0.0
230
1.0
 70
     8
 71
     3
 72
    20
 73
    16
 74
     0
 42
0.0000000001
 43
0.0000000001
 12
1.0
 22
0.0
 32
0.0
 13
1.0
 23
0.0
 33
0.0
 40
0.0
 40
0.0
 40
0.0
 40
0.0
 40
1.0
 40
1.0
 40
1.0
 40
2.0
 40
2.0
 40
2.0
 40
3.0
 40
3.0
 40
3.0
 40
4.0
 40
4.0
 40
4.0
 40
5.0
 40
5.0
 40
5.0
 40
5.0
 10
8.05501635005751
 20
0.8332476258098924
 30
0.0
 10
8.057319540507454
 20
0.8908160140966982
 30
0.0
 10
8.011142518562034
 20
0.9387609719639284
 30
0.0
 10
7.953528075787769
 20
0.9387609726929642
 30
0.0
 10
7.953528075787769
 20
0.9387609726929642
 30
0.0
 10
6.558237613218402
 20
0.9387609903483786
 30
0.0
 10
6.558237613218402
 20
0.9387609903483786
 30
0.0
 10
6.558237613218402
 20
0.9387609903483786
 30
0.0
 10
6.558237609291053
 20
1.174981462700594
 30
0.0
 10
6.558237609291053
 20
1.174981462700594
 30
0.0
 10
6.558237609291053
 20
1.174981462700594
 30
0.0
 10
7.953528050837829
 20
1.174981482338505
 30
0.0
 10
7.953528050837829
 20
1.174981482338505
 30
0.0
 10
8.011142260346661
 20
1.174981483149471
 30
0.0
 10
8.057319573852913
 20
1.222926059843657
 30
0.0
 10
8.055016398840836
 20
1.280494215296004
 30
0.0
  0
ENDBLK
  5
88
330
85
100
AcDbEntity
  8
0
100
AcDbBlockEnd
  0
BLOCK
  5
8E
330
8C
100
AcDbEntity
  8
0
100
AcDbBlockBegin
  2
block 16
 70
     0
 10
0.0
 20
0.0
 30
0.0
  3
block 16
  1

  0
INSERT
  5
91
330
8C
100
AcDbEntity
  8
Layer 2
100
AcDbBlockReference
  2
block 17
 10
0.0
 20
0.0
 30
0.0
  0
INSERT
  5
97
330
8C
100
AcDbEntity
  8
Layer 2
100
AcDbBlockReference
  2
block 18
 10
0.0
 20
0.0
 30
0.0
  0
SPLINE
  5
9C
330
8C
100
AcDbEntity
  8
Layer 2
 62
   240
420
 15539236
370
     5
100
AcDbSpline
210
0.0
220
0.0
230
1.0
 70
    11
 71
     3
 72
    17
 73
    13
 74
     0
 42
0.0000000001
 43
0.0000000001
 12
1.0
 22
0.0
 32
0.0
 13
1.0
 23
0.0
 33
0.0
 40
0.0
 40
0.0
 40
0.0
 40
0.0
 40
1.0
 40
1.0
 40
1.0
 40
2.0
 40
2.0
 40
2.0
 40
3.0
 40
3.0
 40
3.0
 40
4.0
 40
4.0
 40
4.0
 40
4.0
 10
8.132723867157361
 20
-3.883889092339409
 30
0.0
 10
8.132723867157361
 20
-5.130365090151902
 30
0.0
 10
7.116037153161515
 20
-6.140833536783854
 30
0.0
 10
5.861890533824028
 20
-6.140833536783854
 30
0.0
 10
4.607743914486542
 20
-6.140833536783854
 30
0.0
 10
3.591057200490695
 20
-5.130365090151902
 30
0.0
 10
3.591057200490695
 20
-3.883889092339409
 30
0.0
 10
3.591057200490695
 20
-2.637413094526917
 30
0.0
 10
4.607743914486542
 20
-1.626944647894965
 30
0.0
 10
5.861890533824028
 20
-1.626944647894965
 30
0.0
 10
7.116037153161515
 20
-1.626944647894965
 30
0.0
 10
8.132723867157361
 20
-2.637413094526917
 30
0.0
 10
8.132723867157361
 20
-3.883889092339409
 30
0.0
  0
ENDBLK
  5
8F
330
8C
100
AcDbEntity
  8
0
100
AcDbBlockEnd
  0
BLOCK
  5
92
330
90
100
AcDbEntity
  8
0
100
AcDbBlockBegin
  2
block 17
 70
     0
 10
0.0
 20
0.0
 30
0.0
  3
block 17
  1

  0
SPLINE
  5
94
330
90
100
AcDbEntity
  8
Layer 2
 62
   240
420
 15539236
370
     5
100
AcDbSpline
210
0.0
220
0.0
230
1.0
 70
     8
 71
     3
 72
    20
 73
    16
 74
     0
 42
0.0000000001
 43
0.0000000001
 12
1.0
 22
0.0
 32
0.0
 13
1.0
 23
0.0
 33
0.0
 40
0.0
 40
0.0
 40
0.0
 40
0.0
 40
1.0
 40
1.0
 40
1.0
 40
2.0
 40
2.0
 40
2.0
 40
3.0
 40
3.0
 40
3.0
 40
4.0
 40
4.0
 40
4.0
 40
5.0
 40
5.0
 40
5.0
 40
5.0
 10
5.641739673101104
 20
-1.635419650330378
 30
0.0
 10
5.699308061387733
 20
-1.633116459875257
 30
0.0
 10
5.747253019259006
 20
-1.679293481816355
 30
0.0
 10
5.74725301999322
 20
-1.736907924590671
 30
0.0
 10
5.74725301999322
 20
-1.736907924590671
 30
0.0
 10
5.747253037773943
 20
-3.132198387159961
 30
0.0
 10
5.747253037773943
 20
-3.132198387159961
 30
0.0
 10
5.747253037773943
 20
-3.132198387159961
 30
0.0
 10
5.983473510126234
 20
-3.13219839106609
 30
0.0
 10
5.983473510126234
 20
-3.13219839106609
 30
0.0
 10
5.983473510126234
 20
-3.13219839106609
 30
0.0
 10
5.983473529638862
 20
-1.736907949519415
 30
0.0
 10
5.983473529638862
 20
-1.736907949519415
 30
0.0
 10
5.983473530444573
 20
-1.679293740010507
 30
0.0
 10
6.03141810713459
 20
-1.633116426499959
 30
0.0
 10
6.08898626258719
 20
-1.635419601506909
 30
0.0
  0
SPLINE
  5
95
330
90
100
AcDbEntity
  8
Layer 2
 62
   240
420
 15539236
370
     5
100
AcDbSpline
210
0.0
220
0.0
230
1.0
 70
     8
 71
     3
 72
    20
 73
    16
 74
     0
 42
0.0000000001
 43
0.0000000001
 12
1.0
 22
0.0
 32
0.0
 13
1.0
 23
0.0
 33
0.0
 40
0.0
 40
0.0
 40
0.0
 40
0.0
 40
1.0
 40
1.0
 40
1.0
 40
2.0
 40
2.0
 40
2.0
 40
3.0
 40
3.0
 40
3.0
 40
4.0
 40
4.0
 40
4.0
 40
5.0
 40
5.0
 40
5.0
 40
5.0
 10
6.088985386226063
 20
-6.125838496735519
 30
0.0
 10
6.031416997940065
 20
-6.128141687206076
 30
0.0
 10
5.983472040056338
 20
-6.081964665277888
 30
0.0
 10
5.983472039306611
 20
-6.024350222503724
 30
0.0
 10
5.983472039306611
 20
-6.024350222503724
 30
0.0
 10
5.983472021150015
 20
-4.629059759934282
 30
0.0
 10
5.983472021150015
 20
-4.629059759934282
 30
0.0
 10
5.983472021150015
 20
-4.629059759934282
 30
0.0
 10
5.747251548797723
 20
-4.629059756091768
 30
0.0
 10
5.747251548797723
 20
-4.629059756091768
 30
0.0
 10
5.747251548797723
 20
-4.629059756091768
 30
0.0
 10
5.74725152966097
 20
-6.024350197638569
 30
0.0
 10
5.74725152966097
 20
-6.024350197638569
 30
0.0
 10
5.747251528870771
 20
-6.081964407147451
 30
0.0
 10
5.699306952193208
 20
-6.128141720670808
 30
0.0
 10
5.641738796739976
 20
-6.125838545679421
 30
0.0
  0
ENDBLK
  5
93
330
90
100
AcDbEntity
  8
0
100
AcDbBlockEnd
  0
BLOCK
  5
98
330
96
100
AcDbEntity
  8
0
100
AcDbBlockBegin
  2
block 18
 70
     0
 10
0.0
 20
0.0
 30
0.0
  3
block 18
  1

  0
SPLINE
  5
9A
330
96
100
AcDbEntity
  8
Layer 2
 62
   240
420
 15539236
370
     5
100
AcDbSpline
210
0.0
220
0.0
230
1.0
 70
     8
 71
     3
 72
    20
 73
    16
 74
     0
 42
0.0000000001
 43
0.0000000001
 12
1.0
 22
0.0
 32
0.0
 13
1.0
 23
0.0
 33
0.0
 40
0.0
 40
0.0
 40
0.0
 40
0.0
 40
1.0
 40
1.0
 40
1.0
 40
2.0
 40
2.0
 40
2.0
 40
3.0
 40
3.0
 40
3.0
 40
4.0
 40
4.0
 40
4.0
 40
5.0
 40
5.0
 40
5.0
 40
5.0
 10
3.60626428689544
 20
-4.104252379470229
 30
0.0
 10
3.603961096442895
 20
-4.046683991183575
 30
0.0
 10
3.650138118386141
 20
-3.9987390333144
 30
0.0
 10
3.707752561160456
 20
-3.998739032582737
 30
0.0
 10
3.707752561160456
 20
-3.998739032582737
 30
0.0
 10
5.103043023729797
 20
-3.998739014864693
 30
0.0
 10
5.103043023729797
 20
-3.998739014864693
 30
0.0
 10
5.103043023729797
 20
-3.998739014864693
 30
0.0
 10
5.103043027646536
 20
-3.762518542512326
 30
0.0
 10
5.103043027646536
 20
-3.762518542512326
 30
0.0
 10
5.103043027646536
 20
-3.762518542512326
 30
0.0
 10
3.707752586099761
 20
-3.762518522937044
 30
0.0
 10
3.707752586099761
 20
-3.762518522937044
 30
0.0
 10
3.650138376590929
 20
-3.762518522128706
 30
0.0
 10
3.603961063082554
 20
-3.714573945436642
 30
0.0
 10
3.60626423809203
 20
-3.657005789984143
 30
0.0
  0
SPLINE
  5
9B
330
96
100
AcDbEntity
  8
Layer 2
 62
   240
420
 15539236
370
     5
100
AcDbSpline
210
0.0
220
0.0
230
1.0
 70
     8
 71
     3
 72
    20
 73
    16
 74
     0
 42
0.0000000001
 43
0.0000000001
 12
1.0
 22
0.0
 32
0.0
 13
1.0
 23
0.0
 33
0.0
 40
0.0
 40
0.0
 40
0.0
 40
0.0
 40
1.0
 40
1.0
 40
1.0
 40
2.0
 40
2.0
 40
2.0
 40
3.0
 40
3.0
 40
3.0
 40
4.0
 40
4.0
 40
4.0
 40
5.0
 40
5.0
 40
5.0
 40
5.0
 10
8.124460794501955
 20
-4.104252374190107
 30
0.0
 10
8.126763984951896
 20
-4.046683985903302
 30
0.0
 10
8.080586963006478
 20
-3.998739028036071
 30
0.0
 10
8.022972520232214
 20
-3.998739027307035
 30
0.0
 10
8.022972520232214
 20
-3.998739027307035
 30
0.0
 10
6.627682057662847
 20
-3.998739009651621
 30
0.0
 10
6.627682057662847
 20
-3.998739009651621
 30
0.0
 10
6.627682057662847
 20
-3.998739009651621
 30
0.0
 10
6.627682053735498
 20
-3.762518537299406
 30
0.0
 10
6.627682053735498
 20
-3.762518537299406
 30
0.0
 10
6.627682053735498
 20
-3.762518537299406
 30
0.0
 10
8.022972495282273
 20
-3.762518517661495
 30
0.0
 10
8.022972495282273
 20
-3.762518517661495
 30
0.0
 10
8.080586704791106
 20
-3.762518516850529
 30
0.0
 10
8.126764018297358
 20
-3.714573940156343
 30
0.0
 10
8.12446084328528
 20
-3.657005784703996
 30
0.0
  0
ENDBLK
  5
99
330
96
100
AcDbEntity
  8
0
100
AcDbBlockEnd
  0
BLOCK
  5
9F
330
9D
100
AcDbEntity
  8
0
100
AcDbBlockBegin
  2
block 19
 70
     0
 10
0.0
 20
0.0
 30
0.0
  3
block 19
  1

  0
SPLINE
  5
A1
330
9D
100
AcDbEntity
  8
Layer 2
 62
   240
420
 15539236
370
     5
100
AcDbSpline
210
0.0
220
0.0
230
1.0
 70
     8
 71
     3
 72
    20
 73
    16
 74
     0
 42
0.0000000001
 43
0.0000000001
 12
1.0
 22
0.0
 32
0.0
 13
1.0
 23
0.0
 33
0.0
 40
0.0
 40
0.0
 40
0.0
 40
0.0
 40
1.0
 40
1.0
 40
1.0
 40
2.0
 40
2.0
 40
2.0
 40
3.0
 40
3.0
 40
3.0
 40
4.0
 40
4.0
 40
4.0
 40
5.0
 40
5.0
 40
5.0
 40
5.0
 10
5.655628561989993
 20
-6.767364094774822
 30
0.0
 10
5.713196950276622
 20
-6.765060904319701
 30
0.0
 10
5.761141908147894
 20
-6.8112379262608
 30
0.0
 10
5.761141908882109
 20
-6.868852369035115
 30
0.0
 10
5.761141908882109
 20
-6.868852369035115
 30
0.0
 10
5.761141926662831
 20
-8.264142831604406
 30
0.0
 10
5.761141926662831
 20
-8.264142831604406
 30
0.0
 10
5.761141926662831
 20
-8.264142831604406
 30
0.0
 10
5.997362399015123
 20
-8.264142835510533
 30
0.0
 10
5.997362399015123
 20
-8.264142835510533
 30
0.0
 10
5.997362399015123
 20
-8.264142835510533
 30
0.0
 10
5.997362418527751
 20
-6.868852393963859
 30
0.0
 10
5.997362418527751
 20
-6.868852393963859
 30
0.0
 10
5.997362419333462
 20
-6.811238184454951
 30
0.0
 10
6.045306996023479
 20
-6.765060870944403
 30
0.0
 10
6.102875151476079
 20
-6.767364045951354
 30
0.0
  0
ENDBLK
  5
A0
330
9D
100
AcDbEntity
  8
0
100
AcDbBlockEnd
  0
BLOCK
  5
A5
330
A3
100
AcDbEntity
  8
0
100
AcDbBlockBegin
  2
block 20
 70
     0
 10
0.0
 20
0.0
 30
0.0
  3
block 20
  1

  0
INSERT
  5
A8
330
A3
100
AcDbEntity
  8
Layer 2
100
AcDbBlockReference
  2
block 21
 10
0.0
 20
0.0
 30
0.0
  0
INSERT
  5
B9
330
A3
100
AcDbEntity
  8
Layer 2
100
AcDbBlockReference
  2
block 24
 10
0.0
 20
0.0
 30
0.0
  0
INSERT
  5
CA
330
A3
100
AcDbEntity
  8
Layer 2
100
AcDbBlockReference
  2
block 27
 10
0.0
 20
0.0
 30
0.0
  0
SPLINE
  5
CE
330
A3
100
AcDbEntity
  8
Layer 2
 62
   240
420
 15539236
370
    35
100
AcDbSpline
210
0.0
220
0.0
230
1.0
 70
    11
 71
     3
 72
    14
 73
    10
 74
     0
 42
0.0000000001
 43
0.0000000001
 12
1.0
 22
0.0
 32
0.0
 13
1.0
 23
0.0
 33
0.0
 40
0.0
 40
0.0
 40
0.0
 40
0.0
 40
1.0
 40
1.0
 40
1.0
 40
2.0
 40
2.0
 40
2.0
 40
3.0
 40
3.0
 40
3.0
 40
3.0
 10
13.41358806468823
 20
-9.020833333333332
 30
0.0
 10
13.41358806468823
 20
-7.770833333333333
 30
0.0
 10
12.39690135069239
 20
-6.763888888888888
 30
0.0
 10
11.1427547313549
 20
-6.763888888888888
 30
0.0
 10
9.88860811201741
 20
-6.763888888888888
 30
0.0
 10
8.871921398021565
 20
-7.770833333333333
 30
0.0
 10
8.871921398021565
 20
-9.020833333333332
 30
0.0
 10
8.871921398021565
 20
-9.020833333333332
 30
0.0
 10
13.41358806468823
 20
-9.020833333333332
 30
0.0
 10
13.41358806468823
 20
-9.020833333333332
 30
0.0
  0
ENDBLK
  5
A6
330
A3
100
AcDbEntity
  8
0
100
AcDbBlockEnd
  0
BLOCK
  5
A9
330
A7
100
AcDbEntity
  8
0
100
AcDbBlockBegin
  2
block 21
 70
     0
 10
0.0
 20
0.0
 30
0.0
  3
block 21
  1

  0
INSERT
  5
AC
330
A7
100
AcDbEntity
  8
Layer 2
100
AcDbBlockReference
  2
block 22
 10
0.0
 20
0.0
 30
0.0
  0
INSERT
  5
B2
330
A7
100
AcDbEntity
  8
Layer 2
100
AcDbBlockReference
  2
block 23
 10
0.0
 20
0.0
 30
0.0
  0
SPLINE
  5
B7
330
A7
100
AcDbEntity
  8
Layer 2
 62
   240
420
 15539236
370
     5
100
AcDbSpline
210
0.0
220
0.0
230
1.0
 70
    11
 71
     3
 72
    17
 73
    13
 74
     0
 42
0.0000000001
 43
0.0000000001
 12
1.0
 22
0.0
 32
0.0
 13
1.0
 23
0.0
 33
0.0
 40
0.0
 40
0.0
 40
0.0
 40
0.0
 40
1.0
 40
1.0
 40
1.0
 40
2.0
 40
2.0
 40
2.0
 40
3.0
 40
3.0
 40
3.0
 40
4.0
 40
4.0
 40
4.0
 40
4.0
 10
13.3302547313549
 20
1.060555352105035
 30
0.0
 10
13.3302547313549
 20
-0.1859206457074581
 30
0.0
 10
12.31356801735905
 20
-1.19638909233941
 30
0.0
 10
11.05942139802156
 20
-1.19638909233941
 30
0.0
 10
9.805274778684078
 20
-1.19638909233941
 30
0.0
 10
8.78858806468823
 20
-0.1859206457074581
 30
0.0
 10
8.78858806468823
 20
1.060555352105035
 30
0.0
 10
8.78858806468823
 20
2.307031349917527
 30
0.0
 10
9.805274778684078
 20
3.317499796549479
 30
0.0
 10
11.05942139802156
 20
3.317499796549479
 30
0.0
 10
12.31356801735905
 20
3.317499796549479
 30
0.0
 10
13.3302547313549
 20
2.307031349917527
 30
0.0
 10
13.3302547313549
 20
1.060555352105035
 30
0.0
  0
ENDBLK
  5
AA
330
A7
100
AcDbEntity
  8
0
100
AcDbBlockEnd
  0
BLOCK
  5
AD
330
AB
100
AcDbEntity
  8
0
100
AcDbBlockBegin
  2
block 22
 70
     0
 10
0.0
 20
0.0
 30
0.0
  3
block 22
  1

  0
SPLINE
  5
AF
330
AB
100
AcDbEntity
  8
Layer 2
 62
   240
420
 15539236
370
     5
100
AcDbSpline
210
0.0
220
0.0
230
1.0
 70
     8
 71
     3
 72
    20
 73
    16
 74
     0
 42
0.0000000001
 43
0.0000000001
 12
1.0
 22
0.0
 32
0.0
 13
1.0
 23
0.0
 33
0.0
 40
0.0
 40
0.0
 40
0.0
 40
0.0
 40
1.0
 40
1.0
 40
1.0
 40
2.0
 40
2.0
 40
2.0
 40
3.0
 40
3.0
 40
3.0
 40
4.0
 40
4.0
 40
4.0
 40
5.0
 40
5.0
 40
5.0
 40
5.0
 10
10.83927053729864
 20
3.302080349669621
 30
0.0
 10
10.89683892558527
 20
3.304383540124768
 30
0.0
 10
10.94478388345654
 20
3.258206518183644
 30
0.0
 10
10.94478388419076
 20
3.200592075409329
 30
0.0
 10
10.94478388419076
 20
3.200592075409329
 30
0.0
 10
10.94478390197148
 20
1.805301612840038
 30
0.0
 10
10.94478390197148
 20
1.805301612840038
 30
0.0
 10
10.94478390197148
 20
1.805301612840038
 30
0.0
 10
11.18100437432377
 20
1.80530160893391
 30
0.0
 10
11.18100437432377
 20
1.80530160893391
 30
0.0
 10
11.18100437432377
 20
1.80530160893391
 30
0.0
 10
11.1810043938364
 20
3.200592050480584
 30
0.0
 10
11.1810043938364
 20
3.200592050480584
 30
0.0
 10
11.18100439464211
 20
3.258206259989493
 30
0.0
 10
11.22894897133213
 20
3.30438357350004
 30
0.0
 10
11.28651712678473
 20
3.302080398493091
 30
0.0
  0
SPLINE
  5
B0
330
AB
100
AcDbEntity
  8
Layer 2
 62
   240
420
 15539236
370
     5
100
AcDbSpline
210
0.0
220
0.0
230
1.0
 70
     8
 71
     3
 72
    20
 73
    16
 74
     0
 42
0.0000000001
 43
0.0000000001
 12
1.0
 22
0.0
 32
0.0
 13
1.0
 23
0.0
 33
0.0
 40
0.0
 40
0.0
 40
0.0
 40
0.0
 40
1.0
 40
1.0
 40
1.0
 40
2.0
 40
2.0
 40
2.0
 40
3.0
 40
3.0
 40
3.0
 40
4.0
 40
4.0
 40
4.0
 40
5.0
 40
5.0
 40
5.0
 40
5.0
 10
11.2865162504236
 20
-1.188338496735519
 30
0.0
 10
11.2289478621376
 20
-1.190641687206077
 30
0.0
 10
11.18100290425387
 20
-1.144464665277888
 30
0.0
 10
11.18100290350415
 20
-1.086850222503724
 30
0.0
 10
11.18100290350415
 20
-1.086850222503724
 30
0.0
 10
11.18100288534755
 20
0.308440240065718
 30
0.0
 10
11.18100288534755
 20
0.308440240065718
 30
0.0
 10
11.18100288534755
 20
0.308440240065718
 30
0.0
 10
10.94478241299526
 20
0.308440243908232
 30
0.0
 10
10.94478241299526
 20
0.308440243908232
 30
0.0
 10
10.94478241299526
 20
0.308440243908232
 30
0.0
 10
10.9447823938585
 20
-1.086850197638569
 30
0.0
 10
10.9447823938585
 20
-1.086850197638569
 30
0.0
 10
10.94478239306831
 20
-1.144464407147451
 30
0.0
 10
10.89683781639074
 20
-1.190641720670808
 30
0.0
 10
10.83926966093751
 20
-1.188338545679421
 30
0.0
  0
ENDBLK
  5
AE
330
AB
100
AcDbEntity
  8
0
100
AcDbBlockEnd
  0
BLOCK
  5
B3
330
B1
100
AcDbEntity
  8
0
100
AcDbBlockBegin
  2
block 23
 70
     0
 10
0.0
 20
0.0
 30
0.0
  3
block 23
  1

  0
SPLINE
  5
B5
330
B1
100
AcDbEntity
  8
Layer 2
 62
   240
420
 15539236
370
     5
100
AcDbSpline
210
0.0
220
0.0
230
1.0
 70
     8
 71
     3
 72
    20
 73
    16
 74
     0
 42
0.0000000001
 43
0.0000000001
 12
1.0
 22
0.0
 32
0.0
 13
1.0
 23
0.0
 33
0.0
 40
0.0
 40
0.0
 40
0.0
 40
0.0
 40
1.0
 40
1.0
 40
1.0
 40
2.0
 40
2.0
 40
2.0
 40
3.0
 40
3.0
 40
3.0
 40
4.0
 40
4.0
 40
4.0
 40
5.0
 40
5.0
 40
5.0
 40
5.0
 10
8.803795151092976
 20
0.8332476205297704
 30
0.0
 10
8.801491960640432
 20
0.8908160088164246
 30
0.0
 10
8.847668982583677
 20
0.9387609666856002
 30
0.0
 10
8.905283425357993
 20
0.9387609674172633
 30
0.0
 10
8.905283425357993
 20
0.9387609674172633
 30
0.0
 10
10.30057388792733
 20
0.9387609851353065
 30
0.0
 10
10.30057388792733
 20
0.9387609851353065
 30
0.0
 10
10.30057388792733
 20
0.9387609851353065
 30
0.0
 10
10.30057389184407
 20
1.174981457487674
 30
0.0
 10
10.30057389184407
 20
1.174981457487674
 30
0.0
 10
10.30057389184407
 20
1.174981457487674
 30
0.0
 10
8.905283450297297
 20
1.174981477062955
 30
0.0
 10
8.905283450297297
 20
1.174981477062955
 30
0.0
 10
8.847669240788466
 20
1.174981477871294
 30
0.0
 10
8.80149192728009
 20
1.222926054563358
 30
0.0
 10
8.803795102289566
 20
1.280494210015857
 30
0.0
  0
SPLINE
  5
B6
330
B1
100
AcDbEntity
  8
Layer 2
 62
   240
420
 15539236
370
     5
100
AcDbSpline
210
0.0
220
0.0
230
1.0
 70
     8
 71
     3
 72
    20
 73
    16
 74
     0
 42
0.0000000001
 43
0.0000000001
 12
1.0
 22
0.0
 32
0.0
 13
1.0
 23
0.0
 33
0.0
 40
0.0
 40
0.0
 40
0.0
 40
0.0
 40
1.0
 40
1.0
 40
1.0
 40
2.0
 40
2.0
 40
2.0
 40
3.0
 40
3.0
 40
3.0
 40
4.0
 40
4.0
 40
4.0
 40
5.0
 40
5.0
 40
5.0
 40
5.0
 10
13.32199165869949
 20
0.8332476258098924
 30
0.0
 10
13.32429484914943
 20
0.8908160140966982
 30
0.0
 10
13.27811782720404
 20
0.9387609719639284
 30
0.0
 10
13.22050338442975
 20
0.9387609726929642
 30
0.0
 10
13.22050338442975
 20
0.9387609726929642
 30
0.0
 10
11.82521292186038
 20
0.9387609903483786
 30
0.0
 10
11.82521292186038
 20
0.9387609903483786
 30
0.0
 10
11.82521292186038
 20
0.9387609903483786
 30
0.0
 10
11.82521291793303
 20
1.174981462700594
 30
0.0
 10
11.82521291793303
 20
1.174981462700594
 30
0.0
 10
11.82521291793303
 20
1.174981462700594
 30
0.0
 10
13.22050335947981
 20
1.174981482338505
 30
0.0
 10
13.22050335947981
 20
1.174981482338505
 30
0.0
 10
13.27811756898864
 20
1.174981483149471
 30
0.0
 10
13.3242948824949
 20
1.222926059843657
 30
0.0
 10
13.32199170748282
 20
1.280494215296004
 30
0.0
  0
ENDBLK
  5
B4
330
B1
100
AcDbEntity
  8
0
100
AcDbBlockEnd
  0
BLOCK
  5
BA
330
B8
100
AcDbEntity
  8
0
100
AcDbBlockBegin
  2
block 24
 70
     0
 10
0.0
 20
0.0
 30
0.0
  3
block 24
  1

  0
INSERT
  5
BD
330
B8
100
AcDbEntity
  8
Layer 2
100
AcDbBlockReference
  2
block 25
 10
0.0
 20
0.0
 30
0.0
  0
INSERT
  5
C3
330
B8
100
AcDbEntity
  8
Layer 2
100
AcDbBlockReference
  2
block 26
 10
0.0
 20
0.0
 30
0.0
  0
SPLINE
  5
C8
330
B8
100
AcDbEntity
  8
Layer 2
 62
   240
420
 15539236
370
     5
100
AcDbSpline
210
0.0
220
0.0
230
1.0
 70
    11
 71
     3
 72
    17
 73
    13
 74
     0
 42
0.0000000001
 43
0.0000000001
 12
1.0
 22
0.0
 32
0.0
 13
1.0
 23
0.0
 33
0.0
 40
0.0
 40
0.0
 40
0.0
 40
0.0
 40
1.0
 40
1.0
 40
1.0
 40
2.0
 40
2.0
 40
2.0
 40
3.0
 40
3.0
 40
3.0
 40
4.0
 40
4.0
 40
4.0
 40
4.0
 10
13.39969917579934
 20
-3.883889092339409
 30
0.0
 10
13.39969917579934
 20
-5.130365090151902
 30
0.0
 10
12.3830124618035
 20
-6.140833536783854
 30
0.0
 10
11.12886584246601
 20
-6.140833536783854
 30
0.0
 10
9.874719223128523
 20
-6.140833536783854
 30
0.0
 10
8.858032509132675
 20
-5.130365090151902
 30
0.0
 10
8.858032509132675
 20
-3.883889092339409
 30
0.0
 10
8.858032509132675
 20
-2.637413094526917
 30
0.0
 10
9.874719223128523
 20
-1.626944647894965
 30
0.0
 10
11.12886584246601
 20
-1.626944647894965
 30
0.0
 10
12.3830124618035
 20
-1.626944647894965
 30
0.0
 10
13.39969917579934
 20
-2.637413094526917
 30
0.0
 10
13.39969917579934
 20
-3.883889092339409
 30
0.0
  0
ENDBLK
  5
BB
330
B8
100
AcDbEntity
  8
0
100
AcDbBlockEnd
  0
BLOCK
  5
BE
330
BC
100
AcDbEntity
  8
0
100
AcDbBlockBegin
  2
block 25
 70
     0
 10
0.0
 20
0.0
 30
0.0
  3
block 25
  1

  0
SPLINE
  5
C0
330
BC
100
AcDbEntity
  8
Layer 2
 62
   240
420
 15539236
370
     5
100
AcDbSpline
210
0.0
220
0.0
230
1.0
 70
     8
 71
     3
 72
    20
 73
    16
 74
     0
 42
0.0000000001
 43
0.0000000001
 12
1.0
 22
0.0
 32
0.0
 13
1.0
 23
0.0
 33
0.0
 40
0.0
 40
0.0
 40
0.0
 40
0.0
 40
1.0
 40
1.0
 40
1.0
 40
2.0
 40
2.0
 40
2.0
 40
3.0
 40
3.0
 40
3.0
 40
4.0
 40
4.0
 40
4.0
 40
5.0
 40
5.0
 40
5.0
 40
5.0
 10
10.90871498174308
 20
-1.635419650330378
 30
0.0
 10
10.96628337002971
 20
-1.633116459875257
 30
0.0
 10
11.01422832790099
 20
-1.679293481816355
 30
0.0
 10
11.0142283286352
 20
-1.736907924590671
 30
0.0
 10
11.0142283286352
 20
-1.736907924590671
 30
0.0
 10
11.01422834641592
 20
-3.132198387159961
 30
0.0
 10
11.01422834641592
 20
-3.132198387159961
 30
0.0
 10
11.01422834641592
 20
-3.132198387159961
 30
0.0
 10
11.25044881876821
 20
-3.13219839106609
 30
0.0
 10
11.25044881876821
 20
-3.13219839106609
 30
0.0
 10
11.25044881876821
 20
-3.13219839106609
 30
0.0
 10
11.25044883828084
 20
-1.736907949519415
 30
0.0
 10
11.25044883828084
 20
-1.736907949519415
 30
0.0
 10
11.25044883908655
 20
-1.679293740010507
 30
0.0
 10
11.29839341577657
 20
-1.633116426499959
 30
0.0
 10
11.35596157122917
 20
-1.635419601506909
 30
0.0
  0
SPLINE
  5
C1
330
BC
100
AcDbEntity
  8
Layer 2
 62
   240
420
 15539236
370
     5
100
AcDbSpline
210
0.0
220
0.0
230
1.0
 70
     8
 71
     3
 72
    20
 73
    16
 74
     0
 42
0.0000000001
 43
0.0000000001
 12
1.0
 22
0.0
 32
0.0
 13
1.0
 23
0.0
 33
0.0
 40
0.0
 40
0.0
 40
0.0
 40
0.0
 40
1.0
 40
1.0
 40
1.0
 40
2.0
 40
2.0
 40
2.0
 40
3.0
 40
3.0
 40
3.0
 40
4.0
 40
4.0
 40
4.0
 40
5.0
 40
5.0
 40
5.0
 40
5.0
 10
11.35596069486804
 20
-6.125838496735519
 30
0.0
 10
11.29839230658205
 20
-6.128141687206076
 30
0.0
 10
11.25044734869832
 20
-6.081964665277888
 30
0.0
 10
11.25044734794859
 20
-6.024350222503724
 30
0.0
 10
11.25044734794859
 20
-6.024350222503724
 30
0.0
 10
11.250447329792
 20
-4.629059759934282
 30
0.0
 10
11.250447329792
 20
-4.629059759934282
 30
0.0
 10
11.250447329792
 20
-4.629059759934282
 30
0.0
 10
11.0142268574397
 20
-4.629059756091768
 30
0.0
 10
11.0142268574397
 20
-4.629059756091768
 30
0.0
 10
11.0142268574397
 20
-4.629059756091768
 30
0.0
 10
11.01422683830295
 20
-6.024350197638569
 30
0.0
 10
11.01422683830295
 20
-6.024350197638569
 30
0.0
 10
11.01422683751275
 20
-6.081964407147451
 30
0.0
 10
10.96628226083519
 20
-6.128141720670808
 30
0.0
 10
10.90871410538196
 20
-6.125838545679421
 30
0.0
  0
ENDBLK
  5
BF
330
BC
100
AcDbEntity
  8
0
100
AcDbBlockEnd
  0
BLOCK
  5
C4
330
C2
100
AcDbEntity
  8
0
100
AcDbBlockBegin
  2
block 26
 70
     0
 10
0.0
 20
0.0
 30
0.0
  3
block 26
  1

  0
SPLINE
  5
C6
330
C2
100
AcDbEntity
  8
Layer 2
 62
   240
420
 15539236
370
     5
100
AcDbSpline
210
0.0
220
0.0
230
1.0
 70
     8
 71
     3
 72
    20
 73
    16
 74
     0
 42
0.0000000001
 43
0.0000000001
 12
1.0
 22
0.0
 32
0.0
 13
1.0
 23
0.0
 33
0.0
 40
0.0
 40
0.0
 40
0.0
 40
0.0
 40
1.0
 40
1.0
 40
1.0
 40
2.0
 40
2.0
 40
2.0
 40
3.0
 40
3.0
 40
3.0
 40
4.0
 40
4.0
 40
4.0
 40
5.0
 40
5.0
 40
5.0
 40
5.0
 10
8.87323959553742
 20
-4.104252379470229
 30
0.0
 10
8.870936405084876
 20
-4.046683991183575
 30
0.0
 10
8.917113427028122
 20
-3.9987390333144
 30
0.0
 10
8.974727869802438
 20
-3.998739032582737
 30
0.0
 10
8.974727869802438
 20
-3.998739032582737
 30
0.0
 10
10.37001833237178
 20
-3.998739014864693
 30
0.0
 10
10.37001833237178
 20
-3.998739014864693
 30
0.0
 10
10.37001833237178
 20
-3.998739014864693
 30
0.0
 10
10.37001833628852
 20
-3.762518542512326
 30
0.0
 10
10.37001833628852
 20
-3.762518542512326
 30
0.0
 10
10.37001833628852
 20
-3.762518542512326
 30
0.0
 10
8.974727894741742
 20
-3.762518522937044
 30
0.0
 10
8.974727894741742
 20
-3.762518522937044
 30
0.0
 10
8.91711368523291
 20
-3.762518522128706
 30
0.0
 10
8.870936371724534
 20
-3.714573945436642
 30
0.0
 10
8.87323954673401
 20
-3.657005789984143
 30
0.0
  0
SPLINE
  5
C7
330
C2
100
AcDbEntity
  8
Layer 2
 62
   240
420
 15539236
370
     5
100
AcDbSpline
210
0.0
220
0.0
230
1.0
 70
     8
 71
     3
 72
    20
 73
    16
 74
     0
 42
0.0000000001
 43
0.0000000001
 12
1.0
 22
0.0
 32
0.0
 13
1.0
 23
0.0
 33
0.0
 40
0.0
 40
0.0
 40
0.0
 40
0.0
 40
1.0
 40
1.0
 40
1.0
 40
2.0
 40
2.0
 40
2.0
 40
3.0
 40
3.0
 40
3.0
 40
4.0
 40
4.0
 40
4.0
 40
5.0
 40
5.0
 40
5.0
 40
5.0
 10
13.39143610314393
 20
-4.104252374190107
 30
0.0
 10
13.39373929359388
 20
-4.046683985903302
 30
0.0
 10
13.34756227164848
 20
-3.998739028036071
 30
0.0
 10
13.28994782887419
 20
-3.998739027307035
 30
0.0
 10
13.28994782887419
 20
-3.998739027307035
 30
0.0
 10
11.89465736630483
 20
-3.998739009651621
 30
0.0
 10
11.89465736630483
 20
-3.998739009651621
 30
0.0
 10
11.89465736630483
 20
-3.998739009651621
 30
0.0
 10
11.89465736237748
 20
-3.762518537299406
 30
0.0
 10
11.89465736237748
 20
-3.762518537299406
 30
0.0
 10
11.89465736237748
 20
-3.762518537299406
 30
0.0
 10
13.28994780392425
 20
-3.762518517661495
 30
0.0
 10
13.28994780392425
 20
-3.762518517661495
 30
0.0
 10
13.34756201343309
 20
-3.762518516850529
 30
0.0
 10
13.39373932693934
 20
-3.714573940156343
 30
0.0
 10
13.39143615192726
 20
-3.657005784703996
 30
0.0
  0
ENDBLK
  5
C5
330
C2
100
AcDbEntity
  8
0
100
AcDbBlockEnd
  0
BLOCK
  5
CB
330
C9
100
AcDbEntity
  8
0
100
AcDbBlockBegin
  2
block 27
 70
     0
 10
0.0
 20
0.0
 30
0.0
  3
block 27
  1

  0
SPLINE
  5
CD
330
C9
100
AcDbEntity
  8
Layer 2
 62
   240
420
 15539236
370
     5
100
AcDbSpline
210
0.0
220
0.0
230
1.0
 70
     8
 71
     3
 72
    20
 73
    16
 74
     0
 42
0.0000000001
 43
0.0000000001
 12
1.0
 22
0.0
 32
0.0
 13
1.0
 23
0.0
 33
0.0
 40
0.0
 40
0.0
 40
0.0
 40
0.0
 40
1.0
 40
1.0
 40
1.0
 40
2.0
 40
2.0
 40
2.0
 40
3.0
 40
3.0
 40
3.0
 40
4.0
 40
4.0
 40
4.0
 40
5.0
 40
5.0
 40
5.0
 40
5.0
 10
10.92260387063197
 20
-6.767364094774822
 30
0.0
 10
10.9801722589186
 20
-6.765060904319701
 30
0.0
 10
11.02811721678987
 20
-6.8112379262608
 30
0.0
 10
11.02811721752409
 20
-6.868852369035115
 30
0.0
 10
11.02811721752409
 20
-6.868852369035115
 30
0.0
 10
11.02811723530481
 20
-8.264142831604406
 30
0.0
 10
11.02811723530481
 20
-8.264142831604406
 30
0.0
 10
11.02811723530481
 20
-8.264142831604406
 30
0.0
 10
11.2643377076571
 20
-8.264142835510533
 30
0.0
 10
11.2643377076571
 20
-8.264142835510533
 30
0.0
 10
11.2643377076571
 20
-8.264142835510533
 30
0.0
 10
11.26433772716973
 20
-6.868852393963859
 30
0.0
 10
11.26433772716973
 20
-6.868852393963859
 30
0.0
 10
11.26433772797544
 20
-6.811238184454951
 30
0.0
 10
11.31228230466546
 20
-6.765060870944403
 30
0.0
 10
11.36985046011806
 20
-6.767364045951354
 30
0.0
  0
ENDBLK
  5
CC
330
C9
100
AcDbEntity
  8
0
100
AcDbBlockEnd
  0
BLOCK
  5
D1
330
CF
100
AcDbEntity
  8
0
100
AcDbBlockBegin
  2
block 28
 70
     0
 10
0.0
 20
0.0
 30
0.0
  3
block 28
  1

  0
INSERT
  5
D4
330
CF
100
AcDbEntity
  8
Layer 2
100
AcDbBlockReference
  2
block 29
 10
0.0
 20
0.0
 30
0.0
  0
SPLINE
  5
D8
330
CF
100
AcDbEntity
  8
Layer 2
 62
   240
420
 15539236
370
    35
100
AcDbSpline
210
0.0
220
0.0
230
1.0
 70
    11
 71
     3
 72
    14
 73
    10
 74
     0
 42
0.0000000001
 43
0.0000000001
 12
1.0
 22
0.0
 32
0.0
 13
1.0
 23
0.0
 33
0.0
 40
0.0
 40
0.0
 40
0.0
 40
0.0
 40
1.0
 40
1.0
 40
1.0
 40
2.0
 40
2.0
 40
2.0
 40
3.0
 40
3.0
 40
3.0
 40
3.0
 10
8.90895843495726
 20
-9.340277777777777
 30
0.0
 10
8.908958435069508
 20
-10.59027777777778
 30
0.0
 10
9.925645149155747
 20
-11.59722222233482
 30
0.0
 10
11.17979176849326
 20
-11.59722222222222
 30
0.0
 10
12.43393838783072
 20
-11.5972222221096
 30
0.0
 10
13.45062510173617
 20
-10.59027777777778
 30
0.0
 10
13.45062510162393
 20
-9.340277777777777
 30
0.0
 10
13.45062510162393
 20
-9.340277777777777
 30
0.0
 10
8.90895843495726
 20
-9.340277777777777
 30
0.0
 10
8.90895843495726
 20
-9.340277777777777
 30
0.0
  0
ENDBLK
  5
D2
330
CF
100
AcDbEntity
  8
0
100
AcDbBlockEnd
  0
BLOCK
  5
D5
330
D3
100
AcDbEntity
  8
0
100
AcDbBlockBegin
  2
block 29
 70
     0
 10
0.0
 20
0.0
 30
0.0
  3
block 29
  1

  0
SPLINE
  5
D7
330
D3
100
AcDbEntity
  8
Layer 2
 62
   240
420
 15539236
370
     5
100
AcDbSpline
210
0.0
220
0.0
230
1.0
 70
     8
 71
     3
 72
    20
 73
    16
 74
     0
 42
0.0000000001
 43
0.0000000001
 12
1.0
 22
0.0
 32
0.0
 13
1.0
 23
0.0
 33
0.0
 40
0.0
 40
0.0
 40
0.0
 40
0.0
 40
1.0
 40
1.0
 40
1.0
 40
2.0
 40
2.0
 40
2.0
 40
3.0
 40
3.0
 40
3.0
 40
4.0
 40
4.0
 40
4.0
 40
5.0
 40
5.0
 40
5.0
 40
5.0
 10
11.39994262921583
 20
-11.58680257139912
 30
0.0
 10
11.34237424092945
 20
-11.58910576185943
 30
0.0
 10
11.29442928305401
 20
-11.54292873992265
 30
0.0
 10
11.29442928231462
 20
-11.48531429714831
 30
0.0
 10
11.29442928231462
 20
-11.48531429714831
 30
0.0
 10
11.29442926440861
 20
-10.09002383457902
 30
0.0
 10
11.29442926440861
 20
-10.09002383457902
 30
0.0
 10
11.29442926440861
 20
-10.09002383457902
 30
0.0
 10
11.05820879205635
 20
-10.09002383069411
 30
0.0
 10
11.05820879205635
 20
-10.09002383069411
 30
0.0
 10
11.05820879205635
 20
-10.09002383069411
 30
0.0
 10
11.05820877266898
 20
-11.48531427224078
 30
0.0
 10
11.05820877266898
 20
-11.48531427224078
 30
0.0
 10
11.05820877186845
 20
-11.54292848174969
 30
0.0
 10
11.0102641951826
 20
-11.58910579526456
 30
0.0
 10
10.95269603972974
 20
-11.58680262026276
 30
0.0
  0
ENDBLK
  5
D6
330
D3
100
AcDbEntity
  8
0
100
AcDbBlockEnd
  0
BLOCK
  5
DB
330
D9
100
AcDbEntity
  8
0
100
AcDbBlockBegin
  2
block 30
 70
     0
 10
0.0
 20
0.0
 30
0.0
  3
block 30
  1

  0
INSERT
  5
DE
330
D9
100
AcDbEntity
  8
Layer 2
100
AcDbBlockReference
  2
block 31
 10
0.0
 20
0.0
 30
0.0
  0
SPLINE
  5
E2
330
D9
100
AcDbEntity
  8
Layer 2
 62
   240
420
 15539236
370
    35
100
AcDbSpline
210
0.0
220
0.0
230
1.0
 70
    11
 71
     3
 72
    14
 73
    10
 74
     0
 42
0.0000000001
 43
0.0000000001
 12
1.0
 22
0.0
 32
0.0
 13
1.0
 23
0.0
 33
0.0
 40
0.0
 40
0.0
 40
0.0
 40
0.0
 40
1.0
 40
1.0
 40
1.0
 40
2.0
 40
2.0
 40
2.0
 40
3.0
 40
3.0
 40
3.0
 40
3.0
 10
3.64198312631528
 20
-9.340277777777777
 30
0.0
 10
3.641983126427526
 20
-10.59027777777778
 30
0.0
 10
4.658669840513792
 20
-11.59722222233485
 30
0.0
 10
5.912816459851279
 20
-11.59722222222222
 30
0.0
 10
7.166963079188766
 20
-11.5972222221096
 30
0.0
 10
8.183649793094194
 20
-10.59027777777778
 30
0.0
 10
8.183649792981946
 20
-9.340277777777777
 30
0.0
 10
8.183649792981946
 20
-9.340277777777777
 30
0.0
 10
3.64198312631528
 20
-9.340277777777777
 30
0.0
 10
3.64198312631528
 20
-9.340277777777777
 30
0.0
  0
ENDBLK
  5
DC
330
D9
100
AcDbEntity
  8
0
100
AcDbBlockEnd
  0
BLOCK
  5
DF
330
DD
100
AcDbEntity
  8
0
100
AcDbBlockBegin
  2
block 31
 70
     0
 10
0.0
 20
0.0
 30
0.0
  3
block 31
  1

  0
SPLINE
  5
E1
330
DD
100
AcDbEntity
  8
Layer 2
 62
   240
420
 15539236
370
     5
100
AcDbSpline
210
0.0
220
0.0
230
1.0
 70
     8
 71
     3
 72
    20
 73
    16
 74
     0
 42
0.0000000001
 43
0.0000000001
 12
1.0
 22
0.0
 32
0.0
 13
1.0
 23
0.0
 33
0.0
 40
0.0
 40
0.0
 40
0.0
 40
0.0
 40
1.0
 40
1.0
 40
1.0
 40
2.0
 40
2.0
 40
2.0
 40
3.0
 40
3.0
 40
3.0
 40
4.0
 40
4.0
 40
4.0
 40
5.0
 40
5.0
 40
5.0
 40
5.0
 10
6.1329673205739
 20
-11.58680257187209
 30
0.0
 10
6.075398932287448
 20
-11.58910576233236
 30
0.0
 10
6.027453974412057
 20
-11.54292874039558
 30
0.0
 10
6.027453973672664
 20
-11.48531429762127
 30
0.0
 10
6.027453973672664
 20
-11.48531429762127
 30
0.0
 10
6.027453955766658
 20
-10.09002383505198
 30
0.0
 10
6.027453955766658
 20
-10.09002383505198
 30
0.0
 10
6.027453955766658
 20
-10.09002383505198
 30
0.0
 10
5.791233483414354
 20
-10.09002383116705
 30
0.0
 10
5.791233483414354
 20
-10.09002383116705
 30
0.0
 10
5.791233483414354
 20
-10.09002383116705
 30
0.0
 10
5.791233464027022
 20
-11.48531427271372
 30
0.0
 10
5.791233464027022
 20
-11.48531427271372
 30
0.0
 10
5.791233463226477
 20
-11.54292848222263
 30
0.0
 10
5.743288886540603
 20
-11.5891057957375
 30
0.0
 10
5.685720731087801
 20
-11.5868026207357
 30
0.0
  0
ENDBLK
  5
E0
330
DD
100
AcDbEntity
  8
0
100
AcDbBlockEnd
  0
ENDSEC
  0
SECTION
  2
ENTITIES
  0
INSERT
  5
42
330
1F
100
AcDbEntity
  8
Layer 2
100
AcDbBlockReference
  2
block 2
 10
0.0
 20
0.0
 30
0.0
  0
INSERT
  5
4C
330
1F
100
AcDbEntity
  8
Layer 2
100
AcDbBlockReference
  2
block 4
 10
0.0
 20
0.0
 30
0.0
  0
INSERT
  5
78
330
1F
100
AcDbEntity
  8
Layer 2
100
AcDbBlockReference
  2
block 12
 10
0.0
 20
0.0
 30
0.0
  0
INSERT
  5
A4
330
1F
100
AcDbEntity
  8
Layer 2
100
AcDbBlockReference
  2
block 20
 10
0.0
 20
0.0
 30
0.0
  0
INSERT
  5
D0
330
1F
100
AcDbEntity
  8
Layer 2
100
AcDbBlockReference
  2
block 28
 10
0.0
 20
0.0
 30
0.0
  0
INSERT
  5
DA
330
1F
100
AcDbEntity
  8
Layer 2
100
AcDbBlockReference
  2
block 30
 10
0.0
 20
0.0
 30
0.0
  0
ENDSEC
  0
SECTION
  2
OBJECTS
  0
DICTIONARY
  5
C
330
0
100
AcDbDictionary
281
     1
  3
ACAD_GROUP
350
D
  3
ACAD_LAYOUT
350
1A
  3
ACAD_MATERIAL
350
3B
  3
ACAD_MLEADERSTYLE
350
E4
  3
ACAD_MLINESTYLE
350
17
  3
ACAD_PLOTSETTINGS
350
19
  3
ACAD_PLOTSTYLENAME
350
E
  3
ACAD_TABLESTYLE
350
E3
  3
ACAD_VISUALSTYLE
350
2A
  0
SUN
  5
3F
330
29
100
AcDbSun
 90
        1
290
     0
 63
     7
421
 16777215
 40
1.0
291
     1
 91
  2455826
 92
 54000000
292
     0
 70
     2
 71
   256
280
     1
  0
DICTIONARY
  5
D
102
{ACAD_REACTORS
330
C
102
}
330
C
100
AcDbDictionary
281
     1
  0
DICTIONARY
  5
1A
102
{ACAD_REACTORS
330
C
102
}
330
C
100
AcDbDictionary
281
     1
  3
Layout1
350
1E
  3
Layout2
350
26
  3
Model
350
22
  0
DICTIONARY
  5
3B
102
{ACAD_REACTORS
330
C
102
}
330
C
100
AcDbDictionary
281
     1
  3
ByBlock
350
3D
  3
ByLayer
350
3C
  3
Global
350
3E
  0
DICTIONARY
  5
E4
102
{ACAD_REACTORS
330
C
102
}
330
C
100
AcDbDictionary
281
     1
  0
DICTIONARY
  5
17
102
{ACAD_REACTORS
330
C
102
}
330
C
100
AcDbDictionary
281
     1
  3
Standard
350
18
  0
DICTIONARY
  5
19
102
{ACAD_REACTORS
330
C
102
}
330
C
100
AcDbDictionary
281
     1
  0
ACDBDICTIONARYWDFLT
  5
E
102
{ACAD_REACTORS
330
C
102
}
330
C
100
AcDbDictionary
281
     1
  3
Normal
350
F
100
AcDbDictionaryWithDefault
340
F
  0
DICTIONARY
  5
E3
102
{ACAD_REACTORS
330
C
102
}
330
C
100
AcDbDictionary
281
     1
  0
DICTIONARY
  5
2A
102
{ACAD_REACTORS
330
C
102
}
330
C
100
AcDbDictionary
281
     1
  3
2dWireframe
350
2F
  3
3D Hidden
350
31
  3
3dWireframe
350
30
  3
Basic
350
32
  3
Brighten
350
36
  3
ColorChange
350
3A
  3
Conceptual
350
34
  3
Dim
350
35
  3
Facepattern
350
39
  3
Flat
350
2B
  3
FlatWithEdges
350
2C
  3
Gouraud
350
2D
  3
GouraudWithEdges
350
2E
  3
Linepattern
350
38
  3
Realistic
350
33
  3
Thicken
350
37
  0
LAYOUT
  5
1E
102
{ACAD_REACTORS
330
1A
102
}
330
1A
100
AcDbPlotSettings
  1

  2
none_device
  4

  6

 40
0.0
 41
0.0
 42
0.0
 43
0.0
 44
0.0
 45
0.0
 46
0.0
 47
0.0
 48
0.0
 49
0.0
140
0.0
141
0.0
142
1.0
143
1.0
 70
   688
 72
     0
 73
     0
 74
     5
  7

 75
    16
 76
     0
 77
     2
 78
   300
147
1.0
148
0.0
149
0.0
100
AcDbLayout
  1
Layout1
 70
     1
 71
     1
 10
0.0
 20
0.0
 11
12.0
 21
9.0
 12
0.0
 22
0.0
 32
0.0
 14
1.000000000000000E+20
 24
1.000000000000000E+20
 34
1.000000000000000E+20
 15
-1.000000000000000E+20
 25
-1.000000000000000E+20
 35
-1.000000000000000E+20
146
0.0
 13
0.0
 23
0.0
 33
0.0
 16
1.0
 26
0.0
 36
0.0
 17
0.0
 27
1.0
 37
0.0
 76
     0
330
1B
  0
LAYOUT
  5
26
102
{ACAD_REACTORS
330
1A
102
}
330
1A
100
AcDbPlotSettings
  1

  2
none_device
  4

  6

 40
0.0
 41
0.0
 42
0.0
 43
0.0
 44
0.0
 45
0.0
 46
0.0
 47
0.0
 48
0.0
 49
0.0
140
0.0
141
0.0
142
1.0
143
1.0
 70
   688
 72
     0
 73
     0
 74
     5
  7

 75
    16
 76
     0
 77
     2
 78
   300
147
1.0
148
0.0
149
0.0
100
AcDbLayout
  1
Layout2
 70
     1
 71
     2
 10
0.0
 20
0.0
 11
0.0
 21
0.0
 12
0.0
 22
0.0
 32
0.0
 14
0.0
 24
0.0
 34
0.0
 15
0.0
 25
0.0
 35
0.0
146
0.0
 13
0.0
 23
0.0
 33
0.0
 16
1.0
 26
0.0
 36
0.0
 17
0.0
 27
1.0
 37
0.0
 76
     0
330
23
  0
LAYOUT
  5
22
102
{ACAD_REACTORS
330
1A
102
}
330
1A
100
AcDbPlotSettings
  1

  2
none_device
  4

  6

 40
0.0
 41
0.0
 42
0.0
 43
0.0
 44
0.0
 45
0.0
 46
0.0
 47
0.0
 48
0.0
 49
0.0
140
0.0
141
0.0
142
1.0
143
1.0
 70
  1712
 72
     0
 73
     0
 74
     0
  7

 75
     0
 76
     0
 77
     2
 78
   300
147
1.0
148
0.0
149
0.0
100
AcDbLayout
  1
Model
 70
     1
 71
     0
 10
0.0
 20
0.0
 11
12.0
 21
9.0
 12
0.0
 22
0.0
 32
0.0
 14
1.000000000000000E+20
 24
1.000000000000000E+20
 34
1.000000000000000E+20
 15
-1.000000000000000E+20
 25
-1.000000000000000E+20
 35
-1.000000000000000E+20
146
0.0
 13
0.0
 23
0.0
 33
0.0
 16
1.0
 26
0.0
 36
0.0
 17
0.0
 27
1.0
 37
0.0
 76
     0
330
1F
331
29
  0
MATERIAL
  5
3D
102
{ACAD_REACTORS
330
3B
102
}
330
3B
100
AcDbMaterial
  1
ByBlock
 72
     1
 94
      127
  0
MATERIAL
  5
3C
102
{ACAD_REACTORS
330
3B
102
}
330
3B
100
AcDbMaterial
  1
ByLayer
 72
     1
 94
      127
  0
MATERIAL
  5
3E
102
{ACAD_REACTORS
330
3B
102
}
330
3B
100
AcDbMaterial
  1
Global
 72
     1
 94
      127
  0
MLINESTYLE
  5
18
102
{ACAD_REACTORS
330
17
102
}
330
17
100
AcDbMlineStyle
  2
Standard
 70
     0
  3

 62
   256
 51
90.0
 52
90.0
 71
     2
 49
0.5
 62
   256
  6
BYLAYER
 49
-0.5
 62
   256
  6
BYLAYER
  0
ACDBPLACEHOLDER
  5
F
102
{ACAD_REACTORS
330
E
102
}
330
E
  0
VISUALSTYLE
  5
2F
102
{ACAD_REACTORS
330
2A
102
}
330
2A
100
AcDbVisualStyle
  2
2dWireframe
 70
     4
177
     2
291
     0
 71
     0
176
     1
 72
     2
176
     1
 73
     0
176
     1
 90
        0
176
     1
 40
-0.6
176
     1
 41
-30.0
176
     1
 62
     5
 63
     7
421
 16777215
176
     1
 74
     1
176
     1
 91
        4
176
     1
 64
     7
176
     1
 65
   257
176
     1
 75
     1
176
     1
175
     1
176
     1
 42
1.0
176
     1
 92
        0
176
     1
 66
   257
176
     1
 43
1.0
176
     1
 76
     1
176
     1
 77
     6
176
     1
 78
     2
176
     1
 67
     7
176
     1
 79
     5
176
     1
170
     0
176
     1
171
     0
176
     1
290
     0
176
     1
 93
        1
176
     1
 44
0.0
176
     1
173
     0
176
     1
  0
VISUALSTYLE
  5
31
102
{ACAD_REACTORS
330
2A
102
}
330
2A
100
AcDbVisualStyle
  2
3D Hidden
 70
     6
177
     2
291
     0
 71
     1
176
     1
 72
     2
176
     1
 73
     2
176
     1
 90
        0
176
     1
 40
-0.6
176
     1
 41
-30.0
176
     1
 62
     5
 63
     7
421
 16777215
176
     1
 74
     2
176
     1
 91
        2
176
     1
 64
     7
176
     1
 65
   257
176
     1
 75
     2
176
     1
175
     1
176
     1
 42
40.0
176
     1
 92
        0
176
     1
 66
   257
176
     1
 43
1.0
176
     1
 76
     1
176
     1
 77
     6
176
     1
 78
     2
176
     1
 67
     7
176
     1
 79
     3
176
     1
170
     0
176
     1
171
     0
176
     1
290
     0
176
     1
 93
        1
176
     1
 44
0.0
176
     1
173
     0
176
     1
  0
VISUALSTYLE
  5
30
102
{ACAD_REACTORS
330
2A
102
}
330
2A
100
AcDbVisualStyle
  2
3dWireframe
 70
     5
177
     2
291
     0
 71
     0
176
     1
 72
     2
176
     1
 73
     0
176
     1
 90
        0
176
     1
 40
-0.6
176
     1
 41
-30.0
176
     1
 62
     5
 63
     7
421
 16777215
176
     1
 74
     1
176
     1
 91
        4
176
     1
 64
     7
176
     1
 65
   257
176
     1
 75
     1
176
     1
175
     1
176
     1
 42
1.0
176
     1
 92
        0
176
     1
 66
   257
176
     1
 43
1.0
176
     1
 76
     1
176
     1
 77
     6
176
     1
 78
     2
176
     1
 67
     7
176
     1
 79
     5
176
     1
170
     0
176
     1
171
     0
176
     1
290
     0
176
     1
 93
        1
176
     1
 44
0.0
176
     1
173
     0
176
     1
  0
VISUALSTYLE
  5
32
102
{ACAD_REACTORS
330
2A
102
}
330
2A
100
AcDbVisualStyle
  2
Basic
 70
     7
177
     2
291
     1
 71
     1
176
     1
 72
     0
176
     1
 73
     1
176
     1
 90
        0
176
     1
 40
-0.6
176
     1
 41
-30.0
176
     1
 62
     5
 63
     7
421
 16777215
176
     1
 74
     0
176
     1
 91
        4
176
     1
 64
     7
176
     1
 65
   257
176
     1
 75
     1
176
     1
175
     1
176
     1
 42
1.0
176
     1
 92
        8
176
     1
 66
     7
176
     1
 43
1.0
176
     1
 76
     1
176
     1
 77
     6
176
     1
 78
     2
176
     1
 67
     7
176
     1
 79
     5
176
     1
170
     0
176
     1
171
     0
176
     1
290
     0
176
     1
 93
        1
176
     1
 44
0.0
176
     1
173
     0
176
     1
  0
VISUALSTYLE
  5
36
102
{ACAD_REACTORS
330
2A
102
}
330
2A
100
AcDbVisualStyle
  2
Brighten
 70
    12
177
     2
291
     1
 71
     2
176
     1
 72
     2
176
     1
 73
     0
176
     1
 90
        0
176
     1
 40
-0.6
176
     1
 41
-30.0
176
     1
 62
     5
 63
     7
421
 16777215
176
     1
 74
     1
176
     1
 91
        4
176
     1
 64
     7
176
     1
 65
   257
176
     1
 75
     1
176
     1
175
     1
176
     1
 42
1.0
176
     1
 92
        8
176
     1
 66
     7
176
     1
 43
1.0
176
     1
 76
     1
176
     1
 77
     6
176
     1
 78
     2
176
     1
 67
     7
176
     1
 79
     5
176
     1
170
     0
176
     1
171
     0
176
     1
290
     0
176
     1
 93
        1
176
     1
 44
50.0
176
     1
173
     0
176
     1
  0
VISUALSTYLE
  5
3A
102
{ACAD_REACTORS
330
2A
102
}
330
2A
100
AcDbVisualStyle
  2
ColorChange
 70
    16
177
     2
291
     1
 71
     2
176
     1
 72
     2
176
     1
 73
     3
176
     1
 90
        0
176
     1
 40
-0.6
176
     1
 41
-30.0
176
     1
 62
     5
 63
     8
421
  8421504
176
     1
 74
     1
176
     1
 91
        4
176
     1
 64
     7
176
     1
 65
   257
176
     1
 75
     1
176
     1
175
     1
176
     1
 42
1.0
176
     1
 92
        8
176
     1
 66
     8
424
  8421504
176
     1
 43
1.0
176
     1
 76
     1
176
     1
 77
     6
176
     1
 78
     2
176
     1
 67
     7
176
     1
 79
     5
176
     1
170
     0
176
     1
171
     0
176
     1
290
     0
176
     1
 93
        1
176
     1
 44
0.0
176
     1
173
     0
176
     1
  0
VISUALSTYLE
  5
34
102
{ACAD_REACTORS
330
2A
102
}
330
2A
100
AcDbVisualStyle
  2
Conceptual
 70
     9
177
     2
291
     0
 71
     3
176
     1
 72
     2
176
     1
 73
     0
176
     1
 90
        0
176
     1
 40
-0.6
176
     1
 41
-30.0
176
     1
 62
     5
 63
     7
421
 16777215
176
     1
 74
     2
176
     1
 91
        2
176
     1
 64
     7
176
     1
 65
   257
176
     1
 75
     1
176
     1
175
     1
176
     1
 42
40.0
176
     1
 92
        8
176
     1
 66
     7
176
     1
 43
1.0
176
     1
 76
     1
176
     1
 77
     6
176
     1
 78
     2
176
     1
 67
     7
176
     1
 79
     3
176
     1
170
     0
176
     1
171
     0
176
     1
290
     0
176
     1
 93
        1
176
     1
 44
0.0
176
     1
173
     0
176
     1
  0
VISUALSTYLE
  5
35
102
{ACAD_REACTORS
330
2A
102
}
330
2A
100
AcDbVisualStyle
  2
Dim
 70
    11
177
     2
291
     1
 71
     2
176
     1
 72
     2
176
     1
 73
     0
176
     1
 90
        0
176
     1
 40
-0.6
176
     1
 41
-30.0
176
     1
 62
     5
 63
     7
421
 16777215
176
     1
 74
     1
176
     1
 91
        4
176
     1
 64
     7
176
     1
 65
   257
176
     1
 75
     1
176
     1
175
     1
176
     1
 42
1.0
176
     1
 92
        8
176
     1
 66
     7
176
     1
 43
1.0
176
     1
 76
     1
176
     1
 77
     6
176
     1
 78
     2
176
     1
 67
     7
176
     1
 79
     5
176
     1
170
     0
176
     1
171
     0
176
     1
290
     0
176
     1
 93
        1
176
     1
 44
-50.0
176
     1
173
     0
176
     1
  0
VISUALSTYLE
  5
39
102
{ACAD_REACTORS
330
2A
102
}
330
2A
100
AcDbVisualStyle
  2
Facepattern
 70
    15
177
     2
291
     1
 71
     2
176
     1
 72
     2
176
     1
 73
     0
176
     1
 90
        0
176
     1
 40
-0.6
176
     1
 41
-30.0
176
     1
 62
     5
 63
     7
421
 16777215
176
     1
 74
     1
176
     1
 91
        4
176
     1
 64
     7
176
     1
 65
   257
176
     1
 75
     1
176
     1
175
     1
176
     1
 42
1.0
176
     1
 92
        8
176
     1
 66
     7
176
     1
 43
1.0
176
     1
 76
     1
176
     1
 77
     6
176
     1
 78
     2
176
     1
 67
     7
176
     1
 79
     5
176
     1
170
     0
176
     1
171
     0
176
     1
290
     0
176
     1
 93
        1
176
     1
 44
0.0
176
     1
173
     0
176
     1
  0
VISUALSTYLE
  5
2B
102
{ACAD_REACTORS
330
2A
102
}
330
2A
100
AcDbVisualStyle
  2
Flat
 70
     0
177
     2
291
     1
 71
     2
176
     1
 72
     1
176
     1
 73
     1
176
     1
 90
        2
176
     1
 40
-0.6
176
     1
 41
30.0
176
     1
 62
     5
 63
     7
421
 16777215
176
     1
 74
     0
176
     1
 91
        4
176
     1
 64
     7
176
     1
 65
   257
176
     1
 75
     1
176
     1
175
     1
176
     1
 42
1.0
176
     1
 92
        8
176
     1
 66
     7
176
     1
 43
1.0
176
     1
 76
     1
176
     1
 77
     6
176
     1
 78
     2
176
     1
 67
     7
176
     1
 79
     5
176
     1
170
     0
176
     1
171
     0
176
     1
290
     0
176
     1
 93
       13
176
     1
 44
0.0
176
     1
173
     0
176
     1
  0
VISUALSTYLE
  5
2C
102
{ACAD_REACTORS
330
2A
102
}
330
2A
100
AcDbVisualStyle
  2
FlatWithEdges
 70
     1
177
     2
291
     1
 71
     2
176
     1
 72
     1
176
     1
 73
     1
176
     1
 90
        2
176
     1
 40
-0.6
176
     1
 41
30.0
176
     1
 62
     5
 63
     7
421
 16777215
176
     1
 74
     1
176
     1
 91
        4
176
     1
 64
     7
176
     1
 65
   257
176
     1
 75
     1
176
     1
175
     1
176
     1
 42
1.0
176
     1
 92
        0
176
     1
 66
   257
176
     1
 43
1.0
176
     1
 76
     1
176
     1
 77
     6
176
     1
 78
     2
176
     1
 67
     7
176
     1
 79
     5
176
     1
170
     0
176
     1
171
     0
176
     1
290
     0
176
     1
 93
       13
176
     1
 44
0.0
176
     1
173
     0
176
     1
  0
VISUALSTYLE
  5
2D
102
{ACAD_REACTORS
330
2A
102
}
330
2A
100
AcDbVisualStyle
  2
Gouraud
 70
     2
177
     2
291
     1
 71
     2
176
     1
 72
     2
176
     1
 73
     1
176
     1
 90
        2
176
     1
 40
-0.6
176
     1
 41
30.0
176
     1
 62
     5
 63
     7
421
 16777215
176
     1
 74
     0
176
     1
 91
        4
176
     1
 64
     7
176
     1
 65
   257
176
     1
 75
     1
176
     1
175
     1
176
     1
 42
1.0
176
     1
 92
        0
176
     1
 66
     7
176
     1
 43
1.0
176
     1
 76
     1
176
     1
 77
     6
176
     1
 78
     2
176
     1
 67
     7
176
     1
 79
     5
176
     1
170
     0
176
     1
171
     0
176
     1
290
     0
176
     1
 93
       13
176
     1
 44
0.0
176
     1
173
     0
176
     1
  0
VISUALSTYLE
  5
2E
102
{ACAD_REACTORS
330
2A
102
}
330
2A
100
AcDbVisualStyle
  2
GouraudWithEdges
 70
     3
177
     2
291
     1
 71
     2
176
     1
 72
     2
176
     1
 73
     1
176
     1
 90
        2
176
     1
 40
-0.6
176
     1
 41
30.0
176
     1
 62
     5
 63
     7
421
 16777215
176
     1
 74
     1
176
     1
 91
        4
176
     1
 64
     7
176
     1
 65
   257
176
     1
 75
     1
176
     1
175
     1
176
     1
 42
1.0
176
     1
 92
        0
176
     1
 66
   257
176
     1
 43
1.0
176
     1
 76
     1
176
     1
 77
     6
176
     1
 78
     2
176
     1
 67
     7
176
     1
 79
     5
176
     1
170
     0
176
     1
171
     0
176
     1
290
     0
176
     1
 93
       13
176
     1
 44
0.0
176
     1
173
     0
176
     1
  0
VISUALSTYLE
  5
38
102
{ACAD_REACTORS
330
2A
102
}
330
2A
100
AcDbVisualStyle
  2
Linepattern
 70
    14
177
     2
291
     1
 71
     2
176
     1
 72
     2
176
     1
 73
     0
176
     1
 90
        0
176
     1
 40
-0.6
176
     1
 41
-30.0
176
     1
 62
     5
 63
     7
421
 16777215
176
     1
 74
     1
176
     1
 91
        4
176
     1
 64
     7
176
     1
 65
   257
176
     1
 75
     7
176
     1
175
     7
176
     1
 42
1.0
176
     1
 92
        8
176
     1
 66
     7
176
     1
 43
1.0
176
     1
 76
     1
176
     1
 77
     6
176
     1
 78
     2
176
     1
 67
     7
176
     1
 79
     5
176
     1
170
     0
176
     1
171
     0
176
     1
290
     0
176
     1
 93
        1
176
     1
 44
0.0
176
     1
173
     0
176
     1
  0
VISUALSTYLE
  5
33
102
{ACAD_REACTORS
330
2A
102
}
330
2A
100
AcDbVisualStyle
  2
Realistic
 70
     8
177
     2
291
     0
 71
     2
176
     1
 72
     2
176
     1
 73
     0
176
     1
 90
        0
176
     1
 40
-0.6
176
     1
 41
-30.0
176
     1
 62
     5
 63
     7
421
 16777215
176
     1
 74
     1
176
     1
 91
        0
176
     1
 64
     7
176
     1
 65
   257
176
     1
 75
     1
176
     1
175
     1
176
     1
 42
1.0
176
     1
 92
        8
176
     1
 66
     8
424
  7895160
176
     1
 43
1.0
176
     1
 76
     1
176
     1
 77
     6
176
     1
 78
     2
176
     1
 67
     7
176
     1
 79
     5
176
     1
170
     0
176
     1
171
     0
176
     1
290
     0
176
     1
 93
       13
176
     1
 44
0.0
176
     1
173
     0
176
     1
  0
VISUALSTYLE
  5
37
102
{ACAD_REACTORS
330
2A
102
}
330
2A
100
AcDbVisualStyle
  2
Thicken
 70
    13
177
     2
291
     1
 71
     2
176
     1
 72
     2
176
     1
 73
     0
176
     1
 90
        0
176
     1
 40
-0.6
176
     1
 41
-30.0
176
     1
 62
     5
 63
     7
421
 16777215
176
     1
 74
     1
176
     1
 91
        4
176
     1
 64
     7
176
     1
 65
   257
176
     1
 75
     1
176
     1
175
     1
176
     1
 42
1.0
176
     1
 92
       12
176
     1
 66
     7
176
     1
 43
1.0
176
     1
 76
     1
176
     1
 77
     6
176
     1
 78
     2
176
     1
 67
     7
176
     1
 79
     5
176
     1
170
     0
176
     1
171
     0
176
     1
290
     0
176
     1
 93
        1
176
     1
 44
0.0
176
     1
173
     0
176
     1
  0
ENDSEC
  0
EOF
