  0
SECTION
  2
HEADER
  9
$ACADVER
  1
AC1024
  9
$ACADMAINTVER
 70
     6
  9
$DWGCODEPAGE
  3
UNDEFINED
  9
$INSBASE
 10
0.0
 20
0.0
 30
0.0
  9
$EXTMIN
 10
1.000000000000000E+20
 20
1.000000000000000E+20
 30
1.000000000000000E+20
  9
$EXTMAX
 10
-1.000000000000000E+20
 20
-1.000000000000000E+20
 30
-1.000000000000000E+20
  9
$LIMMIN
 10
0.0
 20
0.0
  9
$LIMMAX
 10
12.0
 20
9.0
  9
$ORTHOMODE
 70
     0
  9
$REGENMODE
 70
     1
  9
$FILLMODE
 70
     1
  9
$QTEXTMODE
 70
     0
  9
$MIRRTEXT
 70
     1
  9
$LTSCALE
 40
1.0
  9
$ATTMODE
 70
     1
  9
$TEXTSIZE
 40
0.2
  9
$TRACEWID
 40
0.05
  9
$TEXTSTYLE
  7
Standard
  9
$CLAYER
  8
0
  9
$CELTYPE
  6
ByLayer
  9
$CECOLOR
 62
   256
  9
$CELTSCALE
 40
1.0
  9
$DISPSILH
 70
     0
  9
$DIMSCALE
 40
1.0
  9
$DIMASZ
 40
0.18
  9
$DIMEXO
 40
0.0625
  9
$DIMDLI
 40
0.38
  9
$DIMRND
 40
0.0
  9
$DIMDLE
 40
0.0
  9
$DIMEXE
 40
0.18
  9
$DIMTP
 40
0.0
  9
$DIMTM
 40
0.0
  9
$DIMTXT
 40
0.18
  9
$DIMCEN
 40
0.09
  9
$DIMTSZ
 40
0.0
  9
$DIMTOL
 70
     0
  9
$DIMLIM
 70
     0
  9
$DIMTIH
 70
     1
  9
$DIMTOH
 70
     1
  9
$DIMSE1
 70
     0
  9
$DIMSE2
 70
     0
  9
$DIMTAD
 70
     0
  9
$DIMZIN
 70
     0
  9
$DIMBLK
  1

  9
$DIMASO
 70
     1
  9
$DIMSHO
 70
     1
  9
$DIMPOST
  1

  9
$DIMAPOST
  1

  9
$DIMALT
 70
     0
  9
$DIMALTD
 70
     2
  9
$DIMALTF
 40
25.4
  9
$DIMLFAC
 40
1.0
  9
$DIMTOFL
 70
     0
  9
$DIMTVP
 40
0.0
  9
$DIMTIX
 70
     0
  9
$DIMSOXD
 70
     0
  9
$DIMSAH
 70
     0
  9
$DIMBLK1
  1

  9
$DIMBLK2
  1

  9
$DIMSTYLE
  2
Standard
  9
$DIMCLRD
 70
     0
  9
$DIMCLRE
 70
     0
  9
$DIMCLRT
 70
     0
  9
$DIMTFAC
 40
1.0
  9
$DIMGAP
 40
0.09
  9
$DIMJUST
 70
     0
  9
$DIMSD1
 70
     0
  9
$DIMSD2
 70
     0
  9
$DIMTOLJ
 70
     1
  9
$DIMTZIN
 70
     0
  9
$DIMALTZ
 70
     0
  9
$DIMALTTZ
 70
     0
  9
$DIMUPT
 70
     0
  9
$DIMDEC
 70
     4
  9
$DIMTDEC
 70
     4
  9
$DIMALTU
 70
     2
  9
$DIMALTTD
 70
     2
  9
$DIMTXSTY
  7
Standard
  9
$DIMAUNIT
 70
     0
  9
$DIMADEC
 70
     0
  9
$DIMALTRND
 40
0.0
  9
$DIMAZIN
 70
     0
  9
$DIMDSEP
 70
    46
  9
$DIMATFIT
 70
     3
  9
$DIMFRAC
 70
     0
  9
$DIMLDRBLK
  1

  9
$DIMLUNIT
 70
     2
  9
$DIMLWD
 70
    -2
  9
$DIMLWE
 70
    -2
  9
$DIMTMOVE
 70
     0
  9
$DIMFXL
 40
1.0
  9
$DIMFXLON
 70
     0
  9
$DIMJOGANG
 40
0.7853981633974483
  9
$DIMTFILL
 70
     0
  9
$DIMTFILLCLR
 70
     0
  9
$DIMARCSYM
 70
     0
  9
$DIMLTYPE
  6

  9
$DIMLTEX1
  6

  9
$DIMLTEX2
  6

  9
$DIMTXTDIRECTION
 70
     0
  9
$LUNITS
 70
     2
  9
$LUPREC
 70
     4
  9
$SKETCHINC
 40
0.1
  9
$FILLETRAD
 40
0.5
  9
$AUNITS
 70
     0
  9
$AUPREC
 70
     0
  9
$MENU
  1
.
  9
$ELEVATION
 40
0.0
  9
$PELEVATION
 40
0.0
  9
$THICKNESS
 40
0.0
  9
$LIMCHECK
 70
     0
  9
$CHAMFERA
 40
0.5
  9
$CHAMFERB
 40
0.5
  9
$CHAMFERC
 40
1.0
  9
$CHAMFERD
 40
0.0
  9
$SKPOLY
 70
     0
  9
$TDCREATE
 40
2458904.457847211
  9
$TDUCREATE
 40
2458904.666180556
  9
$TDUPDATE
 40
2458904.457847211
  9
$TDUUPDATE
 40
2458904.666180556
  9
$TDINDWG
 40
0.0000000116
  9
$TDUSRTIMER
 40
0.0000000116
  9
$USRTIMER
 70
     1
  9
$ANGBASE
 50
0.0
  9
$ANGDIR
 70
     0
  9
$PDMODE
 70
     0
  9
$PDSIZE
 40
0.0
  9
$PLINEWID
 40
0.0
  9
$SPLFRAME
 70
     0
  9
$SPLINETYPE
 70
     6
  9
$SPLINESEGS
 70
     8
  9
$HANDSEED
  5
53
  9
$SURFTAB1
 70
     6
  9
$SURFTAB2
 70
     6
  9
$SURFTYPE
 70
     6
  9
$SURFU
 70
     6
  9
$SURFV
 70
     6
  9
$UCSBASE
  2

  9
$UCSNAME
  2

  9
$UCSORG
 10
0.0
 20
0.0
 30
0.0
  9
$UCSXDIR
 10
1.0
 20
0.0
 30
0.0
  9
$UCSYDIR
 10
0.0
 20
1.0
 30
0.0
  9
$UCSORTHOREF
  2

  9
$UCSORTHOVIEW
 70
     0
  9
$UCSORGTOP
 10
0.0
 20
0.0
 30
0.0
  9
$UCSORGBOTTOM
 10
0.0
 20
0.0
 30
0.0
  9
$UCSORGLEFT
 10
0.0
 20
0.0
 30
0.0
  9
$UCSORGRIGHT
 10
0.0
 20
0.0
 30
0.0
  9
$UCSORGFRONT
 10
0.0
 20
0.0
 30
0.0
  9
$UCSORGBACK
 10
0.0
 20
0.0
 30
0.0
  9
$PUCSBASE
  2

  9
$PUCSNAME
  2

  9
$PUCSORG
 10
0.0
 20
0.0
 30
0.0
  9
$PUCSXDIR
 10
1.0
 20
0.0
 30
0.0
  9
$PUCSYDIR
 10
0.0
 20
1.0
 30
0.0
  9
$PUCSORTHOREF
  2

  9
$PUCSORTHOVIEW
 70
     0
  9
$PUCSORGTOP
 10
0.0
 20
0.0
 30
0.0
  9
$PUCSORGBOTTOM
 10
0.0
 20
0.0
 30
0.0
  9
$PUCSORGLEFT
 10
0.0
 20
0.0
 30
0.0
  9
$PUCSORGRIGHT
 10
0.0
 20
0.0
 30
0.0
  9
$PUCSORGFRONT
 10
0.0
 20
0.0
 30
0.0
  9
$PUCSORGBACK
 10
0.0
 20
0.0
 30
0.0
  9
$USERI1
 70
     0
  9
$USERI2
 70
     0
  9
$USERI3
 70
     0
  9
$USERI4
 70
     0
  9
$USERI5
 70
     0
  9
$USERR1
 40
0.0
  9
$USERR2
 40
0.0
  9
$USERR3
 40
0.0
  9
$USERR4
 40
0.0
  9
$USERR5
 40
0.0
  9
$WORLDVIEW
 70
     1
  9
$SHADEDGE
 70
     3
  9
$SHADEDIF
 70
    70
  9
$TILEMODE
 70
     1
  9
$MAXACTVP
 70
    64
  9
$PINSBASE
 10
0.0
 20
0.0
 30
0.0
  9
$PLIMCHECK
 70
     0
  9
$PEXTMIN
 10
1.000000000000000E+20
 20
1.000000000000000E+20
 30
1.000000000000000E+20
  9
$PEXTMAX
 10
-1.000000000000000E+20
 20
-1.000000000000000E+20
 30
-1.000000000000000E+20
  9
$PLIMMIN
 10
0.0
 20
0.0
  9
$PLIMMAX
 10
12.0
 20
9.0
  9
$UNITMODE
 70
     0
  9
$VISRETAIN
 70
     1
  9
$PLINEGEN
 70
     0
  9
$PSLTSCALE
 70
     1
  9
$TREEDEPTH
 70
  3020
  9
$CMLSTYLE
  2
Standard
  9
$CMLJUST
 70
     0
  9
$CMLSCALE
 40
1.0
  9
$PROXYGRAPHICS
 70
     1
  9
$MEASUREMENT
 70
     0
  9
$CELWEIGHT
370
    -1
  9
$ENDCAPS
280
     0
  9
$JOINSTYLE
280
     0
  9
$LWDISPLAY
290
     1
  9
$INSUNITS
 70
     1
  9
$HYPERLINKBASE
  1

  9
$STYLESHEET
  1

  9
$XEDIT
290
     1
  9
$CEPSNTYPE
380
     0
  9
$PSTYLEMODE
290
     1
  9
$FINGERPRINTGUID
  2
{0365F991-9B16-293D-0803-243059804D4E}
  9
$VERSIONGUID
  2
{FAEB1C32-E019-11D5-929B-00C0DF256EC4}
  9
$EXTNAMES
290
     1
  9
$PSVPSCALE
 40
0.0
  9
$OLESTARTUP
290
     0
  9
$SORTENTS
280
   127
  9
$INDEXCTL
280
     0
  9
$HIDETEXT
280
     1
  9
$XCLIPFRAME
280
     2
  9
$HALOGAP
280
     0
  9
$OBSCOLOR
 70
   257
  9
$OBSLTYPE
280
     0
  9
$INTERSECTIONDISPLAY
280
     0
  9
$INTERSECTIONCOLOR
 70
   257
  9
$DIMASSOC
280
     2
  9
$PROJECTNAME
  1

  9
$CAMERADISPLAY
290
     0
  9
$LENSLENGTH
 40
50.0
  9
$CAMERAHEIGHT
 40
0.0
  9
$STEPSPERSEC
 40
2.0
  9
$STEPSIZE
 40
6.0
  9
$3DDWFPREC
 40
2.0
  9
$PSOLWIDTH
 40
0.25
  9
$PSOLHEIGHT
 40
4.0
  9
$LOFTANG1
 40
1.570796326794897
  9
$LOFTANG2
 40
1.570796326794897
  9
$LOFTMAG1
 40
0.0
  9
$LOFTMAG2
 40
0.0
  9
$LOFTPARAM
 70
     7
  9
$LOFTNORMALS
280
     1
  9
$LATITUDE
 40
37.795
  9
$LONGITUDE
 40
-122.394
  9
$NORTHDIRECTION
 40
0.0
  9
$TIMEZONE
 70
 -8000
  9
$LIGHTGLYPHDISPLAY
280
     1
  9
$TILEMODELIGHTSYNCH
280
     1
  9
$CMATERIAL
347
3C
  9
$SOLIDHIST
280
     1
  9
$SHOWHIST
280
     1
  9
$DWFFRAME
280
     2
  9
$DGNFRAME
280
     2
  9
$REALWORLDSCALE
290
     1
  9
$INTERFERECOLOR
 62
   256
  9
$CSHADOW
280
     0
  9
$SHADOWPLANELOCATION
 40
0.0
  0
ENDSEC
  0
SECTION
  2
CLASSES
  0
CLASS
  1
ACDBDICTIONARYWDFLT
  2
AcDbDictionaryWithDefault
  3
ObjectDBX Classes
 90
        0
 91
        4
280
     0
281
     0
  0
CLASS
  1
VISUALSTYLE
  2
AcDbVisualStyle
  3
ObjectDBX Classes
 90
     4095
 91
        4
280
     0
281
     0
  0
CLASS
  1
MATERIAL
  2
AcDbMaterial
  3
ObjectDBX Classes
 90
     1153
 91
        4
280
     0
281
     0
  0
CLASS
  1
SUN
  2
AcDbSun
  3
SCENEOE
 90
     1024
 91
        4
280
     0
281
     0
  0
ENDSEC
  0
SECTION
  2
TABLES
  0
TABLE
  2
VPORT
  5
8
330
0
100
AcDbSymbolTable
 70
     1
  0
VPORT
  5
29
330
8
100
AcDbSymbolTableRecord
100
AcDbViewportTableRecord
  2
*Active
 70
     0
 10
0.0
 20
0.0
 11
1.0
 21
1.0
 12
0.0
 22
0.0
 13
0.0
 23
0.0
 14
0.5
 24
0.5
 15
0.5
 25
0.5
 16
0.0
 26
0.0
 36
1.0
 17
5.846458333333329
 27
-4.133888888888881
 37
0.0
 40
19.0
 41
1.0
 42
50.0
 43
0.0
 44
0.0
 50
0.0
 51
0.0
 71
     0
 72
   100
 73
     1
 74
     3
 75
     0
 76
     0
 77
     0
 78
     0
281
     0
 65
     1
110
0.0
120
0.0
130
0.0
111
1.0
121
0.0
131
0.0
112
0.0
122
1.0
132
0.0
 79
     0
146
0.0
 60
     3
 61
     5
292
     1
282
     1
141
0.0
142
0.0
 63
   250
361
3F
  0
ENDTAB
  0
TABLE
  2
LTYPE
  5
5
330
0
100
AcDbSymbolTable
 70
     1
  0
LTYPE
  5
14
330
5
100
AcDbSymbolTableRecord
100
AcDbLinetypeTableRecord
  2
ByBlock
 70
     0
  3

 72
    65
 73
     0
 40
0.0
  0
LTYPE
  5
15
330
5
100
AcDbSymbolTableRecord
100
AcDbLinetypeTableRecord
  2
ByLayer
 70
     0
  3

 72
    65
 73
     0
 40
0.0
  0
LTYPE
  5
16
330
5
100
AcDbSymbolTableRecord
100
AcDbLinetypeTableRecord
  2
Continuous
 70
     0
  3
Solid line
 72
    65
 73
     0
 40
0.0
  0
ENDTAB
  0
TABLE
  2
LAYER
  5
2
330
0
100
AcDbSymbolTable
 70
     2
  0
LAYER
  5
10
330
2
100
AcDbSymbolTableRecord
100
AcDbLayerTableRecord
  2
0
 70
     0
 62
     7
  6
Continuous
370
    -3
390
F
347
3E
  0
LAYER
  5
40
330
2
100
AcDbSymbolTableRecord
100
AcDbLayerTableRecord
  2
Layer 3
 70
     0
 62
     7
  6
Continuous
370
    -3
390
F
347
3E
  0
ENDTAB
  0
TABLE
  2
STYLE
  5
3
330
0
100
AcDbSymbolTable
 70
     1
  0
STYLE
  5
11
330
3
100
AcDbSymbolTableRecord
100
AcDbTextStyleTableRecord
  2
Standard
 70
     0
 40
0.0
 41
1.0
 50
0.0
 71
     0
 42
0.2
  3
txt
  4

  0
ENDTAB
  0
TABLE
  2
VIEW
  5
6
330
0
100
AcDbSymbolTable
 70
     0
  0
ENDTAB
  0
TABLE
  2
UCS
  5
7
330
0
100
AcDbSymbolTable
 70
     0
  0
ENDTAB
  0
TABLE
  2
APPID
  5
9
330
0
100
AcDbSymbolTable
 70
     1
  0
APPID
  5
12
330
9
100
AcDbSymbolTableRecord
100
AcDbRegAppTableRecord
  2
ACAD
 70
     0
  0
ENDTAB
  0
TABLE
  2
DIMSTYLE
  5
A
330
0
100
AcDbSymbolTable
 70
     1
100
AcDbDimStyleTable
  0
DIMSTYLE
105
27
330
A
100
AcDbSymbolTableRecord
100
AcDbDimStyleTableRecord
  2
Standard
 70
     0
178
     0
340
11
  0
ENDTAB
  0
TABLE
  2
BLOCK_RECORD
  5
1
330
0
100
AcDbSymbolTable
 70
     3
  0
BLOCK_RECORD
  5
1F
330
1
100
AcDbSymbolTableRecord
100
AcDbBlockTableRecord
  2
*Model_Space
340
22
 70
     0
280
     1
281
     0
  0
BLOCK_RECORD
  5
1B
330
1
100
AcDbSymbolTableRecord
100
AcDbBlockTableRecord
  2
*Paper_Space
340
1E
 70
     0
280
     1
281
     0
  0
BLOCK_RECORD
  5
23
330
1
100
AcDbSymbolTableRecord
100
AcDbBlockTableRecord
  2
*Paper_Space0
340
26
 70
     0
280
     1
281
     0
  0
BLOCK_RECORD
  5
42
330
1
100
AcDbSymbolTableRecord
100
AcDbBlockTableRecord
  2
block 2
340
0
102
{BLKREFS
331
43
102
}
 70
     0
280
     1
281
     0
  0
BLOCK_RECORD
  5
46
330
1
100
AcDbSymbolTableRecord
100
AcDbBlockTableRecord
  2
block 3
340
0
102
{BLKREFS
331
47
102
}
 70
     0
280
     1
281
     0
  0
ENDTAB
  0
ENDSEC
  0
SECTION
  2
BLOCKS
  0
BLOCK
  5
20
330
1F
100
AcDbEntity
  8
0
100
AcDbBlockBegin
  2
*Model_Space
 70
     0
 10
0.0
 20
0.0
 30
0.0
  3
*Model_Space
  1

  0
ENDBLK
  5
21
330
1F
100
AcDbEntity
  8
0
100
AcDbBlockEnd
  0
BLOCK
  5
1C
330
1B
100
AcDbEntity
 67
     1
  8
0
100
AcDbBlockBegin
  2
*Paper_Space
 70
     0
 10
0.0
 20
0.0
 30
0.0
  3
*Paper_Space
  1

  0
ENDBLK
  5
1D
330
1B
100
AcDbEntity
 67
     1
  8
0
100
AcDbBlockEnd
  0
BLOCK
  5
24
330
23
100
AcDbEntity
  8
0
100
AcDbBlockBegin
  2
*Paper_Space0
 70
     0
 10
0.0
 20
0.0
 30
0.0
  3
*Paper_Space0
  1

  0
ENDBLK
  5
25
330
23
100
AcDbEntity
  8
0
100
AcDbBlockEnd
  0
BLOCK
  5
44
330
42
100
AcDbEntity
  8
0
100
AcDbBlockBegin
  2
block 2
 70
     0
 10
0.0
 20
0.0
 30
0.0
  3
block 2
  1

  0
INSERT
  5
47
330
42
100
AcDbEntity
  8
Layer 3
100
AcDbBlockReference
  2
block 3
 10
0.0
 20
0.0
 30
0.0
  0
ENDBLK
  5
45
330
42
100
AcDbEntity
  8
0
100
AcDbBlockEnd
  0
BLOCK
  5
48
330
46
100
AcDbEntity
  8
0
100
AcDbBlockBegin
  2
block 3
 70
     0
 10
0.0
 20
0.0
 30
0.0
  3
block 3
  1

  0
SPLINE
  5
4A
330
46
100
AcDbEntity
  8
Layer 3
 62
   240
420
 15539236
370
     5
100
AcDbSpline
210
0.0
220
0.0
230
1.0
 70
    11
 71
     3
 72
    23
 73
    19
 74
     0
 42
0.0000000001
 43
0.0000000001
 12
1.0
 22
0.0
 32
0.0
 13
1.0
 23
0.0
 33
0.0
 40
0.0
 40
0.0
 40
0.0
 40
0.0
 40
1.0
 40
1.0
 40
1.0
 40
2.0
 40
2.0
 40
2.0
 40
3.0
 40
3.0
 40
3.0
 40
4.0
 40
4.0
 40
4.0
 40
5.0
 40
5.0
 40
5.0
 40
6.0
 40
6.0
 40
6.0
 40
6.0
 10
5.406357972000629
 20
0.9785114210235153
 30
0.0
 10
5.406357972000629
 20
0.9785114210235153
 30
0.0
 10
0.770379181585339
 20
-7.051239386787529
 30
0.0
 10
0.770379181585339
 20
-7.051239386787529
 30
0.0
 10
0.5763490012024274
 20
-7.387309517412682
 30
0.0
 10
0.8188867266813101
 20
-7.807397180694074
 30
0.0
 10
1.206947087447285
 20
-7.807397180694074
 30
0.0
 10
1.206947087447285
 20
-7.807397180694074
 30
0.0
 10
10.47890466827784
 20
-7.807397180694074
 30
0.0
 10
10.47890466827784
 20
-7.807397180694074
 30
0.0
 10
10.86696502904397
 20
-7.807397180694074
 30
0.0
 10
11.10950275452286
 20
-7.387309517412682
 30
0.0
 10
10.91547257413963
 20
-7.051239386787402
 30
0.0
 10
10.91547257413963
 20
-7.051239386787402
 30
0.0
 10
6.279493783724369
 20
0.9785114210235153
 30
0.0
 10
6.279493783724369
 20
0.9785114210235153
 30
0.0
 10
6.085463603341193
 20
1.314581551648644
 30
0.0
 10
5.600388152383819
 20
1.314581551648644
 30
0.0
 10
5.406357972000629
 20
0.9785114210235153
 30
0.0
  0
ENDBLK
  5
49
330
46
100
AcDbEntity
  8
0
100
AcDbBlockEnd
  0
ENDSEC
  0
SECTION
  2
ENTITIES
  0
SPLINE
  5
41
330
1F
100
AcDbEntity
  8
Layer 3
 62
   240
420
 15539236
370
     5
100
AcDbSpline
210
0.0
220
0.0
230
1.0
 70
    11
 71
     3
 72
   173
 73
   169
 74
     0
 42
0.0000000001
 43
0.0000000001
 12
1.0
 22
0.0
 32
0.0
 13
1.0
 23
0.0
 33
0.0
 40
0.0
 40
0.0
 40
0.0
 40
0.0
 40
1.0
 40
1.0
 40
1.0
 40
2.0
 40
2.0
 40
2.0
 40
3.0
 40
3.0
 40
3.0
 40
4.0
 40
4.0
 40
4.0
 40
5.0
 40
5.0
 40
5.0
 40
6.0
 40
6.0
 40
6.0
 40
7.0
 40
7.0
 40
7.0
 40
8.0
 40
8.0
 40
8.0
 40
9.0
 40
9.0
 40
9.0
 40
10.0
 40
10.0
 40
10.0
 40
11.0
 40
11.0
 40
11.0
 40
12.0
 40
12.0
 40
12.0
 40
13.0
 40
13.0
 40
13.0
 40
14.0
 40
14.0
 40
14.0
 40
15.0
 40
15.0
 40
15.0
 40
16.0
 40
16.0
 40
16.0
 40
17.0
 40
17.0
 40
17.0
 40
18.0
 40
18.0
 40
18.0
 40
19.0
 40
19.0
 40
19.0
 40
20.0
 40
20.0
 40
20.0
 40
21.0
 40
21.0
 40
21.0
 40
22.0
 40
22.0
 40
22.0
 40
23.0
 40
23.0
 40
23.0
 40
24.0
 40
24.0
 40
24.0
 40
25.0
 40
25.0
 40
25.0
 40
26.0
 40
26.0
 40
26.0
 40
27.0
 40
27.0
 40
27.0
 40
28.0
 40
28.0
 40
28.0
 40
29.0
 40
29.0
 40
29.0
 40
30.0
 40
30.0
 40
30.0
 40
31.0
 40
31.0
 40
31.0
 40
32.0
 40
32.0
 40
32.0
 40
33.0
 40
33.0
 40
33.0
 40
34.0
 40
34.0
 40
34.0
 40
35.0
 40
35.0
 40
35.0
 40
36.0
 40
36.0
 40
36.0
 40
37.0
 40
37.0
 40
37.0
 40
38.0
 40
38.0
 40
38.0
 40
39.0
 40
39.0
 40
39.0
 40
40.0
 40
40.0
 40
40.0
 40
41.0
 40
41.0
 40
41.0
 40
42.0
 40
42.0
 40
42.0
 40
43.0
 40
43.0
 40
43.0
 40
44.0
 40
44.0
 40
44.0
 40
45.0
 40
45.0
 40
45.0
 40
46.0
 40
46.0
 40
46.0
 40
47.0
 40
47.0
 40
47.0
 40
48.0
 40
48.0
 40
48.0
 40
49.0
 40
49.0
 40
49.0
 40
50.0
 40
50.0
 40
50.0
 40
51.0
 40
51.0
 40
51.0
 40
52.0
 40
52.0
 40
52.0
 40
53.0
 40
53.0
 40
53.0
 40
54.0
 40
54.0
 40
54.0
 40
55.0
 40
55.0
 40
55.0
 40
56.0
 40
56.0
 40
56.0
 40
56.0
 10
12.84292603455479
 20
1.169301838781949
 30
0.0
 10
13.12773335363618
 20
1.169301729582445
 30
0.0
 10
13.967091241732
 20
1.169301221347698
 30
0.0
 10
14.2379728748909
 20
1.169298631018453
 30
0.0
 10
14.29595300428355
 20
1.169298076578406
 30
0.0
 10
14.34292602863464
 20
1.216300073157324
 30
0.0
 10
14.34292602863464
 20
1.274280202552518
 30
0.0
 10
14.34292602863464
 20
1.274280202552518
 30
0.0
 10
14.34292602863464
 20
3.372875159240493
 30
0.0
 10
14.34292602863464
 20
3.372875159240493
 30
0.0
 10
14.34292602863464
 20
3.923905033733275
 30
0.0
 10
13.89208340404965
 20
4.374747658327502
 30
0.0
 10
13.34105352955673
 20
4.374747658338783
 30
0.0
 10
13.34105352955673
 20
4.374747658338783
 30
0.0
 10
11.23575725916327
 20
4.37474765838187
 30
0.0
 10
11.23575725916327
 20
4.37474765838187
 30
0.0
 10
11.18279037254994
 20
4.374747658382956
 30
0.0
 10
11.1398522271441
 20
4.33180951299121
 30
0.0
 10
11.13985222712798
 20
4.27884262637786
 30
0.0
 10
11.13985222712798
 20
4.27884262637786
 30
0.0
 10
11.13985222669923
 20
2.874747660750131
 30
0.0
 10
11.13985222669923
 20
2.874747660750131
 30
0.0
 10
11.13985222669923
 20
2.874747660750131
 30
0.0
 10
10.90363175319688
 20
2.874747660824381
 30
0.0
 10
10.90363175319688
 20
2.874747660824381
 30
0.0
 10
10.90363175319688
 20
2.874747660824381
 30
0.0
 10
10.90363346192799
 20
4.278842509592677
 30
0.0
 10
10.90363346192799
 20
4.278842509592677
 30
0.0
 10
10.90363352638689
 20
4.331809441795864
 30
0.0
 10
10.86069536209799
 20
4.374747658338821
 30
0.0
 10
10.8077284298948
 20
4.374747658338821
 30
0.0
 10
10.8077284298948
 20
4.374747658338821
 30
0.0
 10
0.8865818086099276
 20
4.374747658338821
 30
0.0
 10
0.8865818086099276
 20
4.374747658338821
 30
0.0
 10
0.8334450561353479
 20
4.374747658338821
 30
0.0
 10
0.7903692139642418
 20
4.331671796741059
 30
0.0
 10
0.790369237928265
 20
4.278535044266416
 30
0.0
 10
0.790369237928265
 20
4.278535044266416
 30
0.0
 10
0.7903698710190888
 20
2.874747659161219
 30
0.0
 10
0.7903698710190888
 20
2.874747659161219
 30
0.0
 10
0.7903698710190888
 20
2.874747659161219
 30
0.0
 10
0.554149400455761
 20
2.874747659171236
 30
0.0
 10
0.554149400455761
 20
2.874747659171236
 30
0.0
 10
0.554149400455761
 20
2.874747659171236
 30
0.0
 10
0.5541477449179789
 20
4.278535201124074
 30
0.0
 10
0.5541477449179789
 20
4.278535201124074
 30
0.0
 10
0.5541476822518739
 20
4.331671892341963
 30
0.0
 10
0.5110718654542425
 20
4.374747658338821
 30
0.0
 10
0.4579351742363163
 20
4.374747658338821
 30
0.0
 10
0.4579351742363163
 20
4.374747658338821
 30
0.0
 10
-1.655201472266728
 20
4.374747658338821
 30
0.0
 10
-1.655201472266728
 20
4.374747658338821
 30
0.0
 10
-2.206231344123264
 20
4.374747658338821
 30
0.0
 10
-2.657073968717567
 20
3.923905035910719
 30
0.0
 10
-2.657073971365068
 20
3.372875164054145
 30
0.0
 10
-2.657073971365068
 20
3.372875164054145
 30
0.0
 10
-2.657073981455773
 20
1.272670887019343
 30
0.0
 10
-2.657073981455773
 20
1.272670887019343
 30
0.0
 10
-2.65707398172396
 20
1.216860201902781
 30
0.0
 10
-2.611830482205076
 20
1.171616702182203
 30
0.0
 10
-2.556019797088538
 20
1.171616702201416
 30
0.0
 10
-2.556019797088538
 20
1.171616702201416
 30
0.0
 10
-1.157073983671732
 20
1.171616702683044
 30
0.0
 10
-1.157073983671732
 20
1.171616702683044
 30
0.0
 10
-1.157073983671732
 20
1.171616702683044
 30
0.0
 10
-1.157073984771867
 20
0.9353962294260579
 30
0.0
 10
-1.157073984771867
 20
0.9353962294260579
 30
0.0
 10
-1.157073984771867
 20
0.9353962294260579
 30
0.0
 10
-2.556019797521319
 20
0.9353962296731121
 30
0.0
 10
-2.556019797521319
 20
0.9353962296731121
 30
0.0
 10
-2.611830482475069
 20
0.935396229682965
 30
0.0
 10
-2.65707398191882
 20
0.8901527302088601
 30
0.0
 10
-2.657073981871463
 20
0.8343420452550592
 30
0.0
 10
-2.657073981871463
 20
0.8343420452550592
 30
0.0
 10
-2.657073973467011
 20
-9.079976665508486
 30
0.0
 10
-2.657073973467011
 20
-9.079976665508486
 30
0.0
 10
-2.657073973421183
 20
-9.13406945246935
 30
0.0
 10
-2.613223105440902
 20
-9.177920320416028
 30
0.0
 10
-2.559130318480078
 20
-9.1779203204205
 30
0.0
 10
-2.559130318480078
 20
-9.1779203204205
 30
0.0
 10
-1.157073975113134
 20
-9.177920320536233
 30
0.0
 10
-1.157073975113134
 20
-9.177920320536233
 30
0.0
 10
-1.157073975113134
 20
-9.177920320536233
 30
0.0
 10
-1.157073974942023
 20
-9.414140792542385
 30
0.0
 10
-1.157073974942023
 20
-9.414140792542385
 30
0.0
 10
-1.157073974942023
 20
-9.414140792542385
 30
0.0
 10
-2.559130318390342
 20
-9.414140792865458
 30
0.0
 10
-2.559130318390342
 20
-9.414140792865458
 30
0.0
 10
-2.613223105406317
 20
-9.414140792877939
 30
0.0
 10
-2.657073973399924
 20
-9.45799166092287
 30
0.0
 10
-2.657073973349093
 20
-9.512084447938882
 30
0.0
 10
-2.657073973349093
 20
-9.512084447938882
 30
0.0
 10
-2.657073971252152
 20
-11.74148988824509
 30
0.0
 10
-2.657073971252152
 20
-11.74148988824509
 30
0.0
 10
-2.657073970795068
 20
-12.22755923548602
 30
0.0
 10
-2.259380868132995
 20
-12.62525233931357
 30
0.0
 10
-1.773311520892018
 20
-12.62525234119519
 30
0.0
 10
-1.773311520892018
 20
-12.62525234119519
 30
0.0
 10
0.4516942597374256
 20
-12.62525234980841
 30
0.0
 10
0.4516942597374256
 20
-12.62525234980841
 30
0.0
 10
0.5069700344060443
 20
-12.62525235002239
 30
0.0
 10
0.5517799035103508
 20
-12.5804424810992
 30
0.0
 10
0.5517799035196478
 20
-12.52516670643056
 30
0.0
 10
0.5517799035196478
 20
-12.52516670643056
 30
0.0
 10
0.5517799037570132
 20
-11.12525235205162
 30
0.0
 10
0.5517799037570132
 20
-11.12525235205162
 30
0.0
 10
0.5517799037570132
 20
-11.12525235205162
 30
0.0
 10
0.7880003748013121
 20
-11.12525235201247
 30
0.0
 10
0.7880003748013121
 20
-11.12525235201247
 30
0.0
 10
0.7880003748013121
 20
-11.12525235201247
 30
0.0
 10
0.788000375877017
 20
-12.5227999015344
 30
0.0
 10
0.788000375877017
 20
-12.5227999015344
 30
0.0
 10
0.7880003759206222
 20
-12.57938282648017
 30
0.0
 10
0.8338698996396436
 20
-12.62525235008669
 30
0.0
 10
0.8904528245854837
 20
-12.62525234999137
 30
0.0
 10
0.8904528245854837
 20
-12.62525234999137
 30
0.0
 10
10.80388069022423
 20
-12.62525233329072
 30
0.0
 10
10.80388069022423
 20
-12.62525233329072
 30
0.0
 10
10.85769324687883
 20
-12.62525233320005
 30
0.0
 10
10.90131694323938
 20
-12.58162863672866
 30
0.0
 10
10.90131694319325
 20
-12.52781608007404
 30
0.0
 10
10.90131694319325
 20
-12.52781608007404
 30
0.0
 10
10.9013169419913
 20
-11.12525233503963
 30
0.0
 10
10.9013169419913
 20
-11.12525233503963
 30
0.0
 10
10.9013169419913
 20
-11.12525233503963
 30
0.0
 10
11.13753741614993
 20
-11.12525233503473
 30
0.0
 10
11.13753741614993
 20
-11.12525233503473
 30
0.0
 10
11.13753741614993
 20
-11.12525233503473
 30
0.0
 10
11.13753741577812
 20
-12.52781608021233
 30
0.0
 10
11.13753741577812
 20
-12.52781608021233
 30
0.0
 10
11.13753741576395
 20
-12.58162863681708
 30
0.0
 10
11.18116111203007
 20
-12.6252523332645
 30
0.0
 10
11.23497366863479
 20
-12.62525233347391
 30
0.0
 10
11.23497366863479
 20
-12.62525233347391
 30
0.0
 10
13.33878844712396
 20
-12.62525234166118
 30
0.0
 10
13.33878844712396
 20
-12.62525234166118
 30
0.0
 10
13.89106411695479
 20
-12.62525234166118
 30
0.0
 10
14.34292602863464
 20
-12.17339042998138
 30
0.0
 10
14.34292602863464
 20
-11.62111476015053
 30
0.0
 10
14.34292602863464
 20
-11.62111476015053
 30
0.0
 10
14.34292602863464
 20
-9.94593898761122
 30
0.0
 10
14.34292603127382
 20
-9.514505925526237
 30
0.0
 10
14.34292603161326
 20
-9.459007934756906
 30
0.0
 10
14.29793602097314
 20
-9.414140803980546
 30
0.0
 10
14.24243803020368
 20
-9.41414080397999
 30
0.0
 10
14.24243803020368
 20
-9.41414080397999
 30
0.0
 10
12.84292603480784
 20
-9.414140803285843
 30
0.0
 10
12.84292603480784
 20
-9.414140803285843
 30
0.0
 10
12.84292603480784
 20
-9.414140803285843
 30
0.0
 10
12.84292603498632
 20
-9.177920331960195
 30
0.0
 10
12.84292603498632
 20
-9.177920331960195
 30
0.0
 10
12.84292603498632
 20
-9.177920331960195
 30
0.0
 10
14.23948121731605
 20
-9.177920331536749
 30
0.0
 10
14.23948121731605
 20
-9.177920331536749
 30
0.0
 10
14.29661221125687
 20
-9.177920331519443
 30
0.0
 10
14.34292603260964
 20
-9.131606510152626
 30
0.0
 10
14.34292603260979
 20
-9.074475516211855
 30
0.0
 10
14.34292603260979
 20
-9.074475516211855
 30
0.0
 10
14.34292603262535
 20
0.8303604078840483
 30
0.0
 10
14.34292603262535
 20
0.8303604078840483
 30
0.0
 10
14.34292603262548
 20
0.8870916553840212
 30
0.0
 10
14.29693626976839
 20
0.9330814182205434
 30
0.0
 10
14.24020502226841
 20
0.9330814181950902
 30
0.0
 10
14.24020502226841
 20
0.9330814181950902
 30
0.0
 10
12.84292603047493
 20
0.9330814175681831
 30
0.0
 10
12.84292603047493
 20
0.9330814175681831
 30
0.0
 10
12.84292603047493
 20
0.9330814175681831
 30
0.0
 10
12.84292603455479
 20
1.169301838781949
 30
0.0
 10
12.84292603455479
 20
1.169301838781949
 30
0.0
  0
INSERT
  5
43
330
1F
100
AcDbEntity
  8
Layer 3
100
AcDbBlockReference
  2
block 2
 10
0.0
 20
0.0
 30
0.0
  0
SPLINE
  5
4B
330
1F
100
AcDbEntity
  8
Layer 3
 62
   240
420
 15539236
370
     5
100
AcDbSpline
210
0.0
220
0.0
230
1.0
 70
     8
 71
     3
 72
    20
 73
    16
 74
     0
 42
0.0000000001
 43
0.0000000001
 12
1.0
 22
0.0
 32
0.0
 13
1.0
 23
0.0
 33
0.0
 40
0.0
 40
0.0
 40
0.0
 40
0.0
 40
1.0
 40
1.0
 40
1.0
 40
2.0
 40
2.0
 40
2.0
 40
3.0
 40
3.0
 40
3.0
 40
4.0
 40
4.0
 40
4.0
 40
5.0
 40
5.0
 40
5.0
 40
5.0
 10
8.699731184495072
 20
-3.230259413232817
 30
0.0
 10
8.669324824664374
 20
-3.18132192966406
 30
0.0
 10
8.685835259265634
 20
-3.116835947544637
 30
0.0
 10
8.735949146230217
 20
-3.088410213614174
 30
0.0
 10
8.735949146230217
 20
-3.088410213614174
 30
0.0
 10
9.949593245818125
 20
-2.400003738868008
 30
0.0
 10
9.949593245818125
 20
-2.400003738868008
 30
0.0
 10
9.949593245818125
 20
-2.400003738868008
 30
0.0
 10
9.833047122553277
 20
-2.194535705562885
 30
0.0
 10
9.833047122553277
 20
-2.194535705562885
 30
0.0
 10
9.833047122553277
 20
-2.194535705562885
 30
0.0
 10
8.619403022851454
 20
-2.882942137498655
 30
0.0
 10
8.619403022851454
 20
-2.882942137498655
 30
0.0
 10
8.569289338024646
 20
-2.911367755001518
 30
0.0
 10
8.505468805202579
 20
-2.892447757450428
 30
0.0
 10
8.479069244485345
 20
-2.841237794247339
 30
0.0
  0
SPLINE
  5
4C
330
1F
100
AcDbEntity
  8
Layer 3
 62
   240
420
 15539236
370
     5
100
AcDbSpline
210
0.0
220
0.0
230
1.0
 70
    11
 71
     3
 72
    23
 73
    19
 74
     0
 42
0.0000000001
 43
0.0000000001
 12
1.0
 22
0.0
 32
0.0
 13
1.0
 23
0.0
 33
0.0
 40
0.0
 40
0.0
 40
0.0
 40
0.0
 40
1.0
 40
1.0
 40
1.0
 40
2.0
 40
2.0
 40
2.0
 40
3.0
 40
3.0
 40
3.0
 40
4.0
 40
4.0
 40
4.0
 40
5.0
 40
5.0
 40
5.0
 40
6.0
 40
6.0
 40
6.0
 40
6.0
 10
8.699659402232
 20
-3.230300129682923
 30
0.0
 10
8.673259841528534
 20
-3.179090166472709
 30
0.0
 10
8.609439308711444
 20
-3.160170168904465
 30
0.0
 10
8.559325623877157
 20
-3.188595786393762
 30
0.0
 10
8.559325623877157
 20
-3.188595786393762
 30
0.0
 10
7.345681523989797
 20
-3.877002218002619
 30
0.0
 10
7.345681523989797
 20
-3.877002218002619
 30
0.0
 10
7.345681523989797
 20
-3.877002218002619
 30
0.0
 10
7.2291354007802
 20
-3.671534184666118
 30
0.0
 10
7.2291354007802
 20
-3.671534184666118
 30
0.0
 10
7.2291354007802
 20
-3.671534184666118
 30
0.0
 10
8.442779500553545
 20
-2.983127710246865
 30
0.0
 10
8.442779500553545
 20
-2.983127710246865
 30
0.0
 10
8.492893387525909
 20
-2.954701976329918
 30
0.0
 10
8.509403822144526
 20
-2.890215994214941
 30
0.0
 10
8.478997462327015
 20
-2.841278510637999
 30
0.0
 10
8.478997462327015
 20
-2.841278510637999
 30
0.0
 10
8.699659402232
 20
-3.230300129682923
 30
0.0
 10
8.699659402232
 20
-3.230300129682923
 30
0.0
  0
SPLINE
  5
4D
330
1F
100
AcDbEntity
  8
Layer 3
 62
   240
420
 15539236
370
     5
100
AcDbSpline
210
0.0
220
0.0
230
1.0
 70
     8
 71
     3
 72
    20
 73
    16
 74
     0
 42
0.0000000001
 43
0.0000000001
 12
1.0
 22
0.0
 32
0.0
 13
1.0
 23
0.0
 33
0.0
 40
0.0
 40
0.0
 40
0.0
 40
0.0
 40
1.0
 40
1.0
 40
1.0
 40
2.0
 40
2.0
 40
2.0
 40
3.0
 40
3.0
 40
3.0
 40
4.0
 40
4.0
 40
4.0
 40
5.0
 40
5.0
 40
5.0
 40
5.0
 10
6.066549300318962
 20
-7.807355842489414
 30
0.0
 10
6.00898091203256
 20
-7.809659032949689
 30
0.0
 10
5.961035954157144
 20
-7.763482011012911
 30
0.0
 10
5.9610359534177
 20
-7.705867568238621
 30
0.0
 10
5.9610359534177
 20
-7.705867568238621
 30
0.0
 10
5.961035935511745
 20
-6.310577105669254
 30
0.0
 10
5.961035935511745
 20
-6.310577105669254
 30
0.0
 10
5.961035935511745
 20
-6.310577105669254
 30
0.0
 10
5.724815463159378
 20
-6.310577101784323
 30
0.0
 10
5.724815463159378
 20
-6.310577101784323
 30
0.0
 10
5.724815463159378
 20
-6.310577101784323
 30
0.0
 10
5.724815443772008
 20
-7.705867543331098
 30
0.0
 10
5.724815443772008
 20
-7.705867543331098
 30
0.0
 10
5.724815442971602
 20
-7.763481752839955
 30
0.0
 10
5.676870866285626
 20
-7.809659066354773
 30
0.0
 10
5.61930271083285
 20
-7.807355891353078
 30
0.0
  0
SPLINE
  5
4E
330
1F
100
AcDbEntity
  8
Layer 3
 62
   240
420
 15539236
370
     5
100
AcDbSpline
210
0.0
220
0.0
230
1.0
 70
    11
 71
     3
 72
    23
 73
    19
 74
     0
 42
0.0000000001
 43
0.0000000001
 12
1.0
 22
0.0
 32
0.0
 13
1.0
 23
0.0
 33
0.0
 40
0.0
 40
0.0
 40
0.0
 40
0.0
 40
1.0
 40
1.0
 40
1.0
 40
2.0
 40
2.0
 40
2.0
 40
3.0
 40
3.0
 40
3.0
 40
4.0
 40
4.0
 40
4.0
 40
5.0
 40
5.0
 40
5.0
 40
6.0
 40
6.0
 40
6.0
 40
6.0
 10
6.066549300251735
 20
-7.807438368379886
 30
0.0
 10
6.008981144799514
 20
-7.80513519336268
 30
0.0
 10
5.961036568101185
 20
-7.851312506864613
 30
0.0
 10
5.961036567285216
 20
-7.908926716373419
 30
0.0
 10
5.961036567285216
 20
-7.908926716373419
 30
0.0
 10
5.961036547522022
 20
-9.304217157920194
 30
0.0
 10
5.961036547522022
 20
-9.304217157920194
 30
0.0
 10
5.961036547522022
 20
-9.304217157920194
 30
0.0
 10
5.724816075169656
 20
-9.304217153971674
 30
0.0
 10
5.724816075169656
 20
-9.304217153971674
 30
0.0
 10
5.724816075169656
 20
-9.304217153971674
 30
0.0
 10
5.724816057639512
 20
-7.908926691402307
 30
0.0
 10
5.724816057639512
 20
-7.908926691402307
 30
0.0
 10
5.724816056915617
 20
-7.851312248627992
 30
0.0
 10
5.676871099052707
 20
-7.805135226678279
 30
0.0
 10
5.619302710765623
 20
-7.807438417123093
 30
0.0
 10
5.619302710765623
 20
-7.807438417123093
 30
0.0
 10
6.066549300251735
 20
-7.807438368379886
 30
0.0
 10
6.066549300251735
 20
-7.807438368379886
 30
0.0
  0
SPLINE
  5
4F
330
1F
100
AcDbEntity
  8
Layer 3
 62
   240
420
 15539236
370
     5
100
AcDbSpline
210
0.0
220
0.0
230
1.0
 70
     8
 71
     3
 72
    20
 73
    16
 74
     0
 42
0.0000000001
 43
0.0000000001
 12
1.0
 22
0.0
 32
0.0
 13
1.0
 23
0.0
 33
0.0
 40
0.0
 40
0.0
 40
0.0
 40
0.0
 40
1.0
 40
1.0
 40
1.0
 40
2.0
 40
2.0
 40
2.0
 40
3.0
 40
3.0
 40
3.0
 40
4.0
 40
4.0
 40
4.0
 40
5.0
 40
5.0
 40
5.0
 40
5.0
 10
2.990364464940348
 20
-3.211153735453637
 30
0.0
 10
3.017005881302983
 20
-3.160068914318749
 30
0.0
 10
3.080915064856602
 20
-3.141450305398065
 30
0.0
 10
3.130894036190069
 20
-3.170112587942033
 30
0.0
 10
3.130894036190069
 20
-3.170112587942033
 30
0.0
 10
4.341270786754523
 20
-3.86424773085749
 30
0.0
 10
4.341270786754523
 20
-3.86424773085749
 30
0.0
 10
4.341270786754523
 20
-3.86424773085749
 30
0.0
 10
4.458786776511462
 20
-3.659332861436597
 30
0.0
 10
4.458786776511462
 20
-3.659332861436597
 30
0.0
 10
4.458786776511462
 20
-3.659332861436597
 30
0.0
 10
3.248410062736462
 20
-2.965197696628593
 30
0.0
 10
3.248410062736462
 20
-2.965197696628593
 30
0.0
 10
3.198431294520484
 20
-2.936535528794643
 30
0.0
 10
3.18222540009021
 20
-2.871972414691072
 30
0.0
 10
3.212862598084232
 20
-2.823179390226465
 30
0.0
  0
SPLINE
  5
50
330
1F
100
AcDbEntity
  8
Layer 3
 62
   240
420
 15539236
370
     5
100
AcDbSpline
210
0.0
220
0.0
230
1.0
 70
    11
 71
     3
 72
    23
 73
    19
 74
     0
 42
0.0000000001
 43
0.0000000001
 12
1.0
 22
0.0
 32
0.0
 13
1.0
 23
0.0
 33
0.0
 40
0.0
 40
0.0
 40
0.0
 40
0.0
 40
1.0
 40
1.0
 40
1.0
 40
2.0
 40
2.0
 40
2.0
 40
3.0
 40
3.0
 40
3.0
 40
4.0
 40
4.0
 40
4.0
 40
5.0
 40
5.0
 40
5.0
 40
6.0
 40
6.0
 40
6.0
 40
6.0
 10
2.990292875995616
 20
-3.211112680057012
 30
0.0
 10
3.020930074002838
 20
-3.162319655600615
 30
0.0
 10
3.004724179589933
 20
-3.097756541492698
 30
0.0
 10
2.954745411381737
 20
-3.069094373645283
 30
0.0
 10
2.954745411381737
 20
-3.069094373645283
 30
0.0
 10
1.744368697793687
 20
-2.37495920851125
 30
0.0
 10
1.744368697793687
 20
-2.37495920851125
 30
0.0
 10
1.744368697793687
 20
-2.37495920851125
 30
0.0
 10
1.861884687605766
 20
-2.170044339121988
 30
0.0
 10
1.861884687605766
 20
-2.170044339121988
 30
0.0
 10
1.861884687605766
 20
-2.170044339121988
 30
0.0
 10
3.072261437983267
 20
-2.864179482363447
 30
0.0
 10
3.072261437983267
 20
-2.864179482363447
 30
0.0
 10
3.122240409308966
 20
-2.892841764920932
 30
0.0
 10
3.186149592867574
 20
-2.874223156017479
 30
0.0
 10
3.212791009243953
 20
-2.823138334889715
 30
0.0
 10
3.212791009243953
 20
-2.823138334889715
 30
0.0
 10
2.990292875995616
 20
-3.211112680057012
 30
0.0
 10
2.990292875995616
 20
-3.211112680057012
 30
0.0
  0
ENDSEC
  0
SECTION
  2
OBJECTS
  0
DICTIONARY
  5
C
330
0
100
AcDbDictionary
281
     1
  3
ACAD_GROUP
350
D
  3
ACAD_LAYOUT
350
1A
  3
ACAD_MATERIAL
350
3B
  3
ACAD_MLEADERSTYLE
350
52
  3
ACAD_MLINESTYLE
350
17
  3
ACAD_PLOTSETTINGS
350
19
  3
ACAD_PLOTSTYLENAME
350
E
  3
ACAD_TABLESTYLE
350
51
  3
ACAD_VISUALSTYLE
350
2A
  0
SUN
  5
3F
330
29
100
AcDbSun
 90
        1
290
     0
 63
     7
421
 16777215
 40
1.0
291
     1
 91
  2455826
 92
 54000000
292
     0
 70
     2
 71
   256
280
     1
  0
DICTIONARY
  5
D
102
{ACAD_REACTORS
330
C
102
}
330
C
100
AcDbDictionary
281
     1
  0
DICTIONARY
  5
1A
102
{ACAD_REACTORS
330
C
102
}
330
C
100
AcDbDictionary
281
     1
  3
Layout1
350
1E
  3
Layout2
350
26
  3
Model
350
22
  0
DICTIONARY
  5
3B
102
{ACAD_REACTORS
330
C
102
}
330
C
100
AcDbDictionary
281
     1
  3
ByBlock
350
3D
  3
ByLayer
350
3C
  3
Global
350
3E
  0
DICTIONARY
  5
52
102
{ACAD_REACTORS
330
C
102
}
330
C
100
AcDbDictionary
281
     1
  0
DICTIONARY
  5
17
102
{ACAD_REACTORS
330
C
102
}
330
C
100
AcDbDictionary
281
     1
  3
Standard
350
18
  0
DICTIONARY
  5
19
102
{ACAD_REACTORS
330
C
102
}
330
C
100
AcDbDictionary
281
     1
  0
ACDBDICTIONARYWDFLT
  5
E
102
{ACAD_REACTORS
330
C
102
}
330
C
100
AcDbDictionary
281
     1
  3
Normal
350
F
100
AcDbDictionaryWithDefault
340
F
  0
DICTIONARY
  5
51
102
{ACAD_REACTORS
330
C
102
}
330
C
100
AcDbDictionary
281
     1
  0
DICTIONARY
  5
2A
102
{ACAD_REACTORS
330
C
102
}
330
C
100
AcDbDictionary
281
     1
  3
2dWireframe
350
2F
  3
3D Hidden
350
31
  3
3dWireframe
350
30
  3
Basic
350
32
  3
Brighten
350
36
  3
ColorChange
350
3A
  3
Conceptual
350
34
  3
Dim
350
35
  3
Facepattern
350
39
  3
Flat
350
2B
  3
FlatWithEdges
350
2C
  3
Gouraud
350
2D
  3
GouraudWithEdges
350
2E
  3
Linepattern
350
38
  3
Realistic
350
33
  3
Thicken
350
37
  0
LAYOUT
  5
1E
102
{ACAD_REACTORS
330
1A
102
}
330
1A
100
AcDbPlotSettings
  1

  2
none_device
  4

  6

 40
0.0
 41
0.0
 42
0.0
 43
0.0
 44
0.0
 45
0.0
 46
0.0
 47
0.0
 48
0.0
 49
0.0
140
0.0
141
0.0
142
1.0
143
1.0
 70
   688
 72
     0
 73
     0
 74
     5
  7

 75
    16
 76
     0
 77
     2
 78
   300
147
1.0
148
0.0
149
0.0
100
AcDbLayout
  1
Layout1
 70
     1
 71
     1
 10
0.0
 20
0.0
 11
12.0
 21
9.0
 12
0.0
 22
0.0
 32
0.0
 14
1.000000000000000E+20
 24
1.000000000000000E+20
 34
1.000000000000000E+20
 15
-1.000000000000000E+20
 25
-1.000000000000000E+20
 35
-1.000000000000000E+20
146
0.0
 13
0.0
 23
0.0
 33
0.0
 16
1.0
 26
0.0
 36
0.0
 17
0.0
 27
1.0
 37
0.0
 76
     0
330
1B
  0
LAYOUT
  5
26
102
{ACAD_REACTORS
330
1A
102
}
330
1A
100
AcDbPlotSettings
  1

  2
none_device
  4

  6

 40
0.0
 41
0.0
 42
0.0
 43
0.0
 44
0.0
 45
0.0
 46
0.0
 47
0.0
 48
0.0
 49
0.0
140
0.0
141
0.0
142
1.0
143
1.0
 70
   688
 72
     0
 73
     0
 74
     5
  7

 75
    16
 76
     0
 77
     2
 78
   300
147
1.0
148
0.0
149
0.0
100
AcDbLayout
  1
Layout2
 70
     1
 71
     2
 10
0.0
 20
0.0
 11
0.0
 21
0.0
 12
0.0
 22
0.0
 32
0.0
 14
0.0
 24
0.0
 34
0.0
 15
0.0
 25
0.0
 35
0.0
146
0.0
 13
0.0
 23
0.0
 33
0.0
 16
1.0
 26
0.0
 36
0.0
 17
0.0
 27
1.0
 37
0.0
 76
     0
330
23
  0
LAYOUT
  5
22
102
{ACAD_REACTORS
330
1A
102
}
330
1A
100
AcDbPlotSettings
  1

  2
none_device
  4

  6

 40
0.0
 41
0.0
 42
0.0
 43
0.0
 44
0.0
 45
0.0
 46
0.0
 47
0.0
 48
0.0
 49
0.0
140
0.0
141
0.0
142
1.0
143
1.0
 70
  1712
 72
     0
 73
     0
 74
     0
  7

 75
     0
 76
     0
 77
     2
 78
   300
147
1.0
148
0.0
149
0.0
100
AcDbLayout
  1
Model
 70
     1
 71
     0
 10
0.0
 20
0.0
 11
12.0
 21
9.0
 12
0.0
 22
0.0
 32
0.0
 14
1.000000000000000E+20
 24
1.000000000000000E+20
 34
1.000000000000000E+20
 15
-1.000000000000000E+20
 25
-1.000000000000000E+20
 35
-1.000000000000000E+20
146
0.0
 13
0.0
 23
0.0
 33
0.0
 16
1.0
 26
0.0
 36
0.0
 17
0.0
 27
1.0
 37
0.0
 76
     0
330
1F
331
29
  0
MATERIAL
  5
3D
102
{ACAD_REACTORS
330
3B
102
}
330
3B
100
AcDbMaterial
  1
ByBlock
 72
     1
 94
      127
  0
MATERIAL
  5
3C
102
{ACAD_REACTORS
330
3B
102
}
330
3B
100
AcDbMaterial
  1
ByLayer
 72
     1
 94
      127
  0
MATERIAL
  5
3E
102
{ACAD_REACTORS
330
3B
102
}
330
3B
100
AcDbMaterial
  1
Global
 72
     1
 94
      127
  0
MLINESTYLE
  5
18
102
{ACAD_REACTORS
330
17
102
}
330
17
100
AcDbMlineStyle
  2
Standard
 70
     0
  3

 62
   256
 51
90.0
 52
90.0
 71
     2
 49
0.5
 62
   256
  6
BYLAYER
 49
-0.5
 62
   256
  6
BYLAYER
  0
ACDBPLACEHOLDER
  5
F
102
{ACAD_REACTORS
330
E
102
}
330
E
  0
VISUALSTYLE
  5
2F
102
{ACAD_REACTORS
330
2A
102
}
330
2A
100
AcDbVisualStyle
  2
2dWireframe
 70
     4
177
     2
291
     0
 71
     0
176
     1
 72
     2
176
     1
 73
     0
176
     1
 90
        0
176
     1
 40
-0.6
176
     1
 41
-30.0
176
     1
 62
     5
 63
     7
421
 16777215
176
     1
 74
     1
176
     1
 91
        4
176
     1
 64
     7
176
     1
 65
   257
176
     1
 75
     1
176
     1
175
     1
176
     1
 42
1.0
176
     1
 92
        0
176
     1
 66
   257
176
     1
 43
1.0
176
     1
 76
     1
176
     1
 77
     6
176
     1
 78
     2
176
     1
 67
     7
176
     1
 79
     5
176
     1
170
     0
176
     1
171
     0
176
     1
290
     0
176
     1
 93
        1
176
     1
 44
0.0
176
     1
173
     0
176
     1
  0
VISUALSTYLE
  5
31
102
{ACAD_REACTORS
330
2A
102
}
330
2A
100
AcDbVisualStyle
  2
3D Hidden
 70
     6
177
     2
291
     0
 71
     1
176
     1
 72
     2
176
     1
 73
     2
176
     1
 90
        0
176
     1
 40
-0.6
176
     1
 41
-30.0
176
     1
 62
     5
 63
     7
421
 16777215
176
     1
 74
     2
176
     1
 91
        2
176
     1
 64
     7
176
     1
 65
   257
176
     1
 75
     2
176
     1
175
     1
176
     1
 42
40.0
176
     1
 92
        0
176
     1
 66
   257
176
     1
 43
1.0
176
     1
 76
     1
176
     1
 77
     6
176
     1
 78
     2
176
     1
 67
     7
176
     1
 79
     3
176
     1
170
     0
176
     1
171
     0
176
     1
290
     0
176
     1
 93
        1
176
     1
 44
0.0
176
     1
173
     0
176
     1
  0
VISUALSTYLE
  5
30
102
{ACAD_REACTORS
330
2A
102
}
330
2A
100
AcDbVisualStyle
  2
3dWireframe
 70
     5
177
     2
291
     0
 71
     0
176
     1
 72
     2
176
     1
 73
     0
176
     1
 90
        0
176
     1
 40
-0.6
176
     1
 41
-30.0
176
     1
 62
     5
 63
     7
421
 16777215
176
     1
 74
     1
176
     1
 91
        4
176
     1
 64
     7
176
     1
 65
   257
176
     1
 75
     1
176
     1
175
     1
176
     1
 42
1.0
176
     1
 92
        0
176
     1
 66
   257
176
     1
 43
1.0
176
     1
 76
     1
176
     1
 77
     6
176
     1
 78
     2
176
     1
 67
     7
176
     1
 79
     5
176
     1
170
     0
176
     1
171
     0
176
     1
290
     0
176
     1
 93
        1
176
     1
 44
0.0
176
     1
173
     0
176
     1
  0
VISUALSTYLE
  5
32
102
{ACAD_REACTORS
330
2A
102
}
330
2A
100
AcDbVisualStyle
  2
Basic
 70
     7
177
     2
291
     1
 71
     1
176
     1
 72
     0
176
     1
 73
     1
176
     1
 90
        0
176
     1
 40
-0.6
176
     1
 41
-30.0
176
     1
 62
     5
 63
     7
421
 16777215
176
     1
 74
     0
176
     1
 91
        4
176
     1
 64
     7
176
     1
 65
   257
176
     1
 75
     1
176
     1
175
     1
176
     1
 42
1.0
176
     1
 92
        8
176
     1
 66
     7
176
     1
 43
1.0
176
     1
 76
     1
176
     1
 77
     6
176
     1
 78
     2
176
     1
 67
     7
176
     1
 79
     5
176
     1
170
     0
176
     1
171
     0
176
     1
290
     0
176
     1
 93
        1
176
     1
 44
0.0
176
     1
173
     0
176
     1
  0
VISUALSTYLE
  5
36
102
{ACAD_REACTORS
330
2A
102
}
330
2A
100
AcDbVisualStyle
  2
Brighten
 70
    12
177
     2
291
     1
 71
     2
176
     1
 72
     2
176
     1
 73
     0
176
     1
 90
        0
176
     1
 40
-0.6
176
     1
 41
-30.0
176
     1
 62
     5
 63
     7
421
 16777215
176
     1
 74
     1
176
     1
 91
        4
176
     1
 64
     7
176
     1
 65
   257
176
     1
 75
     1
176
     1
175
     1
176
     1
 42
1.0
176
     1
 92
        8
176
     1
 66
     7
176
     1
 43
1.0
176
     1
 76
     1
176
     1
 77
     6
176
     1
 78
     2
176
     1
 67
     7
176
     1
 79
     5
176
     1
170
     0
176
     1
171
     0
176
     1
290
     0
176
     1
 93
        1
176
     1
 44
50.0
176
     1
173
     0
176
     1
  0
VISUALSTYLE
  5
3A
102
{ACAD_REACTORS
330
2A
102
}
330
2A
100
AcDbVisualStyle
  2
ColorChange
 70
    16
177
     2
291
     1
 71
     2
176
     1
 72
     2
176
     1
 73
     3
176
     1
 90
        0
176
     1
 40
-0.6
176
     1
 41
-30.0
176
     1
 62
     5
 63
     8
421
  8421504
176
     1
 74
     1
176
     1
 91
        4
176
     1
 64
     7
176
     1
 65
   257
176
     1
 75
     1
176
     1
175
     1
176
     1
 42
1.0
176
     1
 92
        8
176
     1
 66
     8
424
  8421504
176
     1
 43
1.0
176
     1
 76
     1
176
     1
 77
     6
176
     1
 78
     2
176
     1
 67
     7
176
     1
 79
     5
176
     1
170
     0
176
     1
171
     0
176
     1
290
     0
176
     1
 93
        1
176
     1
 44
0.0
176
     1
173
     0
176
     1
  0
VISUALSTYLE
  5
34
102
{ACAD_REACTORS
330
2A
102
}
330
2A
100
AcDbVisualStyle
  2
Conceptual
 70
     9
177
     2
291
     0
 71
     3
176
     1
 72
     2
176
     1
 73
     0
176
     1
 90
        0
176
     1
 40
-0.6
176
     1
 41
-30.0
176
     1
 62
     5
 63
     7
421
 16777215
176
     1
 74
     2
176
     1
 91
        2
176
     1
 64
     7
176
     1
 65
   257
176
     1
 75
     1
176
     1
175
     1
176
     1
 42
40.0
176
     1
 92
        8
176
     1
 66
     7
176
     1
 43
1.0
176
     1
 76
     1
176
     1
 77
     6
176
     1
 78
     2
176
     1
 67
     7
176
     1
 79
     3
176
     1
170
     0
176
     1
171
     0
176
     1
290
     0
176
     1
 93
        1
176
     1
 44
0.0
176
     1
173
     0
176
     1
  0
VISUALSTYLE
  5
35
102
{ACAD_REACTORS
330
2A
102
}
330
2A
100
AcDbVisualStyle
  2
Dim
 70
    11
177
     2
291
     1
 71
     2
176
     1
 72
     2
176
     1
 73
     0
176
     1
 90
        0
176
     1
 40
-0.6
176
     1
 41
-30.0
176
     1
 62
     5
 63
     7
421
 16777215
176
     1
 74
     1
176
     1
 91
        4
176
     1
 64
     7
176
     1
 65
   257
176
     1
 75
     1
176
     1
175
     1
176
     1
 42
1.0
176
     1
 92
        8
176
     1
 66
     7
176
     1
 43
1.0
176
     1
 76
     1
176
     1
 77
     6
176
     1
 78
     2
176
     1
 67
     7
176
     1
 79
     5
176
     1
170
     0
176
     1
171
     0
176
     1
290
     0
176
     1
 93
        1
176
     1
 44
-50.0
176
     1
173
     0
176
     1
  0
VISUALSTYLE
  5
39
102
{ACAD_REACTORS
330
2A
102
}
330
2A
100
AcDbVisualStyle
  2
Facepattern
 70
    15
177
     2
291
     1
 71
     2
176
     1
 72
     2
176
     1
 73
     0
176
     1
 90
        0
176
     1
 40
-0.6
176
     1
 41
-30.0
176
     1
 62
     5
 63
     7
421
 16777215
176
     1
 74
     1
176
     1
 91
        4
176
     1
 64
     7
176
     1
 65
   257
176
     1
 75
     1
176
     1
175
     1
176
     1
 42
1.0
176
     1
 92
        8
176
     1
 66
     7
176
     1
 43
1.0
176
     1
 76
     1
176
     1
 77
     6
176
     1
 78
     2
176
     1
 67
     7
176
     1
 79
     5
176
     1
170
     0
176
     1
171
     0
176
     1
290
     0
176
     1
 93
        1
176
     1
 44
0.0
176
     1
173
     0
176
     1
  0
VISUALSTYLE
  5
2B
102
{ACAD_REACTORS
330
2A
102
}
330
2A
100
AcDbVisualStyle
  2
Flat
 70
     0
177
     2
291
     1
 71
     2
176
     1
 72
     1
176
     1
 73
     1
176
     1
 90
        2
176
     1
 40
-0.6
176
     1
 41
30.0
176
     1
 62
     5
 63
     7
421
 16777215
176
     1
 74
     0
176
     1
 91
        4
176
     1
 64
     7
176
     1
 65
   257
176
     1
 75
     1
176
     1
175
     1
176
     1
 42
1.0
176
     1
 92
        8
176
     1
 66
     7
176
     1
 43
1.0
176
     1
 76
     1
176
     1
 77
     6
176
     1
 78
     2
176
     1
 67
     7
176
     1
 79
     5
176
     1
170
     0
176
     1
171
     0
176
     1
290
     0
176
     1
 93
       13
176
     1
 44
0.0
176
     1
173
     0
176
     1
  0
VISUALSTYLE
  5
2C
102
{ACAD_REACTORS
330
2A
102
}
330
2A
100
AcDbVisualStyle
  2
FlatWithEdges
 70
     1
177
     2
291
     1
 71
     2
176
     1
 72
     1
176
     1
 73
     1
176
     1
 90
        2
176
     1
 40
-0.6
176
     1
 41
30.0
176
     1
 62
     5
 63
     7
421
 16777215
176
     1
 74
     1
176
     1
 91
        4
176
     1
 64
     7
176
     1
 65
   257
176
     1
 75
     1
176
     1
175
     1
176
     1
 42
1.0
176
     1
 92
        0
176
     1
 66
   257
176
     1
 43
1.0
176
     1
 76
     1
176
     1
 77
     6
176
     1
 78
     2
176
     1
 67
     7
176
     1
 79
     5
176
     1
170
     0
176
     1
171
     0
176
     1
290
     0
176
     1
 93
       13
176
     1
 44
0.0
176
     1
173
     0
176
     1
  0
VISUALSTYLE
  5
2D
102
{ACAD_REACTORS
330
2A
102
}
330
2A
100
AcDbVisualStyle
  2
Gouraud
 70
     2
177
     2
291
     1
 71
     2
176
     1
 72
     2
176
     1
 73
     1
176
     1
 90
        2
176
     1
 40
-0.6
176
     1
 41
30.0
176
     1
 62
     5
 63
     7
421
 16777215
176
     1
 74
     0
176
     1
 91
        4
176
     1
 64
     7
176
     1
 65
   257
176
     1
 75
     1
176
     1
175
     1
176
     1
 42
1.0
176
     1
 92
        0
176
     1
 66
     7
176
     1
 43
1.0
176
     1
 76
     1
176
     1
 77
     6
176
     1
 78
     2
176
     1
 67
     7
176
     1
 79
     5
176
     1
170
     0
176
     1
171
     0
176
     1
290
     0
176
     1
 93
       13
176
     1
 44
0.0
176
     1
173
     0
176
     1
  0
VISUALSTYLE
  5
2E
102
{ACAD_REACTORS
330
2A
102
}
330
2A
100
AcDbVisualStyle
  2
GouraudWithEdges
 70
     3
177
     2
291
     1
 71
     2
176
     1
 72
     2
176
     1
 73
     1
176
     1
 90
        2
176
     1
 40
-0.6
176
     1
 41
30.0
176
     1
 62
     5
 63
     7
421
 16777215
176
     1
 74
     1
176
     1
 91
        4
176
     1
 64
     7
176
     1
 65
   257
176
     1
 75
     1
176
     1
175
     1
176
     1
 42
1.0
176
     1
 92
        0
176
     1
 66
   257
176
     1
 43
1.0
176
     1
 76
     1
176
     1
 77
     6
176
     1
 78
     2
176
     1
 67
     7
176
     1
 79
     5
176
     1
170
     0
176
     1
171
     0
176
     1
290
     0
176
     1
 93
       13
176
     1
 44
0.0
176
     1
173
     0
176
     1
  0
VISUALSTYLE
  5
38
102
{ACAD_REACTORS
330
2A
102
}
330
2A
100
AcDbVisualStyle
  2
Linepattern
 70
    14
177
     2
291
     1
 71
     2
176
     1
 72
     2
176
     1
 73
     0
176
     1
 90
        0
176
     1
 40
-0.6
176
     1
 41
-30.0
176
     1
 62
     5
 63
     7
421
 16777215
176
     1
 74
     1
176
     1
 91
        4
176
     1
 64
     7
176
     1
 65
   257
176
     1
 75
     7
176
     1
175
     7
176
     1
 42
1.0
176
     1
 92
        8
176
     1
 66
     7
176
     1
 43
1.0
176
     1
 76
     1
176
     1
 77
     6
176
     1
 78
     2
176
     1
 67
     7
176
     1
 79
     5
176
     1
170
     0
176
     1
171
     0
176
     1
290
     0
176
     1
 93
        1
176
     1
 44
0.0
176
     1
173
     0
176
     1
  0
VISUALSTYLE
  5
33
102
{ACAD_REACTORS
330
2A
102
}
330
2A
100
AcDbVisualStyle
  2
Realistic
 70
     8
177
     2
291
     0
 71
     2
176
     1
 72
     2
176
     1
 73
     0
176
     1
 90
        0
176
     1
 40
-0.6
176
     1
 41
-30.0
176
     1
 62
     5
 63
     7
421
 16777215
176
     1
 74
     1
176
     1
 91
        0
176
     1
 64
     7
176
     1
 65
   257
176
     1
 75
     1
176
     1
175
     1
176
     1
 42
1.0
176
     1
 92
        8
176
     1
 66
     8
424
  7895160
176
     1
 43
1.0
176
     1
 76
     1
176
     1
 77
     6
176
     1
 78
     2
176
     1
 67
     7
176
     1
 79
     5
176
     1
170
     0
176
     1
171
     0
176
     1
290
     0
176
     1
 93
       13
176
     1
 44
0.0
176
     1
173
     0
176
     1
  0
VISUALSTYLE
  5
37
102
{ACAD_REACTORS
330
2A
102
}
330
2A
100
AcDbVisualStyle
  2
Thicken
 70
    13
177
     2
291
     1
 71
     2
176
     1
 72
     2
176
     1
 73
     0
176
     1
 90
        0
176
     1
 40
-0.6
176
     1
 41
-30.0
176
     1
 62
     5
 63
     7
421
 16777215
176
     1
 74
     1
176
     1
 91
        4
176
     1
 64
     7
176
     1
 65
   257
176
     1
 75
     1
176
     1
175
     1
176
     1
 42
1.0
176
     1
 92
       12
176
     1
 66
     7
176
     1
 43
1.0
176
     1
 76
     1
176
     1
 77
     6
176
     1
 78
     2
176
     1
 67
     7
176
     1
 79
     5
176
     1
170
     0
176
     1
171
     0
176
     1
290
     0
176
     1
 93
        1
176
     1
 44
0.0
176
     1
173
     0
176
     1
  0
ENDSEC
  0
EOF
